<?xml version="1.0" encoding="UTF-8"?>
<svg width="160px" height="160px" viewBox="0 0 160 160" version="1.1" xmlns="http://www.w3.org/2000/svg" xmlns:xlink="http://www.w3.org/1999/xlink">
    <!-- Generator: Sketch 63.1 (92452) - https://sketch.com -->
    <title>Assets/Logo/Client/3M</title>
    <desc>Created with Sketch.</desc>
    <g id="Assets/Logo/Client/3M" stroke="none" stroke-width="1" fill="none" fill-rule="evenodd">
        <path d="M96.7591782,65.6639138 L92.5929124,82.4392101 L88.4174031,65.6639138 L76.3530469,65.6639138 L76.3530469,71.8593924 C74.8867028,66.4376207 69.5095477,65.078226 64.7038046,65.0016872 C58.8443105,64.9251485 52.352902,67.4401118 52.1268581,75.1106252 L60.2316653,75.1106252 C60.2316653,72.7928324 62.3719394,71.4650515 64.3954102,71.5 C66.8776912,71.4808584 68.0205152,72.5282745 68.0768161,74.1613784 C67.9919446,75.5815049 67.1457506,76.5690211 64.4155776,76.5690211 L61.6887659,76.5690211 L61.6887659,82.1338871 L64.1634841,82.1338871 C65.5684854,82.1338871 67.5255716,82.891787 67.6028802,84.8718111 C67.6961548,87.2345289 66.0365391,88.2727936 63.9962621,88.2910964 C60.3526702,88.1613133 59.4123613,85.3876157 59.4123613,83.0032674 L51,83.0032674 C51.0352931,84.6080852 50.9831938,95.0764225 64.1651647,94.9990519 C70.4809481,95.0572879 75.0766133,92.4266845 76.3740546,88.8035732 L76.3740546,94.3601197 L84.4855843,94.3601197 L84.4855843,76.2628661 L88.9720089,94.3601197 L96.222219,94.3601197 L100.722929,76.2820008 L100.722929,94.3759266 L109,94.3759266 L109,65.6639138 L96.7591782,65.6639138 Z" id="3M" fill="#405D6F"></path>
    </g>
</svg>