<?xml version="1.0" encoding="UTF-8"?>
<svg width="160px" height="160px" viewBox="0 0 160 160" version="1.1" xmlns="http://www.w3.org/2000/svg" xmlns:xlink="http://www.w3.org/1999/xlink">
    <!-- Generator: Sketch 63.1 (92452) - https://sketch.com -->
    <title>Assets/Logo/Client/ACCRA</title>
    <desc>Created with Sketch.</desc>
    <g id="Assets/Logo/Client/ACCRA" stroke="none" stroke-width="1" fill="none" fill-rule="evenodd">
        <g id="ACCRA" transform="translate(25.000000, 64.000000)">
            <path d="M31.6789,15.84055 C31.6789,24.58775 24.5883,31.68055 15.8389,31.68055 C7.0906,31.68055 0,24.58775 0,15.84055 C0,7.09335 7.0906,0.00165 15.8389,0.00165 C24.5883,0.00165 31.6789,7.09335 31.6789,15.84055" id="Fill-1" fill="#405D6F" opacity="0.96"></path>
            <path d="M52.25077,15.84055 C52.25077,24.58775 45.15907,31.68055 36.41077,31.68055 C27.66137,31.68055 20.57077,24.58775 20.57077,15.84055 C20.57077,7.09335 27.66137,0.00165 36.41077,0.00165 C45.15907,0.00165 52.25077,7.09335 52.25077,15.84055" id="Fill-3" fill="#667D8C" opacity="0.96"></path>
            <path d="M71.17572,15.84055 C71.17572,24.58775 64.08622,31.68055 55.33792,31.68055 C46.58742,31.68055 39.49572,24.58775 39.49572,15.84055 C39.49572,7.09335 46.58742,0.00165 55.33792,0.00165 C64.08622,0.00165 71.17572,7.09335 71.17572,15.84055" id="Fill-6" fill="#8598A3" opacity="0.96"></path>
            <path d="M90.92314,15.84055 C90.92314,24.58775 83.83364,31.68055 75.08534,31.68055 C66.33484,31.68055 59.24424,24.58775 59.24424,15.84055 C59.24424,7.09335 66.33484,0.00165 75.08534,0.00165 C83.83364,0.00165 90.92314,7.09335 90.92314,15.84055" id="Fill-9" fill="#667D8C" opacity="0.96"></path>
            <path d="M109.84974,15.84055 C109.84974,24.58775 102.76024,31.68055 94.01084,31.68055 C85.26144,31.68055 78.17084,24.58775 78.17084,15.84055 C78.17084,7.09335 85.26144,0.00165 94.01084,0.00165 C102.76024,0.00165 109.84974,7.09335 109.84974,15.84055" id="Fill-12" fill="#405D6F" opacity="0.900000036"></path>
            <path d="M16.17011,6.11149 C21.30821,6.11149 23.87671,7.95729 23.87671,11.64779 L23.87671,19.94399 C23.87671,20.79209 24.19131,21.21559 24.82051,21.21559 C25.29571,21.21559 26.01511,20.87569 26.97871,20.19589 L26.97871,23.37379 C25.07791,24.47819 23.29261,25.03039 21.62281,25.03039 C19.82431,25.03039 18.75841,24.35059 18.42401,22.98879 C16.43301,24.35059 14.43651,25.03039 12.43231,25.03039 C11.01881,25.03039 9.81871,24.58379 8.82981,23.68949 C7.83981,22.79519 7.34591,21.75679 7.34591,20.57099 C7.34591,18.99029 7.85631,17.71539 8.87711,16.74189 C9.89901,15.77169 12.99111,14.51879 18.15451,12.98869 C18.28321,10.95919 17.22941,9.94499 14.99531,9.94499 C12.56761,9.94499 10.33241,10.95919 8.28971,12.98869 L8.28971,8.32689 C10.68001,6.84959 13.30571,6.11149 16.17011,6.11149 Z M37.43608,6.1116 C39.36218,6.1116 41.40488,6.5087 43.56308,7.3062 L43.56308,11.5632 C41.98238,10.7536 40.42918,10.3488 38.90018,10.3488 C37.19188,10.3488 35.82348,10.8251 34.79608,11.7777 C33.76868,12.7292 33.25498,14.0052 33.25498,15.6002 C33.25498,17.2084 33.75658,18.5042 34.75758,19.4887 C35.75968,20.4732 37.07528,20.966 38.70768,20.966 C39.91548,20.966 41.62378,20.5491 43.83258,19.7131 L43.83258,23.8161 C41.59738,24.6279 39.54918,25.0305 37.68578,25.0305 C34.48808,25.0305 31.93168,24.1736 30.01878,22.4554 C28.10368,20.7405 27.14778,18.4657 27.14778,15.6376 C27.14778,12.8733 28.11358,10.5941 30.04738,8.8011 C31.98118,7.007 34.44298,6.1116 37.43608,6.1116 Z M58.0085,6.1116 C59.9346,6.1116 61.9751,6.5087 64.1333,7.3062 L64.1333,11.5632 C62.5537,10.7536 60.9983,10.3488 59.4726,10.3488 C57.7621,10.3488 56.3959,10.8251 55.3674,11.7777 C54.3389,12.7292 53.8263,14.0052 53.8263,15.6002 C53.8263,17.2084 54.3268,18.5042 55.3289,19.4887 C56.331,20.4732 57.6466,20.966 59.2801,20.966 C60.4857,20.966 62.1929,20.5491 64.4028,19.7131 L64.4028,23.8161 C62.1698,24.6279 60.1205,25.0305 58.2571,25.0305 C55.0594,25.0305 52.503,24.1736 50.589,22.4554 C48.675,20.7405 47.718,18.4657 47.718,15.6376 C47.718,12.8733 48.6849,10.5941 50.6176,8.8011 C52.5514,7.007 55.0143,6.1116 58.0085,6.1116 Z M94.33985,6.11149 C99.47795,6.11149 102.04755,7.95729 102.04755,11.64779 L102.04755,19.94399 C102.04755,20.79209 102.36105,21.21559 102.99245,21.21559 C103.46545,21.21559 104.18705,20.87569 105.14955,20.19589 L105.14955,23.37379 C103.24875,24.47819 101.46455,25.03039 99.79365,25.03039 C97.99515,25.03039 96.92925,24.35059 96.59375,22.98879 C94.60385,24.35059 92.60735,25.03039 90.60315,25.03039 C89.19075,25.03039 87.99065,24.58379 86.99955,23.68949 C86.01175,22.79519 85.51785,21.75679 85.51785,20.57099 C85.51785,18.99029 86.02825,17.71539 87.04795,16.74189 C88.06985,15.77169 91.16305,14.51879 96.32645,12.98869 C96.45405,10.95919 95.40025,9.94499 93.16615,9.94499 C90.73845,9.94499 88.50435,10.95919 86.46055,12.98869 L86.46055,8.32689 C88.84865,6.84959 91.47765,6.11149 94.33985,6.11149 Z M79.38513,6.10984 C80.43783,6.10984 81.70283,6.66204 83.18013,7.76754 L81.59943,12.83524 C80.18703,11.93544 79.05733,11.48664 78.20923,11.48664 C76.88703,11.48664 75.77163,12.30504 74.86633,13.94624 C73.96103,15.58634 73.50893,16.54224 73.50893,16.81284 L73.50893,24.68444 L67.78563,24.68444 L67.78563,6.49704 L73.50893,6.49704 L73.50893,11.69894 L73.58593,11.69894 C75.24253,7.97324 77.17523,6.10984 79.38513,6.10984 Z M18.15451,15.86079 C16.24051,16.53069 14.92711,17.13129 14.21431,17.66699 C13.50151,18.20269 13.14511,18.88249 13.14511,19.70639 C13.14511,20.23549 13.32441,20.68979 13.68521,21.06929 C14.04381,21.45099 14.48161,21.64019 14.99531,21.64019 C16.07331,21.64019 17.12601,21.18259 18.15451,20.26739 L18.15451,15.86079 Z M96.32645,15.86079 C94.41135,16.53069 93.09685,17.13129 92.38625,17.66699 C91.67345,18.20269 91.31595,18.88249 91.31595,19.70639 C91.31595,20.23549 91.49525,20.68979 91.85605,21.06929 C92.21465,21.45099 92.65135,21.64019 93.16615,21.64019 C94.24415,21.64019 95.29685,21.18259 96.32645,20.26739 L96.32645,15.86079 Z" fill="#FEFEFE"></path>
        </g>
    </g>
</svg>