<?xml version="1.0" encoding="UTF-8"?>
<svg width="160px" height="160px" viewBox="0 0 160 160" version="1.1" xmlns="http://www.w3.org/2000/svg" xmlns:xlink="http://www.w3.org/1999/xlink">
    <!-- Generator: Sketch 63.1 (92452) - https://sketch.com -->
    <title>Assets/Logo/Client/American Savings Bank</title>
    <desc>Created with Sketch.</desc>
    <g id="Assets/Logo/Client/American-Savings-Bank" stroke="none" stroke-width="1" fill="none" fill-rule="evenodd">
        <path d="M112.017812,87.1568822 C112.321588,87.1568822 112.61643,87.2219983 112.904322,87.3532173 C113.192214,87.4854229 113.418557,87.6718919 113.582358,87.9096646 L113.60122,87.9096646 L113.60122,87.2693556 L114.45497,87.2693556 L114.45497,91.7002152 C114.45497,92.0405952 114.396399,92.3484171 114.280249,92.6286139 C114.163107,92.9088108 113.997321,93.1505299 113.780905,93.3547579 C113.566475,93.5579993 113.307371,93.7178299 113.004588,93.8312899 C112.700812,93.9437633 112.365268,94 111.99895,94 C111.568104,94 111.174982,93.9408035 110.816606,93.8214238 C110.460215,93.7020442 110.119707,93.4948564 109.798062,93.1998604 L110.375832,92.4835825 C110.598204,92.7213551 110.837453,92.9019045 111.097549,93.024244 C111.356652,93.1465835 111.651494,93.2077532 111.979095,93.2077532 C112.295777,93.2077532 112.557858,93.1633558 112.767325,93.0716012 C112.975799,92.9808332 113.140592,92.8624402 113.265677,92.7183953 C113.388775,92.5743505 113.475143,92.4086002 113.525773,92.2231178 C113.576402,92.0386219 113.60122,91.8511663 113.60122,91.6617374 L113.60122,91.0026828 L113.573424,91.0026828 C113.409623,91.2730136 113.185265,91.4723086 112.904322,91.6015543 C112.623379,91.7298134 112.327544,91.793943 112.017812,91.793943 C111.688225,91.793943 111.383456,91.7367197 111.102513,91.6202999 C110.820577,91.5048666 110.57835,91.3440494 110.375832,91.1388348 C110.174308,90.9346068 110.016463,90.6928877 109.901306,90.4126908 C109.788135,90.1334806 109.730556,89.8305917 109.730556,89.5030376 C109.730556,89.1774568 109.785157,88.8696348 109.892372,88.5845049 C110.00058,88.2983884 110.15346,88.0487764 110.353,87.8346823 C110.551546,87.6215749 110.79278,87.4538514 111.073723,87.3344717 C111.354667,87.2150921 111.669363,87.1568822 112.017812,87.1568822 Z M41.7165677,68 L41.7165677,93.0273025 L26.2862725,93.0282337 C27.0500305,92.8689679 27.9781382,92.4460326 29.099732,91.6656839 C33.4598131,88.6338354 43.2799228,81.5420921 39.6177326,68.895742 C39.6177326,68.895742 21.8319375,65.4672768 17.6019044,80.3522421 C17.3056688,81.3948985 17.11074,82.2755841 17,83.0169404 L17.0046046,82.9863546 L17.0046046,82.9863546 L17.004478,68 L41.7165677,68 Z M16.994,85.415 L17.0121715,85.4889867 C17.7250179,88.0717403 21.2236142,85.6379771 21.8845523,85.6256655 C22.7849607,85.6098797 22.8554447,87.8110037 23.0798022,90.0713242 C23.2085837,91.3693172 23.7367334,92.7017672 24.9877377,93.027887 L17.004478,93.0273025 L17.0047297,85.4614579 L16.994,85.415 Z M89.7446674,84.8929112 C90.1109857,84.8929112 90.462413,84.9442149 90.7979566,85.044849 C91.1325074,85.145483 91.4273489,85.349711 91.679503,85.6575329 L90.9399173,86.3264536 C90.8267458,86.1498507 90.6649304,86.0087656 90.4564566,85.9022119 C90.2479828,85.7956582 90.009727,85.7413947 89.7446674,85.7413947 C89.4915206,85.7413947 89.2810613,85.7749394 89.1132895,85.8410422 C88.9455177,85.9071449 88.8114989,85.9919933 88.7102401,86.0955872 C88.6089814,86.1991811 88.5384974,86.3096813 88.4968027,86.4300475 C88.4561006,86.5494272 88.4352532,86.6599274 88.4352532,86.7605615 C88.4352532,87.0427315 88.51765,87.2587988 88.6814509,87.4107366 C88.8462445,87.5607011 89.0507474,87.6850138 89.2939668,87.7787416 C89.5371863,87.8724694 89.8032386,87.9583044 90.091131,88.0332867 C90.3790234,88.1072823 90.644083,88.213836 90.8882952,88.3480148 C91.1315147,88.4841668 91.3350248,88.6657028 91.4998184,88.8955826 C91.6636193,89.1244759 91.7460161,89.4411773 91.7460161,89.8437136 C91.7460161,90.1633748 91.6844667,90.4524512 91.5613678,90.709956 C91.438269,90.9684475 91.2724827,91.186488 91.0630161,91.3601311 C90.8535496,91.5367341 90.6073519,91.6728861 90.3224377,91.7666139 C90.0385162,91.8613284 89.7347401,91.9067124 89.412102,91.9067124 C88.9822488,91.9067124 88.5752285,91.8327167 88.1890556,91.6817656 C87.8028826,91.5308144 87.497121,91.2989614 87.2687926,90.9842332 L88.0183056,90.3429376 C88.1821065,90.5876165 88.3925657,90.7681659 88.6486907,90.8845858 C88.9048157,91.0019922 89.1688825,91.0592155 89.4408912,91.0592155 C89.5927793,91.0592155 89.7476456,91.0365235 89.9064828,90.9881797 C90.0643272,90.9408225 90.2082735,90.8707732 90.3383214,90.7760588 C90.4663839,90.6833176 90.573599,90.5659112 90.6550031,90.4267993 C90.7373999,90.2896607 90.7781019,90.1298301 90.7781019,89.9473075 C90.7781019,89.688816 90.6966978,89.4934675 90.5319042,89.3563289 C90.3671107,89.2221501 90.1626078,89.1096767 89.9193883,89.0179221 C89.6761688,88.9281407 89.4111093,88.8383593 89.1232169,88.7544976 C88.8343317,88.6696493 88.5692721,88.5522428 88.3260527,88.4012917 C88.0818405,88.2503406 87.8793231,88.0470992 87.7145295,87.7925541 C87.5497359,87.5389957 87.4683318,87.1936827 87.4683318,86.7605615 C87.4683318,86.5652129 87.5100266,86.3580251 87.5954016,86.1380114 C87.6817693,85.917011 87.8157882,85.7187027 87.9984509,85.5361801 C88.1821065,85.3526709 88.4173841,85.1997465 88.7062692,85.0764204 C88.9931689,84.9550676 89.3396325,84.8929112 89.7446674,84.8929112 Z M117.264502,87.1570795 C117.568279,87.1570795 117.859149,87.2133162 118.137114,87.324803 C118.415079,87.4392496 118.636459,87.6276918 118.801252,87.8901297 L118.137114,88.3903403 C118.035856,88.265041 117.910771,88.1594739 117.761861,88.0765988 C117.612951,87.9897772 117.432274,87.9483397 117.216851,87.9483397 C117.014334,87.9483397 116.83862,87.9897772 116.68971,88.0765988 C116.541793,88.1594739 116.468331,88.2828 116.468331,88.4475636 C116.468331,88.5807558 116.511018,88.6863229 116.595401,88.7682115 C116.679783,88.8501 116.783027,88.9152162 116.899177,88.9655332 C117.016319,89.0158502 117.140411,89.054328 117.27443,89.0789932 C117.406463,89.104645 117.520627,89.1263504 117.61593,89.1460826 C117.798592,89.1894934 117.971328,89.2437569 118.133143,89.3059132 C118.292973,89.3690562 118.432949,89.4499581 118.550091,89.5515788 C118.666241,89.6502396 118.758565,89.7735657 118.825078,89.9176106 C118.890598,90.0626421 118.925344,90.2382584 118.925344,90.4464328 C118.925344,90.6980181 118.869751,90.9130987 118.763528,91.0916749 C118.655321,91.2712377 118.516338,91.4172558 118.346581,91.5297292 C118.174838,91.6431892 117.981255,91.7250777 117.761861,91.7763813 C117.544453,91.8266984 117.324066,91.8513636 117.102687,91.8513636 C116.72942,91.8513636 116.402811,91.7931537 116.120875,91.6816669 C115.839931,91.5682069 115.58877,91.3600325 115.367391,91.0601034 L116.012667,90.5302946 C116.150657,90.6694064 116.306516,90.7927325 116.478258,90.9002728 C116.647023,91.00584 116.856489,91.0601034 117.102687,91.0601034 C117.210895,91.0601034 117.319103,91.0472775 117.430289,91.0265587 C117.540482,91.0038667 117.639755,90.9703221 117.724138,90.9219782 C117.809513,90.874621 117.879997,90.8144379 117.933604,90.7434021 C117.986219,90.670393 118.014015,90.5875179 118.014015,90.4928034 C118.014015,90.3684908 117.974306,90.2639102 117.894888,90.1820217 C117.815469,90.0991466 117.721159,90.0369902 117.610966,89.989633 C117.49978,89.9422758 117.38363,89.9037981 117.258546,89.8751864 C117.13644,89.8475614 117.028232,89.8248694 116.931937,89.8061238 C116.748281,89.7607398 116.574553,89.7114094 116.410752,89.6541861 C116.245959,89.5979494 116.100027,89.5219805 115.97395,89.4282527 C115.848866,89.3335382 115.745622,89.2151452 115.670174,89.0691271 C115.595719,88.9250822 115.557003,88.7455195 115.557003,88.532412 C115.557003,88.300559 115.605646,88.0973176 115.703927,87.9256477 C115.802207,87.7529911 115.931263,87.606973 116.093078,87.4944997 C116.254893,87.3830129 116.438549,87.2981645 116.643052,87.2399546 C116.848547,87.1837179 117.055036,87.1570795 117.264502,87.1570795 Z M94.5814586,87.1569808 C94.9110458,87.1569808 95.1949673,87.1974318 95.4312376,87.2793203 C95.6675079,87.3602222 95.8620835,87.4707224 96.0139716,87.6088476 C96.1658596,87.7469728 96.2780384,87.9058168 96.3515006,88.0853796 C96.4239701,88.2639558 96.4597085,88.4504248 96.4597085,88.6467599 L96.4597085,90.9277992 C96.4597085,91.08467 96.4646721,91.2297015 96.4696358,91.3609204 C96.4755922,91.4941126 96.4855195,91.6184253 96.498425,91.7387916 L95.7389847,91.7387916 C95.7211155,91.5118716 95.7111882,91.2859382 95.7111882,91.0590182 L95.6923262,91.0590182 C95.5027143,91.3480945 95.2773641,91.5533091 95.0182609,91.6736754 C94.7591577,91.7910818 94.4583598,91.8512649 94.1158671,91.8512649 C93.908386,91.8512649 93.7088467,91.8236399 93.5202276,91.7674032 C93.3296229,91.7101799 93.1638366,91.6253316 93.0218759,91.5118716 C92.8799151,91.3984116 92.7677363,91.2592997 92.6843468,91.0925629 C92.60195,90.9268126 92.561248,90.7324507 92.561248,90.512437 C92.561248,90.2233606 92.6267683,89.9816415 92.7558236,89.786293 C92.8858715,89.5919311 93.0625779,89.4340737 93.2879282,89.309761 C93.511293,89.1884081 93.7743671,89.1005999 94.0741723,89.0463365 C94.3749702,88.9940462 94.6966156,88.9654345 95.0371228,88.9654345 L95.663537,88.9654345 L95.663537,88.7779789 C95.663537,88.6645189 95.6416969,88.5520455 95.5970239,88.4385855 C95.552351,88.3251255 95.4858379,88.2244914 95.3984774,88.1327368 C95.3091315,88.0409822 95.1989382,87.9699464 95.065912,87.9156829 C94.9328859,87.862406 94.7750414,87.834781 94.5913859,87.834781 C94.4275851,87.834781 94.2836388,87.8515533 94.16054,87.8821382 C94.0374412,87.9137097 93.9252624,87.953174 93.8240037,88.0005313 C93.722745,88.0478885 93.6304209,88.1031386 93.5490168,88.1652949 C93.4656273,88.2284379 93.3872014,88.2876344 93.310761,88.3448577 L92.7985111,87.8160354 C93.0387523,87.5970083 93.3177101,87.431258 93.6333991,87.3207579 C93.949088,87.2112443 94.2657697,87.1569808 94.5814586,87.1569808 Z M130.373634,87.1569808 C130.703221,87.1569808 130.98615,87.1974318 131.223413,87.2793203 C131.459683,87.3602222 131.654259,87.4707224 131.806147,87.6088476 C131.958035,87.7469728 132.070214,87.9058168 132.143676,88.0853796 C132.216146,88.2639558 132.251884,88.4504248 132.251884,88.6467599 L132.251884,90.9277992 C132.251884,91.08467 132.255855,91.2297015 132.261811,91.3609204 C132.267768,91.4941126 132.277695,91.6184253 132.290601,91.7387916 L131.53116,91.7387916 C131.513291,91.5118716 131.503364,91.2859382 131.503364,91.0590182 L131.484502,91.0590182 C131.293897,91.3480945 131.06954,91.5533091 130.810436,91.6736754 C130.551333,91.7910818 130.250535,91.8512649 129.908043,91.8512649 C129.700561,91.8512649 129.501022,91.8236399 129.312403,91.7674032 C129.121798,91.7101799 128.956012,91.6253316 128.814051,91.5118716 C128.672091,91.3984116 128.557926,91.2592997 128.476522,91.0925629 C128.394126,90.9268126 128.352431,90.7324507 128.352431,90.512437 C128.352431,90.2233606 128.418944,89.9816415 128.547999,89.786293 C128.677054,89.5919311 128.854753,89.4340737 129.079111,89.309761 C129.303468,89.1884081 129.566543,89.1005999 129.866348,89.0463365 C130.167146,88.9940462 130.486806,88.9654345 130.829298,88.9654345 L131.455712,88.9654345 L131.455712,88.7779789 C131.455712,88.6645189 131.433872,88.5520455 131.389199,88.4385855 C131.344526,88.3251255 131.278013,88.2244914 131.190653,88.1327368 C131.101307,88.0409822 130.991114,87.9699464 130.858088,87.9156829 C130.725061,87.862406 130.566224,87.834781 130.383561,87.834781 C130.218768,87.834781 130.074822,87.8515533 129.952716,87.8821382 C129.828624,87.9137097 129.715452,87.953174 129.616179,88.0005313 C129.513928,88.0478885 129.422596,88.1031386 129.341192,88.1652949 C129.25681,88.2284379 129.179377,88.2876344 129.102937,88.3448577 L128.590687,87.8160354 C128.830928,87.5970083 129.108893,87.431258 129.425575,87.3207579 C129.741263,87.2112443 130.057945,87.1569808 130.373634,87.1569808 Z M103.224287,87.2694542 L103.224287,91.7387916 L102.370537,91.7387916 L102.370537,87.2694542 L103.224287,87.2694542 Z M98.0064849,87.2693556 L99.3546156,90.6919011 L100.644175,87.2693556 L101.555504,87.2693556 L99.7904252,91.7386929 L98.8513003,91.7386929 L97.0207016,87.2693556 L98.0064849,87.2693556 Z M107.028438,87.1568822 C107.243861,87.1568822 107.450349,87.1884536 107.649888,87.2565296 C107.849428,87.3216458 108.023156,87.4232665 108.171073,87.5613917 C108.319983,87.7005035 108.439111,87.8771065 108.526471,88.095147 C108.614824,88.3102277 108.66049,88.5677326 108.66049,88.8627286 L108.66049,91.7386929 L107.805747,91.7386929 L107.805747,89.0985281 C107.805747,88.8913402 107.777951,88.7127641 107.721365,88.5647728 C107.663787,88.4187547 107.588339,88.299375 107.493037,88.2076204 C107.397734,88.1168524 107.288534,88.049763 107.165435,88.0083255 C107.042336,87.9688611 106.915266,87.9481423 106.781247,87.9481423 C106.604541,87.9481423 106.44074,87.976754 106.288852,88.0329907 C106.136964,88.0892274 106.003938,88.1790088 105.890766,88.3013482 C105.775609,88.4236877 105.688249,88.5795719 105.623721,88.7690008 C105.561179,88.9564564 105.529412,89.1804166 105.529412,89.4379214 L105.529412,91.7386929 L104.675662,91.7386929 L104.675662,87.2693556 L105.529412,87.2693556 L105.529412,87.9580084 L105.548274,87.9580084 C105.656481,87.7192491 105.842122,87.5248872 106.108175,87.3778825 C106.373234,87.2298912 106.680981,87.1568822 107.028438,87.1568822 Z M139.699164,84.6106425 L139.699164,89.2111988 L141.634993,87.2784324 L142.820315,87.2784324 L140.723664,89.3059132 L143,91.7388902 L141.786881,91.7388902 L139.699164,89.4193732 L139.699164,91.7388902 L138.845415,91.7388902 L138.845415,84.6106425 L139.699164,84.6106425 Z M135.92281,87.1568822 C136.138233,87.1568822 136.345714,87.1884536 136.543268,87.2565296 C136.744793,87.3216458 136.917528,87.4232665 137.065445,87.5613917 C137.215348,87.7005035 137.334476,87.8771065 137.420843,88.095147 C137.510189,88.3102277 137.554862,88.5677326 137.554862,88.8627286 L137.554862,91.7386929 L136.699127,91.7386929 L136.699127,89.0985281 C136.699127,88.8913402 136.673316,88.7127641 136.615737,88.5647728 C136.558159,88.4187547 136.482711,88.299375 136.387409,88.2076204 C136.293099,88.1168524 136.183899,88.049763 136.059807,88.0083255 C135.937701,87.9688611 135.807653,87.9481423 135.676612,87.9481423 C135.498913,87.9481423 135.33412,87.976754 135.182232,88.0329907 C135.030344,88.0892274 134.89831,88.1790088 134.785139,88.3013482 C134.670974,88.4236877 134.581629,88.5795719 134.519086,88.7690008 C134.455552,88.9564564 134.424777,89.1804166 134.424777,89.4379214 L134.424777,91.7386929 L133.571027,91.7386929 L133.571027,87.2693556 L134.424777,87.2693556 L134.424777,87.9580084 L134.442646,87.9580084 C134.551847,87.7192491 134.737488,87.5248872 135.002547,87.3778825 C135.268599,87.2298912 135.576346,87.1568822 135.92281,87.1568822 Z M125.146798,85.0633972 C125.438662,85.0633972 125.707692,85.0979285 125.957861,85.1669911 C126.209022,85.2360537 126.423452,85.338661 126.60413,85.4738264 C126.782821,85.6089918 126.925775,85.7806617 127.031005,85.9927826 C127.135241,86.2029302 127.186864,86.4495824 127.186864,86.7317525 C127.186864,87.1155433 127.079648,87.4282982 126.864225,87.6700173 C126.648803,87.9117365 126.37183,88.0903126 126.029337,88.2037726 L126.029337,88.2215316 C126.231855,88.2343575 126.42246,88.2856612 126.598173,88.3774158 C126.776865,88.4681838 126.928753,88.5875634 127.057808,88.7355547 C127.187856,88.883546 127.2911,89.0552159 127.367541,89.2495778 C127.442989,89.4439398 127.480712,89.655074 127.480712,89.8810074 C127.480712,90.1829097 127.419163,90.4483074 127.296064,90.6772006 C127.172965,90.9070804 127.003208,91.1004557 126.788778,91.2573265 C126.574348,91.4141973 126.323186,91.5345636 126.039265,91.6154655 C125.754351,91.6983406 125.447596,91.7387916 125.119002,91.7387916 L122.813877,91.7387916 L122.813877,85.0633972 L125.146798,85.0633972 Z M95.663537,89.5889712 L95.2078728,89.5889712 C95.0053554,89.5889712 94.798867,89.5998239 94.587415,89.6215293 C94.3749702,89.6432347 94.1823801,89.6866455 94.0086519,89.7488018 C93.8349238,89.8119448 93.6919703,89.899753 93.581777,90.013213 C93.4705909,90.126673 93.4149979,90.2717044 93.4149979,90.4463342 C93.4149979,90.7048257 93.5023584,90.8903081 93.6760866,91.0027815 C93.8498148,91.1152549 94.0850924,91.1724782 94.3829121,91.1724782 C94.617197,91.1724782 94.8157435,91.1330138 94.9805371,91.0550717 C95.1453306,90.9771297 95.2773641,90.8735357 95.3796155,90.7482364 C95.4798815,90.6219505 95.552351,90.4828387 95.5970239,90.3279411 C95.6416969,90.1750168 95.663537,90.0220924 95.663537,89.8711413 L95.663537,89.5889712 Z M131.455712,89.5889712 L131.000048,89.5889712 C130.797531,89.5889712 130.591043,89.5998239 130.378598,89.6215293 C130.167146,89.6432347 129.974556,89.6866455 129.799835,89.7488018 C129.627099,89.8119448 129.484146,89.899753 129.373952,90.013213 C129.262766,90.126673 129.207173,90.2717044 129.207173,90.4463342 C129.207173,90.7048257 129.294534,90.8903081 129.468262,91.0027815 C129.64199,91.1152549 129.877268,91.1724782 130.175088,91.1724782 C130.40838,91.1724782 130.607919,91.1330138 130.772713,91.0550717 C130.936513,90.9771297 131.06954,90.8735357 131.171791,90.7482364 C131.272057,90.6219505 131.344526,90.4828387 131.389199,90.3279411 C131.433872,90.1750168 131.455712,90.0220924 131.455712,89.8711413 L131.455712,89.5889712 Z M112.122049,87.9481423 C111.894713,87.9481423 111.688225,87.9876067 111.505562,88.0665354 C111.321906,88.1454641 111.16704,88.2510312 111.03997,88.3861966 C110.913893,88.521362 110.815613,88.685139 110.747114,88.8765411 C110.67663,89.0679432 110.641885,89.2780908 110.641885,89.5030376 C110.641885,89.955891 110.774911,90.318963 111.03997,90.5922536 C111.306023,90.8655442 111.666385,91.0026828 112.122049,91.0026828 C112.57672,91.0026828 112.938075,90.8655442 113.204127,90.5922536 C113.469187,90.318963 113.60122,89.955891 113.60122,89.5030376 C113.60122,89.2780908 113.566475,89.0679432 113.496983,88.8765411 C113.428485,88.685139 113.330204,88.521362 113.204127,88.3861966 C113.077057,88.2510312 112.921198,88.1454641 112.738536,88.0665354 C112.55488,87.9876067 112.349385,87.9481423 112.122049,87.9481423 Z M125.071351,88.6270278 L123.724213,88.6270278 L123.724213,90.9465448 L125.062416,90.9465448 C125.200406,90.9465448 125.355272,90.9327323 125.522051,90.9041206 C125.689823,90.875509 125.845682,90.8192723 125.991614,90.7344239 C126.137545,90.6495756 126.260644,90.535129 126.361903,90.3910841 C126.463162,90.2460526 126.513791,90.0546505 126.513791,89.8158912 C126.513791,89.4192745 126.383743,89.1223053 126.123647,88.9249836 C125.865537,88.7266752 125.513117,88.6270278 125.071351,88.6270278 Z M35.7469694,73.3581731 L28.5675281,80.8455464 L32.8571252,85.0632985 L27.9460776,81.7009361 L25.2855545,88.27175 L26.8947739,81.2036854 L20.571068,82.9134782 L26.8649919,80.1894516 L25.5387013,75.2258233 L28.1585223,79.7010803 L35.7469694,73.3581731 Z M125.156726,85.8546574 L123.724213,85.8546574 L123.724213,87.8357676 L124.967114,87.8357676 C125.137864,87.8357676 125.298686,87.8180086 125.451567,87.7844639 C125.602463,87.748946 125.735489,87.6907361 125.84866,87.6088476 C125.963817,87.5279457 126.053163,87.4233652 126.119676,87.2970793 C126.187182,87.17178 126.219942,87.0188556 126.219942,86.836333 C126.219942,86.5719219 126.133574,86.3430287 125.963817,86.1476801 C125.793067,85.9533182 125.523044,85.8546574 125.156726,85.8546574 Z M102.797412,85.0446516 C102.969155,85.0446516 103.115086,85.1058214 103.238185,85.2281608 C103.361284,85.3514869 103.422833,85.497505 103.422833,85.6662151 C103.422833,85.8368984 103.361284,85.9829165 103.238185,86.1042694 C103.115086,86.2275954 102.969155,86.2877786 102.797412,86.2877786 C102.626662,86.2877786 102.478745,86.2275954 102.355646,86.1042694 C102.232547,85.9829165 102.170998,85.8368984 102.170998,85.6662151 C102.170998,85.497505 102.232547,85.3514869 102.355646,85.2281608 C102.478745,85.1058214 102.626662,85.0446516 102.797412,85.0446516 Z M110.325104,68.8623947 C111.721878,68.8623947 113.274512,69.22448 114.982012,69.945691 L114.982012,71.9711986 C113.4264,71.0931169 111.905534,70.6530894 110.419413,70.6530894 C108.895569,70.6530894 107.630828,71.1286348 106.623204,72.0797256 C105.617566,73.0308163 105.115244,74.2246129 105.115244,75.6551954 C105.115244,77.1005772 105.610617,78.2874674 106.600371,79.2178394 C107.592111,80.1472248 108.858838,80.6119175 110.400551,80.6119175 C112.012749,80.6119175 113.588215,80.121573 115.124965,79.1418705 L115.124965,81.215722 C113.727198,81.9685044 112.115993,82.3453889 110.286387,82.3453889 C108.801259,82.3453889 107.540489,82.0503929 106.506062,81.4604009 C105.470642,80.8694223 104.651638,80.0564568 104.049049,79.0195311 C103.444475,77.9826053 103.143677,76.8618179 103.143677,75.6551954 C103.143677,73.740188 103.833626,72.129056 105.21551,70.8217995 C106.596401,69.5165162 108.29993,68.8623947 110.325104,68.8623947 Z M100.833787,69.0319927 L100.833787,82.1953258 L98.9287334,82.1953258 L98.9287334,69.0319927 L100.833787,69.0319927 Z M132.098507,69.0311047 L141.06983,79.2533573 L141.06983,69.0311047 L142.878589,69.0311047 L142.878589,82.1944378 L141.241573,82.1944378 L132.344704,72.056047 L132.344704,82.1944378 L130.554808,82.1944378 L130.554808,69.0311047 L132.098507,69.0311047 Z M123.162128,68.9561225 L129.127457,82.1944378 L127.17773,82.1944378 L125.40471,78.2933871 L119.728266,78.2933871 L118.064446,82.1944378 L116.106778,82.1944378 L121.822931,68.9561225 L123.162128,68.9561225 Z M90.5846183,69.0311047 C91.9307636,69.0311047 92.9999365,69.3616186 93.7901515,70.0206732 C94.5803666,70.6807145 94.9764668,71.5716221 94.9764668,72.6973426 C94.9764668,73.4639376 94.7818913,74.125952 94.3957183,74.6853591 C94.0075599,75.2437796 93.4516298,75.6611151 92.7279278,75.9383521 C93.1528173,76.2146026 93.5707577,76.5914871 93.9767852,77.0690057 C94.3828128,77.5465243 94.953634,78.3782354 95.6902415,79.5651257 C96.1538476,80.3119884 96.5251295,80.875342 96.8040873,81.2522265 L97.5099201,82.1944378 L95.2425192,82.1944378 L94.6617707,81.3272088 C94.6429087,81.2956373 94.6061776,81.2423604 94.5476064,81.1663916 L94.1773172,80.648422 L93.5876341,79.6874651 L92.9493071,78.6604055 C92.5571778,78.1187573 92.1968159,77.6885959 91.8692142,77.3689347 C91.5416125,77.0492735 91.2467709,76.8184071 90.9836968,76.677322 C90.71963,76.536237 90.2758785,76.4652012 89.6524425,76.4652012 L89.1560763,76.4652012 L89.1560763,82.1944378 L87.2520154,82.1944378 L87.2520154,69.0311047 L90.5846183,69.0311047 Z M63.8920273,69.0311047 L68.3136578,74.4377203 L72.7084845,69.0311047 L74.4884539,69.0311047 L74.4884539,82.1944378 L72.5754584,82.1944378 L72.5754584,71.9524531 L68.4844078,77.040394 L68.1319878,77.040394 L63.993286,71.9524531 L63.993286,82.1944378 L62.0882324,82.1944378 L62.0882324,69.0311047 L63.8920273,69.0311047 Z M54.7391331,68.9561225 L60.7044626,82.1944378 L58.754736,82.1944378 L56.9817158,78.2933871 L51.3052714,78.2933871 L49.6424445,82.1944378 L47.6847761,82.1944378 L53.3989443,68.9561225 L54.7391331,68.9561225 Z M84.9599946,69.0311047 L84.9599946,70.7083395 L79.3202814,70.7083395 L79.3202814,74.7218636 L84.7683973,74.7218636 L84.7683973,76.4079779 L79.3202814,76.4079779 L79.3202814,80.4984575 L85.1406719,80.4984575 L85.1406719,82.1766788 L77.4162205,82.1766788 L77.4162205,69.0311047 L84.9599946,69.0311047 Z M54.0501768,71.8478725 L52.0607409,76.6161523 L56.1984499,76.6161523 L54.0501768,71.8478725 Z M122.474164,71.8478725 L120.483735,76.6161523 L124.621444,76.6161523 L122.474164,71.8478725 Z M89.7278902,70.6333572 L89.1560763,70.6333572 L89.1560763,74.7879664 L89.880771,74.7879664 C90.845707,74.7879664 91.5068668,74.7070645 91.8672287,74.5442741 C92.2256051,74.3795104 92.5055557,74.1338449 92.7041022,73.8033309 C92.9046342,73.4747903 93.0049001,73.0988923 93.0049001,72.678597 C93.0049001,72.2642214 92.8927214,71.8873369 92.6703493,71.5518899 C92.4489699,71.216443 92.1352665,70.9786703 91.7332098,70.8415317 C91.3301604,70.7024198 90.6610587,70.6333572 89.7278902,70.6333572 Z" id="American-Savings-Bank" fill="#405D6F"></path>
    </g>
</svg>