<?xml version="1.0" encoding="UTF-8"?>
<svg width="160px" height="160px" viewBox="0 0 160 160" version="1.1" xmlns="http://www.w3.org/2000/svg" xmlns:xlink="http://www.w3.org/1999/xlink">
    <!-- Generator: Sketch 63.1 (92452) - https://sketch.com -->
    <title>Assets/Logo/Client/Art Space</title>
    <desc>Created with Sketch.</desc>
    <g id="Assets/Logo/Client/Art-Space" stroke="none" stroke-width="1" fill="none" fill-rule="evenodd">
        <path d="M82.4016359,71.9107469 C83.5516126,71.9107469 84.5383526,72.1251006 85.368444,72.558929 C86.1948754,72.9920258 86.8822262,73.5641232 87.4297644,74.2803424 C87.9743747,74.9950984 88.3799043,75.8269076 88.6419614,76.7772332 C88.9069465,77.7268271 89.039439,78.7188529 89.039439,79.7525788 C89.039439,80.7314361 88.9069465,81.6722511 88.6419614,82.5750238 C88.3799043,83.4770649 87.9794987,84.2788792 87.4422085,84.9724193 C86.9078463,85.6710805 86.2387956,86.2241569 85.4379843,86.6389641 C84.637173,87.0515766 83.7016732,87.259346 82.6285568,87.259346 C81.7259971,87.259346 80.8922457,87.0757188 80.1309626,86.709196 C79.3682155,86.3419416 78.7423529,85.7998391 78.2526429,85.0865462 L78.1970107,85.0865462 L78.1970107,92 L74.1878303,92 L74.1878303,72.3043383 L77.9986379,72.3043383 L77.9986379,74.1669471 L78.0550021,74.1669471 C78.5439801,73.3775697 79.1654506,72.8040091 79.9172177,72.4455337 C80.6704488,72.0885215 81.4998082,71.9107469 82.4016359,71.9107469 Z M126.835242,71.8249323 C131.842143,71.8249323 134.262877,76.0351891 133.977396,80.5578316 L133.977396,80.5578316 L123.36262,80.5578316 C123.476081,83.1176385 124.727806,84.2837808 126.976519,84.2837808 C128.598638,84.2837808 129.907459,83.2880972 130.164392,82.3787402 L130.164392,82.3787402 L133.721195,82.3787402 C132.583662,85.8486356 130.164392,87.3271637 126.835242,87.3271637 C122.194343,87.3271637 119.319768,84.1411222 119.319768,79.5892165 C119.319768,79.2578096 119.343192,78.9337186 119.376864,78.6140171 L119.376864,78.6140171 L126.135448,71.8578535 C126.366028,71.839564 126.596609,71.8249323 126.835242,71.8249323 Z M111.614485,71.8246397 C115.086375,71.8246397 118.273516,73.6448167 118.528985,77.4000293 L114.573241,77.4000293 C114.317772,75.7495793 113.264419,74.8680225 111.584472,74.8680225 C108.994646,74.8680225 108.141862,77.486356 108.141862,79.648182 C108.141862,81.7514815 108.96683,84.2834882 111.500292,84.2834882 C113.37788,84.2834882 114.460512,83.0902773 114.715981,81.2971688 L118.615361,81.2971688 C118.102959,85.1943083 115.39894,87.326871 111.527376,87.326871 C107.087778,87.326871 104.09901,84.1993562 104.09901,79.7893774 C104.09901,75.2089399 106.830845,71.8246397 111.614485,71.8246397 Z M96.9185728,71.9063575 C99.8260887,71.9063575 103.329455,72.5552711 103.329455,76.0544297 L103.329455,76.0544297 L103.329455,80.5170824 L96.8548886,86.9871973 C96.1141015,87.1935035 95.3367144,87.2893408 94.5739672,87.2893408 C91.8055319,87.2893408 89.6036669,85.9051869 89.6036669,82.9137464 C89.6036669,79.6113834 92.0873531,78.8212744 94.5739672,78.4825518 C97.0305693,78.116029 99.3173466,78.2001609 99.3173466,76.5643427 C99.3173466,74.8407345 98.1307698,74.5868754 96.718736,74.5868754 C95.1954378,74.5868754 94.2065017,75.2087205 94.0644932,76.7889385 L94.0644932,76.7889385 L90.0538488,76.7889385 C90.2807697,73.0351891 93.6421274,71.9063575 96.9185728,71.9063575 Z M56.3185392,68 L56.3185392,72.0127295 L59.2816873,72.0127295 L59.2831513,75.6625942 L56.3185392,75.6625942 L56.3185392,82.4099788 C56.3185392,83.0925452 56.4327317,83.5497842 56.6611166,83.7773063 C56.8880375,84.0048284 57.3433434,84.1182237 58.0277662,84.1182237 C58.2554191,84.1182237 58.47502,84.1079816 58.6829089,84.0889604 C58.8922617,84.0728656 59.0920985,84.0428707 59.2816873,84.0048284 L59.2816873,84.0048284 L59.2816873,87.1381959 C58.9398419,87.1937962 58.5606644,87.2303753 58.1419587,87.2493964 C57.7239849,87.2698808 57.3155273,87.2786597 56.9158536,87.2786597 C56.2892591,87.2786597 55.6970687,87.2369595 55.1356224,87.1513644 C54.5756401,87.0657693 54.08227,86.9004316 53.6540483,86.6524252 C53.2280226,86.4058819 52.8898372,86.0539908 52.6431522,85.5996781 C52.3964672,85.1431707 52.2742227,84.5461994 52.2742227,83.805838 L52.2742227,83.805838 L52.2742227,75.6625942 L50.2516984,75.6625942 L50.2516984,75.6560099 L48.5432034,75.6647889 C47.8097364,75.6647889 47.1868018,75.7876948 46.6795238,76.0327749 C46.1722457,76.277855 45.762324,76.6114566 45.4526868,77.0343112 C45.1408535,77.4571658 44.9197886,77.9517156 44.789492,78.5164972 C44.6562675,79.0783525 44.5918512,79.6914185 44.5918512,80.3498427 L44.5918512,80.3498427 L44.5918512,86.7914259 L40.5812068,86.7914259 L40.5812068,72.336089 L44.3927464,72.336089 L44.3927464,75.0451386 L44.4491107,75.0451386 C44.6379674,74.5930207 44.8912405,74.1745556 45.2125898,73.7890116 C45.5310111,73.4041993 45.8999406,73.0742556 46.3142543,72.8013754 C46.7227119,72.5314215 47.3595546,72.0390665 50.2495024,72.0200454 L50.2495024,72.0200454 L50.2495024,72.0127295 L52.2742227,72.0127295 L52.2742227,68 L56.3185392,68 Z M66.4533402,71.8167386 C69.6521933,71.8167386 72.6570656,72.8928963 72.9674349,76.4864291 L69.1463793,76.4864291 C69.0336508,74.9303534 67.8448779,74.5067671 66.400636,74.5067671 C65.4936843,74.5067671 64.1636349,74.6757627 64.1636349,75.8645841 C64.1636349,77.3079962 66.4269881,77.506255 68.7210855,78.0425049 C71.0715471,78.5809496 73.3634485,79.4288536 73.3634485,82.1452191 C73.3634485,85.9933426 70.0233188,87.2384959 66.6831892,87.2384959 C63.2852313,87.2384959 59.9729177,85.9662741 59.8045571,82.0896188 L63.6241487,82.0896188 C63.6526968,83.8446851 65.1254868,84.5499305 66.7110053,84.5499305 C67.871962,84.5499305 69.3425561,84.0978126 69.3425561,82.6829322 C69.3425561,81.4663106 67.6735892,81.0412612 64.7865694,80.4186846 C62.9170338,80.00973 61.0504261,79.3988587 60.3923555,77.8332724 L66.4533402,71.8167386 Z M33.3017299,71.8274197 C36.2070497,71.8274197 39.703828,72.4763333 39.703828,75.9718341 L39.703828,75.9718341 L39.703828,80.484966 L33.3229579,86.8621699 C32.5580148,87.0845709 31.7528115,87.1862609 30.9615163,87.1862609 C28.198205,87.1862609 26,85.8064965 26,82.8172507 C26,79.5214719 28.4807581,78.7320945 30.9615163,78.3941034 C33.4144583,78.0268491 35.6990397,78.1124442 35.6990397,76.4766259 C35.6990397,74.7588704 34.5161228,74.5050113 33.1048211,74.5050113 C31.5815228,74.5050113 30.5962468,75.1246616 30.4535062,76.7019533 L30.4535062,76.7019533 L26.4494498,76.7019533 C26.6756388,72.9562514 30.0304085,71.8274197 33.3017299,71.8274197 Z M99.3173466,79.7525788 C98.6395119,80.3451606 97.2267461,80.3729607 95.985269,80.5990197 C94.7423279,80.8543419 93.6121153,81.276465 93.6121153,82.7447509 C93.6121153,84.2393738 94.7708761,84.6073597 96.0701814,84.6073597 C99.2068142,84.6073597 99.3173466,82.1236374 99.3173466,81.2486649 Z M35.6990397,79.6626673 C35.0219369,80.2545175 33.6128311,80.2830492 32.3713541,80.5083766 C31.131341,80.7607726 30.0025924,81.1836272 30.0025924,82.6497183 C30.0025924,84.142878 31.1591571,84.5094008 32.4562664,84.5094008 C35.5848472,84.5094008 35.6990397,82.030068 35.6990397,81.1550955 L35.6990397,81.1550955 Z M81.5283563,74.9285244 C80.8695536,74.9285244 80.3183553,75.0645987 79.8754935,75.3382105 C79.4340957,75.6110908 79.0754143,75.9637135 78.8023771,76.3946156 C78.530072,76.8284439 78.3375552,77.3273831 78.2248268,77.8914332 C78.1113663,78.4562148 78.0550021,79.0385544 78.0550021,79.6413783 C78.0550021,80.2244495 78.1164903,80.7980101 78.2387348,81.3613286 C78.3595153,81.9253786 78.5586201,82.4206599 78.8309253,82.8435145 C79.1039624,83.2685639 79.4677679,83.6102129 79.9172177,83.8735826 C80.3710596,84.1362206 80.9171338,84.2693686 81.5554404,84.2693686 C82.2157071,84.2693686 82.7654414,84.1362206 83.2075712,83.8735826 C83.648969,83.6102129 84.0069184,83.2685639 84.2806876,82.8435145 C84.5522607,82.4206599 84.7469735,81.9253786 84.8597019,81.3613286 C84.9716984,80.7980101 85.0287946,80.2244495 85.0287946,79.6413783 C85.0287946,79.0575755 84.9673064,78.4832833 84.8450619,77.9206965 C84.7242814,77.3559148 84.5215165,76.8525861 84.2374994,76.4114419 C83.9564102,75.968103 83.5926047,75.6110908 83.1512069,75.3382105 C82.7076131,75.0645987 82.1666629,74.9285244 81.5283563,74.9285244 Z M126.720318,74.8683152 C124.157575,74.8683152 123.418252,76.8589509 123.36262,77.9980247 L123.36262,77.9980247 L129.936739,77.9980247 C129.565614,75.949594 128.68355,74.8683152 126.720318,74.8683152 Z" id="Art-Space" fill="#405D6F"></path>
    </g>
</svg>