<?xml version="1.0" encoding="UTF-8"?>
<svg width="160px" height="160px" viewBox="0 0 160 160" version="1.1" xmlns="http://www.w3.org/2000/svg" xmlns:xlink="http://www.w3.org/1999/xlink">
    <!-- Generator: Sketch 63.1 (92452) - https://sketch.com -->
    <title>Assets/Logo/Client/CommonBond Communities</title>
    <desc>Created with Sketch.</desc>
    <g id="Assets/Logo/Client/CommonBond-Communities" stroke="none" stroke-width="1" fill="none" fill-rule="evenodd">
        <g id="CommonBond-Communities" transform="translate(30.000000, 30.000000)">
            <g id="House" transform="translate(11.761707, 0.000000)">
                <polygon id="Fill-2" fill="#667D8C" points="15.5357724 69.220813 37.2593496 69.220813 37.2593496 47.4972358 15.5357724 47.4972358"></polygon>
                <polygon id="Fill-3" fill="#758A97" points="-3.17722362e-14 47.4980488 15.5357724 47.4980488 15.5357724 31.9622764 -3.17722362e-14 31.9622764"></polygon>
                <polygon id="Fill-4" fill="#8598A3" points="15.5349593 31.9622764 24.3317073 31.9622764 24.3317073 23.1655285 15.5349593 23.1655285"></polygon>
                <polygon id="Fill-5" fill="#94A4AE" points="24.3325203 38.7013008 31.0715447 38.7013008 31.0715447 31.9622764 24.3325203 31.9622764"></polygon>
                <path d="M66.1544715,18.6029268 L66.1544715,47.4980488 L37.2593496,47.4980488 L37.2593496,18.6029268 L66.1544715,18.6029268 Z M51.5828455,1.0658141e-14 L72.4405691,20.8577236 L71.1056098,22.1918699 L51.5828455,2.6699187 L31.9852846,22.2674797 L30.6511382,20.9325203 L51.5828455,1.0658141e-14 Z" id="Combined-Shape" fill="#405D6F"></path>
            </g>
            <path d="M12.0530081,93.2655285 C13.7660163,93.2655285 14.844878,94.3614634 14.844878,96.4598374 C14.844878,98.1037398 14.1855285,99.7565854 11.9847154,99.7565854 C9.87821138,99.7565854 9.19365854,98.2582114 9.19365854,96.5622764 C9.19365854,95.8606504 9.31317073,94.824065 9.9895935,94.0964228 C10.6318699,93.4029268 11.4798374,93.2655285 12.0530081,93.2655285 Z M97.2341463,93.3082927 C97.6455285,93.3082927 98.4764228,93.3765854 98.9731707,93.9164228 C99.3154472,94.2928455 99.3325203,94.7131707 99.3495935,94.9700813 L98.4593496,94.9700813 C98.4162602,94.1993496 97.7650407,94.0278049 97.1577236,94.0278049 C96.300813,94.0278049 95.7869919,94.4131707 95.7869919,95.0294309 C95.7869919,95.5773984 96.1471545,95.7660163 96.900813,95.9456911 C98.3731707,96.3229268 98.5357724,96.3570732 98.895935,96.5969106 C99.4691057,96.9733333 99.5121951,97.5733333 99.5121951,97.8302439 C99.5121951,98.9261789 98.6560976,99.7562602 97.0715447,99.7562602 C96.600813,99.7562602 95.6414634,99.6798374 95.1536585,99.0546341 C94.802439,98.6001626 94.7943089,98.1042276 94.7943089,97.8042276 L95.6845528,97.8042276 C95.701626,98.2326829 95.7528455,99.0286179 97.1747967,99.0286179 C98.4593496,99.0286179 98.6219512,98.2326829 98.6219512,97.9237398 C98.6219512,97.2302439 98.0650407,97.0936585 97.2,96.8790244 C96.2585366,96.6481301 95.8390244,96.5456911 95.5219512,96.3310569 C95.0162602,95.9887805 94.8796748,95.5261789 94.8796748,95.1156098 C94.8796748,93.8562602 96.0699187,93.3082927 97.2341463,93.3082927 Z M43.8537398,93.4282927 L43.8537398,97.255935 C43.8537398,97.9152846 43.9992683,98.1892683 44.1277236,98.3689431 C44.5130894,98.8827642 45.1122764,98.9770732 45.5407317,98.9770732 C47.1464228,98.9770732 47.2081801,97.76613 47.2105554,97.2769074 L47.2106504,93.4282927 L48.0407317,93.4282927 L48.0407317,97.2388618 C48.0407317,97.5730081 48.0326016,98.2665041 47.5358537,98.8827642 C46.9277236,99.6453659 45.9862602,99.7396748 45.5407317,99.7396748 C44.9586179,99.7396748 43.9309756,99.5770732 43.3569919,98.755122 C43.168374,98.4803252 42.9976423,98.1209756 42.9976423,97.1957724 L42.9976423,93.4282927 L43.8537398,93.4282927 Z M2.86715447,93.3430894 C3.7403252,93.3430894 4.97365854,93.6943089 5.08504065,95.098374 L4.16878049,95.098374 C4.13463415,94.8845528 4.02325203,94.0276423 2.83300813,94.0276423 C1.34276423,94.0276423 1.07772358,95.5520325 1.07772358,96.5796748 C1.07772358,97.7447154 1.41105691,99.003252 2.82406504,99.003252 C3.20130081,99.003252 3.56065041,98.9089431 3.82650407,98.6349593 C4.04926829,98.395122 4.1004878,98.1292683 4.12569106,97.9845528 L5.06796748,97.9845528 C4.9395122,99.2 3.81756098,99.7056911 2.75577236,99.7056911 C0.58097561,99.7056911 0.161463415,97.7869919 0.161463415,96.5886179 C0.161463415,95.2869919 0.666341463,93.3430894 2.86715447,93.3430894 Z M20.9229268,93.4282927 L22.6700813,98.5234146 L24.4595122,93.4282927 L25.8725203,93.4282927 L25.8725203,99.6112195 L25.0334959,99.6112195 L25.0334959,94.0445528 L23.0042276,99.6112195 L22.1904065,99.6112195 L20.238374,94.0786992 L20.238374,99.6112195 L19.4074797,99.6112195 L19.4074797,93.4282927 L20.9229268,93.4282927 Z M90.3257724,93.4282927 L90.3257724,94.155935 L87.3030081,94.155935 L87.3030081,96.0827642 L90.1802439,96.0827642 L90.1802439,96.8022764 L87.3030081,96.8022764 L87.3030081,98.857561 L90.394878,98.857561 L90.394878,99.6112195 L86.4469106,99.6112195 L86.4469106,93.4282927 L90.3257724,93.4282927 Z M80.9145528,93.4281301 L80.9145528,99.6110569 L80.0584553,99.6110569 L80.0584553,93.4281301 L80.9145528,93.4281301 Z M75.1352033,93.4282927 L75.1352033,94.156748 L73.0628455,94.156748 L73.0628455,99.6112195 L72.214878,99.6112195 L72.214878,94.156748 L70.1425203,94.156748 L70.1425203,93.4282927 L75.1352033,93.4282927 Z M65.0812195,93.4281301 L65.0812195,99.6110569 L64.225122,99.6110569 L64.225122,93.4281301 L65.0812195,93.4281301 Z M54.7027642,93.4282927 L57.7426016,98.5404878 L57.7426016,93.4282927 L58.5304065,93.4282927 L58.5304065,99.6112195 L57.4344715,99.6112195 L54.2913821,94.361626 L54.2913821,99.6112195 L53.5125203,99.6112195 L53.5125203,93.4282927 L54.7027642,93.4282927 Z M32.8425203,93.4282927 L34.5896748,98.5234146 L36.3791057,93.4282927 L37.7921138,93.4282927 L37.7921138,99.6112195 L36.9530894,99.6112195 L36.9530894,94.0445528 L34.9238211,99.6112195 L34.11,99.6112195 L32.1579675,94.0786992 L32.1579675,99.6112195 L31.3270732,99.6112195 L31.3270732,93.4282927 L32.8425203,93.4282927 Z M12.0619512,93.9850407 C10.4944715,93.9850407 10.0920325,95.2435772 10.0920325,96.5110569 C10.0920325,97.1874797 10.2123577,97.9330081 10.640813,98.4639024 C10.9912195,98.9004878 11.5221138,99.0289431 12.0107317,99.0289431 C12.5156098,99.0289431 13.0213008,98.8915447 13.3806504,98.4639024 C13.8855285,97.8468293 13.937561,96.8712195 13.937561,96.4508943 C13.937561,95.0468293 13.4749593,93.9850407 12.0619512,93.9850407 Z M78.0413008,81.8017073 C80.7705691,81.8017073 81.9486179,83.6513008 81.9486179,85.7537398 C81.9486179,87.871626 80.7258537,89.7805691 77.9965854,89.7805691 C75.8486179,89.7805691 74.1486179,88.4529268 74.1486179,85.8130894 C74.1486179,83.9943902 75.0738211,81.8017073 78.0413008,81.8017073 Z M13.9582114,81.8017073 C16.6874797,81.8017073 17.8655285,83.6513008 17.8655285,85.7537398 C17.8655285,87.871626 16.6427642,89.7805691 13.9134959,89.7805691 C11.7655285,89.7805691 10.0655285,88.4529268 10.0655285,85.8130894 C10.0655285,83.9943902 10.9907317,81.8017073 13.9582114,81.8017073 Z M50.1426016,81.8017073 C52.8718699,81.8017073 54.0499187,83.6513008 54.0499187,85.7537398 C54.0499187,87.871626 52.8271545,89.7805691 50.0978862,89.7805691 C47.9499187,89.7805691 46.2499187,88.4529268 46.2499187,85.8130894 C46.2499187,83.9943902 47.175122,81.8017073 50.1426016,81.8017073 Z M4.93658537,78.6702439 C7.29268293,78.6702439 8.94796748,80.1019512 8.94796748,82.2491057 L6.59186992,82.2491057 C6.54715447,81.875935 6.41300813,80.3547967 4.84715447,80.3547967 C3.13170732,80.3547967 2.41626016,82.1450407 2.41626016,84.3669919 L2.41676149,84.5088894 C2.42453209,85.3670441 2.55274698,88.0653659 4.66829268,88.0653659 C5.63739837,88.0653659 6.56178862,87.4539837 6.60650407,86.0222764 L9.03739837,86.0222764 C8.99268293,86.6637398 8.93333333,87.6629268 8.06829268,88.5572358 C7.11382114,89.5417886 5.90569106,89.7653659 4.92195122,89.7653659 C1.20813008,89.7653659 5.68867446e-14,87.0214634 5.68867446e-14,84.3515447 C5.68867446e-14,80.9369106 1.90894309,78.6702439 4.93658537,78.6702439 Z M99.3769106,78.7445528 L99.3769106,88.2892683 C99.3769106,88.7364228 99.4069919,89.2282927 99.4362602,89.5120325 L97.1996748,89.5120325 L97.1403252,88.4234146 C96.9907317,88.6917073 96.8419512,88.9746341 96.3793496,89.2730081 C95.8273171,89.6307317 95.2460163,89.660813 94.918374,89.660813 C92.9045528,89.660813 91.7118699,88.2738211 91.7118699,85.9177236 C91.7118699,83.4274797 93.0687805,81.8762602 95.0370732,81.8762602 C96.3939837,81.8762602 96.9614634,82.6364228 97.1549593,82.9055285 L97.1549593,78.7445528 L99.3769106,78.7445528 Z M37.2905691,81.8170732 C39.0198374,81.8170732 39.5125203,82.8756098 39.6613008,83.2333333 C40.2881301,82.0252033 41.3019512,81.8317073 42.077561,81.8317073 C43.5986992,81.8317073 44.2100813,82.7414634 44.3743089,83.0398374 C44.776748,83.695935 44.7466667,84.6056911 44.7466667,85.2617886 L44.7466667,89.5121951 L42.5247154,89.5121951 L42.5247154,85.0829268 C42.5247154,84.2772358 42.4052033,83.3829268 41.2572358,83.3829268 C39.9826992,83.3829268 39.9047441,84.5233132 39.9005469,85.6042975 L39.9003252,89.5121951 L37.677561,89.5121951 L37.677561,85.0382114 C37.677561,84.4560976 37.6629268,83.3829268 36.4401626,83.3829268 C35.1687534,83.3829268 35.0628026,84.3851118 35.0539734,84.9429059 L35.0531707,89.5121951 L32.8312195,89.5121951 L32.8312195,83.397561 C32.8312195,82.9203252 32.8011382,82.4577236 32.7564228,81.9804878 L34.8889431,81.9804878 L34.9637398,82.9504065 C35.2027642,82.6219512 35.784065,81.8170732 37.2905691,81.8170732 Z M60.0425203,81.7717073 C61.5189431,81.7717073 62.1457724,82.6668293 62.3392683,83.1887805 C62.5034959,83.6513821 62.5482114,84.038374 62.5482114,85.440813 L62.5482114,89.5115447 L60.2961789,89.5115447 L60.2961789,84.8294309 C60.2961789,84.5156098 60.2961789,84.2473171 60.1766667,84.0091057 C60.013252,83.6806504 59.6701626,83.3676423 59.1034959,83.3676423 C58.6262602,83.3676423 58.1937398,83.5912195 57.9547154,83.9489431 C57.8205691,84.143252 57.6864228,84.5156098 57.6864228,85.0977236 L57.6864228,89.5115447 L55.4644715,89.5115447 L55.4640316,83.2054403 C55.4624183,82.9549784 55.4548897,82.3606736 55.4197561,81.9505691 L57.5376423,81.9505691 L57.5969919,83.0839024 C57.805935,82.741626 58.4026829,81.7717073 60.0425203,81.7717073 Z M23.4841463,81.8170732 C25.2134146,81.8170732 25.7060976,82.8756098 25.854878,83.2333333 C26.4817073,82.0252033 27.4955285,81.8317073 28.2711382,81.8317073 C29.7922764,81.8317073 30.4036585,82.7414634 30.5678862,83.0398374 C30.8971545,83.5766445 30.9368844,84.2832561 30.9404467,84.8818102 L30.9402439,89.5121951 L28.7182927,89.5121951 L28.7182927,85.0829268 C28.7182927,84.2772358 28.5987805,83.3829268 27.450813,83.3829268 C26.1231707,83.3829268 26.0939024,84.6203252 26.0939024,85.7390244 L26.0939024,89.5121951 L23.8711382,89.5121951 L23.8711382,85.0382114 C23.8711382,84.4560976 23.8565041,83.3829268 22.6337398,83.3829268 C21.3045393,83.3829268 21.2491559,84.4782901 21.2468483,85.0160784 L21.246748,89.5121951 L19.0247967,89.5121951 L19.0247967,83.397561 C19.0247967,82.9203252 18.9947154,82.4577236 18.95,81.9804878 L21.0825203,81.9804878 L21.1573171,82.9504065 C21.3963415,82.6219512 21.9776423,81.8170732 23.4841463,81.8170732 Z M87.940813,81.7717073 C89.4172358,81.7717073 90.044065,82.6668293 90.237561,83.1887805 C90.3921282,83.6241703 90.4408299,83.9925839 90.4460247,85.2036427 L90.4465041,89.5115447 L88.1944715,89.5115447 L88.1944715,84.8294309 C88.1944715,84.5156098 88.1944715,84.2473171 88.0749593,84.0091057 C87.9115447,83.6806504 87.5684553,83.3676423 87.0017886,83.3676423 C86.5245528,83.3676423 86.0920325,83.5912195 85.8530081,83.9489431 C85.7188618,84.143252 85.5847154,84.5156098 85.5847154,85.0977236 L85.5847154,89.5115447 L83.3627642,89.5115447 L83.3623242,83.2054403 C83.360711,82.9549784 83.3531823,82.3606736 83.3180488,81.9505691 L85.435935,81.9505691 L85.4952846,83.0839024 C85.7042276,82.741626 86.3009756,81.7717073 87.940813,81.7717073 Z M71.2718699,79.2518699 C72.2556098,79.8778862 72.479187,80.9217886 72.479187,81.5478049 C72.479187,81.9510569 72.4052033,82.6518699 71.8531707,83.159187 C71.778374,83.2478049 71.2564228,83.7250407 70.6304065,83.8892683 L70.6304065,83.9193496 C72.2710569,84.2177236 72.9117073,85.4104065 72.9117073,86.5437398 C72.9117073,87.8120325 72.1661789,88.661626 71.3312195,89.0795122 C70.5484451,89.485 69.2147466,89.510343 68.7074343,89.5119269 L64.5905691,89.5120325 L64.5905691,78.7445528 L68.6173984,78.7445528 C69.2434146,78.7445528 70.4515447,78.7445528 71.2718699,79.2518699 Z M78.0413008,83.2781301 C76.4307317,83.2781301 76.4160976,85.1423577 76.4160976,85.8285366 C76.4160976,87.5139024 76.9827642,88.2439837 78.0713821,88.2439837 C79.0404878,88.2439837 79.6965854,87.6626829 79.6965854,85.6643089 C79.6965854,84.665122 79.5030894,83.2781301 78.0413008,83.2781301 Z M50.1426016,83.2781301 C48.5320325,83.2781301 48.5173984,85.1423577 48.5173984,85.8285366 C48.5173984,87.5139024 49.084065,88.2439837 50.1726829,88.2439837 C51.1417886,88.2439837 51.7978862,87.6626829 51.7978862,85.6643089 C51.7978862,84.665122 51.6043902,83.2781301 50.1426016,83.2781301 Z M13.9582114,83.2781301 C12.3476423,83.2781301 12.3330081,85.1423577 12.3330081,85.8285366 C12.3330081,87.5139024 12.8996748,88.2439837 13.9882927,88.2439837 C14.9573984,88.2439837 15.6134959,87.6626829 15.6134959,85.6643089 C15.6134959,84.665122 15.42,83.2781301 13.9582114,83.2781301 Z M95.5891057,83.3226016 C94.1126829,83.3226016 93.9484553,85.0973984 93.9484553,85.858374 C93.9484553,87.1104065 94.3663415,88.2291057 95.4695935,88.2291057 C96.1110569,88.2291057 96.6330081,87.8413008 96.8712195,87.3795122 C97.1996748,86.7526829 97.2297561,85.9770732 97.2297561,85.6047154 C97.2297561,84.1282927 96.5882927,83.3226016 95.5891057,83.3226016 Z M68.2484688,84.7991025 L66.7978862,84.7990244 L66.7978862,87.7819512 L68.6098086,87.7812929 C69.5988291,87.773393 70.6157724,87.6706942 70.6157724,86.3356098 C70.6157724,84.855935 69.329618,84.8011322 68.2484688,84.7991025 Z M68.4605948,80.3999345 L66.7978862,80.3998374 L66.7978862,83.1291057 L68.5826578,83.128303 C69.2550508,83.1194738 70.2572358,83.013523 70.2572358,81.7421138 C70.2572358,80.4557656 69.2163793,80.4021677 68.4605948,80.3999345 Z" fill="#405D6F"></path>
        </g>
    </g>
</svg>