<?xml version="1.0" encoding="UTF-8"?>
<svg width="160px" height="160px" viewBox="0 0 160 160" version="1.1" xmlns="http://www.w3.org/2000/svg" xmlns:xlink="http://www.w3.org/1999/xlink">
    <!-- Generator: Sketch 63.1 (92452) - https://sketch.com -->
    <title>Assets/Logo/Client/Hazelden</title>
    <desc>Created with Sketch.</desc>
    <g id="Assets/Logo/Client/Hazelden" stroke="none" stroke-width="1" fill="none" fill-rule="evenodd">
        <path d="M25.6315841,86.3853432 L25.6315841,89.4187277 C25.6315841,89.760438 25.7431043,90.0200124 25.9661447,90.196824 C26.189185,90.3730086 26.4829611,90.4614144 26.8474727,90.4614144 C27.0615915,90.4614144 27.2585043,90.4219139 27.4382111,90.342286 C27.6179179,90.2620311 27.7727716,90.1598315 27.9027723,90.0344332 C28.0334103,89.9090349 28.1360088,89.7692159 28.2112053,89.615603 C28.2864018,89.4613631 28.3271863,89.3133931 28.3329216,89.1710661 L28.3329216,86.3853432 L28.9058167,86.3853432 L28.9058167,89.8632646 L28.9580719,90.9147292 L28.4367947,90.9147292 L28.3329216,90.1454107 C28.1825287,90.3962073 27.9696844,90.6012335 27.6943889,90.7604893 C27.4197306,90.9197451 27.1081114,91 26.7608056,91 C26.5237456,91 26.3007052,90.9667695 26.0923218,90.9015623 C25.8839384,90.8357283 25.702957,90.7423065 25.5493778,90.6194162 C25.3957986,90.4971529 25.275994,90.344794 25.1886897,90.1623395 C25.1020225,89.979885 25.058689,89.7748588 25.058689,89.5472609 L25.058689,86.3853432 L25.6315841,86.3853432 Z M22.540372,86.2996962 C23.1776302,86.2996962 23.682976,86.4953175 24.055772,86.8853062 C24.4298426,87.2752948 24.615922,87.8634128 24.615922,88.64966 C24.615922,89.4359072 24.4298426,90.0240252 24.055772,90.4146408 C23.682976,90.8046295 23.1776302,90.9996238 22.540372,90.9996238 C21.9031139,90.9996238 21.3984054,90.8046295 21.0249721,90.4146408 C20.6509015,90.0240252 20.4641848,89.4359072 20.4641848,88.64966 C20.4641848,87.8634128 20.6509015,87.2752948 21.0249721,86.8853062 C21.3984054,86.4953175 21.9031139,86.2996962 22.540372,86.2996962 Z M38.3988609,84.0785164 L38.3988609,89.8549883 L38.4504788,90.9146038 L37.9304761,90.9146038 L37.8259658,90.1371344 C37.6742983,90.3929469 37.4652776,90.6011081 37.1963547,90.7603639 C36.9267945,90.9196197 36.6209105,90.9998746 36.2793401,90.9998746 C35.6312486,90.9998746 35.1284518,90.7948484 34.7728618,90.384169 C34.4166344,89.9741167 34.2382021,89.3960306 34.2382021,88.6499108 C34.2382021,87.903791 34.4166344,87.3257049 34.7728618,86.9150256 C35.1284518,86.5049732 35.6312486,86.299947 36.2793401,86.299947 C36.6209105,86.299947 36.9267945,86.3795749 37.1963547,86.5388307 C37.4652776,86.6987135 37.6742983,86.9037397 37.8259658,87.1545363 L37.8259658,84.0785164 L38.3988609,84.0785164 Z M41.1086102,86.3000724 C41.7050839,86.3000724 42.1696451,86.4323676 42.5022939,86.696958 C42.8355799,86.9621753 43.0019043,87.3653308 43.0019043,87.9064244 L43.0019043,89.8544867 L43.0541595,90.9141022 L42.5500882,90.9141022 L42.4462152,90.1366328 C42.376754,90.2620311 42.2811653,90.3786515 42.159449,90.487121 C42.0377327,90.5955905 41.9000849,90.6865043 41.7465057,90.7604893 C41.5935637,90.8344743 41.4285138,90.8927845 41.2519933,90.9354199 C41.0754728,90.9780553 40.8970405,91 40.7173337,91 C40.1731152,91 39.7684562,90.8858876 39.5059058,90.6576627 C39.2427182,90.4300648 39.1108058,90.1109262 39.1108058,89.7008738 C39.1108058,89.467633 39.1528648,89.2707577 39.2369829,89.1115019 C39.3204637,88.9516191 39.439631,88.8193239 39.5932102,88.7139893 C39.7461522,88.6086548 39.9315943,88.5258919 40.1488994,88.4663277 C40.3655671,88.4061365 40.604539,88.3566042 40.8651776,88.3164768 L42.4462152,88.0857439 L42.4462152,87.8719399 C42.4462152,87.4788162 42.3257734,87.207329 42.085527,87.056224 C41.8452807,86.9051191 41.5196417,86.8267452 41.1086102,86.8211023 C40.72052,86.8098164 40.4382146,86.8825474 40.2616941,87.0392953 C40.0851735,87.1960431 39.9647317,87.4161171 39.9016432,87.7007712 L39.3019832,87.6161274 C39.3421305,87.422387 39.4033073,87.2443215 39.4842391,87.0819307 C39.5651709,86.9195399 39.6754165,86.7816018 39.8143388,86.6668624 C39.9532611,86.5533769 40.1285071,86.4637171 40.3400768,86.397883 C40.5510093,86.3326759 40.8071871,86.3000724 41.1086102,86.3000724 Z M44.9035465,85.0432681 L44.9035465,86.3850297 L46.3195342,86.3850297 L46.3195342,86.9148375 L44.9035465,86.9148375 L44.9035465,89.2221659 C44.9035465,89.4786053 44.9226642,89.6880205 44.9608997,89.8504112 C44.9972234,90.012802 45.0584002,90.1394543 45.1425183,90.230368 C45.2272737,90.3219088 45.3311467,90.382727 45.4547748,90.4140765 C45.5803147,90.4454261 45.7294331,90.4611009 45.9027673,90.4611009 C46.0066404,90.4611009 46.0945821,90.451069 46.1672295,90.4316323 C46.2398769,90.4115686 46.2940439,90.3958938 46.3278186,90.3839809 L46.397917,90.9313444 C46.3335539,90.9539161 46.2558084,90.9708449 46.1640432,90.9827577 C46.0703662,90.9940436 45.9836991,90.9996865 45.9027673,90.9996865 C45.5605597,90.9996865 45.2878132,90.9514082 45.0819788,90.8542245 C44.8761444,90.7576678 44.7168298,90.6266266 44.6040351,90.4611009 C44.4918777,90.2962021 44.4173185,90.1068507 44.3829065,89.8930467 C44.3478573,89.6792426 44.3312886,89.4560337 44.3312886,89.2221659 L44.3312886,86.9148375 L43.4964804,86.9148375 L43.4964804,86.3850297 L44.3312886,86.3850297 L44.3312886,85.2313655 L44.9035465,85.0432681 Z M50.6792724,86.2996962 C51.3165306,86.2996962 51.8212391,86.4953175 52.1946724,86.8853062 C52.568743,87.2752948 52.7548224,87.8634128 52.7548224,88.64966 C52.7548224,89.4359072 52.568743,90.0240252 52.1946724,90.4146408 C51.8212391,90.8046295 51.3165306,90.9996238 50.6792724,90.9996238 C50.0420142,90.9996238 49.5373057,90.8046295 49.1638724,90.4146408 C48.7904391,90.0240252 48.6037225,89.4359072 48.6037225,88.64966 C48.6037225,87.8634128 48.7904391,87.2752948 49.1638724,86.8853062 C49.5373057,86.4953175 50.0420142,86.2996962 50.6792724,86.2996962 Z M47.7185679,86.3853432 L47.7185679,90.9147292 L47.1448197,90.9147292 L47.1448197,86.3853432 L47.7185679,86.3853432 Z M55.5951459,86.2997589 C55.8322059,86.2997589 56.054609,86.3329894 56.264267,86.3981965 C56.4720132,86.4640306 56.6529945,86.5574524 56.8065737,86.6797157 C56.9595157,86.802606 57.0799575,86.9530839 57.1672619,87.1330305 C57.2532917,87.31235 57.2972625,87.5192572 57.2972625,87.752498 L57.2972625,90.9144157 L56.7237302,90.9144157 L56.7237302,87.8804042 C56.7237302,87.5386939 56.61221,87.2797465 56.3898069,87.1029349 C56.1661292,86.9267503 55.8723532,86.8383445 55.5084788,86.8383445 C55.2930855,86.8383445 55.09681,86.877845 54.9171032,86.9574729 C54.7380336,87.0377278 54.5831799,87.1399274 54.4531792,87.2653257 C54.3225413,87.3907239 54.2199427,87.530543 54.144109,87.6841559 C54.0695498,87.8377688 54.0287652,87.9863658 54.0230299,88.1286928 L54.0230299,90.9144157 L53.4494975,90.9144157 L53.4494975,87.4364943 L53.3978796,86.3850297 L53.9185196,86.3850297 L54.0230299,87.1543482 C54.1727856,86.9035516 54.3856298,86.6985254 54.6609254,86.5392696 C54.9362209,86.3800138 55.2478402,86.2997589 55.5951459,86.2997589 Z M20.4204689,84.2492462 L20.4204689,84.8129115 L16.6867732,84.8129115 L16.6867732,87.2142886 L20.0731632,87.2142886 L20.0731632,87.7779538 L16.6867732,87.7779538 L16.6867732,90.9141649 L16.0788288,90.9141649 L16.0788288,84.2492462 L20.4204689,84.2492462 Z M31.9201117,86.2997589 C32.1571718,86.2997589 32.3795749,86.3329894 32.5885956,86.3981965 C32.796979,86.4640306 32.9779603,86.5574524 33.1315396,86.6797157 C33.2844815,86.802606 33.4049233,86.9530839 33.4922277,87.1330305 C33.5788948,87.31235 33.6222284,87.5192572 33.6222284,87.752498 L33.6222284,90.9144157 L33.048696,90.9144157 L33.048696,87.8804042 C33.048696,87.5386939 32.9365385,87.2797465 32.7147727,87.1029349 C32.4910951,86.9267503 32.197319,86.8383445 31.8334446,86.8383445 C31.6186886,86.8383445 31.4217758,86.877845 31.2427063,86.9574729 C31.0629994,87.0377278 30.9081457,87.1399274 30.778145,87.2653257 C30.6475071,87.3907239 30.5449085,87.530543 30.4690748,87.6841559 C30.3938783,87.8377688 30.3537311,87.9863658 30.3479957,88.1286928 L30.3479957,90.9144157 L29.7744634,90.9144157 L29.7744634,87.4364943 L29.7228455,86.3850297 L30.2434854,86.3850297 L30.3479957,87.1543482 C30.4983887,86.9035516 30.7112329,86.6985254 30.9858912,86.5392696 C31.2611867,86.3800138 31.572806,86.2997589 31.9201117,86.2997589 Z M42.4462152,88.5729163 L40.856256,88.8205779 C40.6943924,88.8437765 40.5439994,88.8732451 40.4050772,88.9102376 C40.2661549,88.9472301 40.1444386,88.9973894 40.0399282,89.0600886 C39.9360551,89.1227877 39.8538488,89.2049236 39.792672,89.3077502 C39.7321325,89.4105768 39.7015441,89.541618 39.7015441,89.7008738 C39.7015441,89.9742421 39.7882112,90.1723713 39.9621827,90.2946347 C40.1355169,90.417525 40.3878712,90.4783431 40.7173337,90.4783431 C40.9607663,90.4783431 41.1863557,90.4369617 41.3947391,90.3541988 C41.6037598,90.272063 41.7847412,90.1679824 41.9383204,90.0425841 C42.0912623,89.9171858 42.2129787,89.7767398 42.3028321,89.6193649 C42.3926855,89.4632441 42.4404798,89.3133931 42.4462152,89.1710661 L42.4462152,88.5729163 Z M50.6792724,86.8295039 C50.453683,86.8295039 50.2491231,86.8639885 50.0668673,86.9323305 C49.8846115,87.0006726 49.7297577,87.1085151 49.6023061,87.2564851 C49.4748544,87.4050821 49.3767167,87.5944335 49.3072555,87.8251663 C49.2377944,88.0558991 49.2027452,88.3305214 49.2027452,88.64966 C49.2027452,89.2879373 49.3359322,89.7506569 49.6023061,90.038446 C49.86868,90.326235 50.2274564,90.4698161 50.6792724,90.4698161 C51.1310885,90.4698161 51.4892276,90.326235 51.7556015,90.038446 C52.0219755,89.7506569 52.1551624,89.2879373 52.1551624,88.64966 C52.1551624,88.3305214 52.1213877,88.0558991 52.0512893,87.8251663 C51.9818282,87.5944335 51.8836904,87.4050821 51.7556015,87.2564851 C51.6287871,87.1085151 51.4739334,87.0006726 51.2916776,86.9323305 C51.1094217,86.8639885 50.9054991,86.8295039 50.6792724,86.8295039 Z M22.540372,86.8295039 C22.3147826,86.8295039 22.1095855,86.8639885 21.9279669,86.9323305 C21.7457111,87.0006726 21.5908573,87.1085151 21.4634057,87.2564851 C21.3353168,87.4050821 21.2378163,87.5944335 21.1683552,87.8251663 C21.0982568,88.0558991 21.0638448,88.3305214 21.0638448,88.64966 C21.0638448,89.2879373 21.1970318,89.7506569 21.4634057,90.038446 C21.7297796,90.326235 22.088556,90.4698161 22.540372,90.4698161 C22.9921881,90.4698161 23.3503272,90.326235 23.6167011,90.038446 C23.8830751,89.7506569 24.016262,89.2879373 24.016262,88.64966 C24.016262,88.3305214 23.9824873,88.0558991 23.9117517,87.8251663 C23.8429278,87.5944335 23.74479,87.4050821 23.6167011,87.2564851 C23.4898868,87.1085151 23.335033,87.0006726 23.1527772,86.9323305 C22.9705213,86.8639885 22.7659615,86.8295039 22.540372,86.8295039 Z M36.2965461,86.8385326 C35.8453673,86.8385326 35.4910517,86.9933995 35.2329622,87.3037602 C34.9748726,87.614748 34.8461465,88.0630468 34.8461465,88.6499108 C34.8461465,89.2367748 34.9748726,89.6850736 35.2329622,89.9960614 C35.4910517,90.3064221 35.8453673,90.461289 36.2965461,90.461289 C36.5342434,90.461289 36.7451759,90.4217885 36.930618,90.3421606 C37.1166974,90.2619057 37.2747374,90.1597061 37.4047381,90.0343078 C37.5347388,89.9089095 37.6354256,89.7690905 37.708073,89.6154776 C37.7800832,89.4612377 37.8195932,89.3132677 37.8259658,89.1709407 L37.8259658,88.1288809 C37.8195932,87.9865539 37.7800832,87.8379569 37.708073,87.684344 C37.6354256,87.5307311 37.5347388,87.390912 37.4047381,87.2655138 C37.2747374,87.1401155 37.1166974,87.0379159 36.930618,86.957661 C36.7451759,86.8780331 36.5342434,86.8385326 36.2965461,86.8385326 Z M47.8067385,84.5990447 L47.8067385,85.3338786 L47.057288,85.3338786 L47.057288,84.5990447 L47.8067385,84.5990447 Z M107.17406,72.9182574 L108.870441,77.1410446 L109.740298,79.3461734 L110.609519,77.1410446 L112.321194,72.9182574 L113.456788,72.9182574 L110.373733,80.0866502 L108.957745,83.5112773 L107.822151,83.5112773 L109.194168,80.318637 L106.023809,72.9182574 L107.17406,72.9182574 Z M143.911421,69 L143.911421,78.8092806 L144,80.608746 L143.115486,80.608746 L142.937691,79.2883021 C142.682787,79.7240611 142.32656,80.0770572 141.869009,80.3479175 C141.412094,80.6181508 140.893366,80.754208 140.313461,80.754208 C139.211642,80.754208 138.35899,80.4056007 137.754232,79.7090133 C137.149474,79.0124258 136.847414,78.0311843 136.847414,76.7634076 C136.847414,75.496258 137.149474,74.5143895 137.754232,73.817802 C138.35899,73.1212145 139.211642,72.7732343 140.313461,72.7732343 C140.893366,72.7732343 141.412094,72.9086645 141.869009,73.1795247 C142.32656,73.450385 142.682787,73.7983653 142.937691,74.2240924 L142.937691,69 L143.911421,69 Z M97.7791532,70.6400214 L97.7791532,72.9178812 L100.182891,72.9178812 L100.182891,73.8176139 L97.7791532,73.8176139 L97.7791532,77.7356832 C97.7791532,78.1708153 97.8110161,78.5263194 97.8747419,78.8021956 C97.939105,79.0780718 98.0423408,79.2931299 98.1850867,79.4479968 C98.326558,79.6028636 98.504353,79.7069442 98.7159227,79.7596115 C98.9274925,79.8129058 99.180484,79.8398664 99.4755345,79.8398664 C99.6514178,79.8398664 99.802448,79.8229376 99.9248015,79.7884531 C100.047792,79.7552226 100.13892,79.7282619 100.198185,79.7088252 L100.315441,80.6380265 C100.207744,80.6762729 100.075194,80.7051145 99.9171544,80.7251783 C99.7597517,80.743988 99.6131823,80.7540199 99.4755345,80.7540199 C98.8949923,80.7540199 98.4304311,80.671257 98.0818508,80.5069853 C97.7326333,80.3427135 97.4624359,80.1201316 97.2699839,79.8398664 C97.0781692,79.5589742 96.9526293,79.2373276 96.8933643,78.8749266 C96.8353738,78.5118986 96.8060599,78.1325688 96.8060599,77.7356832 L96.8060599,73.8176139 L95.3900722,73.8176139 L95.3900722,72.9178812 L96.8060599,72.9178812 L96.8060599,70.9585331 L97.7791532,70.6400214 Z M103.014739,70.6400214 L103.014739,72.9178812 L105.418477,72.9178812 L105.418477,73.8176139 L103.014739,73.8176139 L103.014739,77.7356832 C103.014739,78.1708153 103.046602,78.5263194 103.110328,78.8021956 C103.174691,79.0780718 103.277927,79.2931299 103.420673,79.4479968 C103.562144,79.6028636 103.739939,79.7069442 103.951509,79.7596115 C104.163078,79.8129058 104.415433,79.8398664 104.710483,79.8398664 C104.887004,79.8398664 105.038034,79.8229376 105.15975,79.7884531 C105.283378,79.7552226 105.373869,79.7282619 105.433771,79.7088252 L105.551027,80.6380265 C105.44333,80.6762729 105.31078,80.7051145 105.15274,80.7251783 C104.995338,80.743988 104.848768,80.7540199 104.710483,80.7540199 C104.130578,80.7540199 103.666017,80.671257 103.317437,80.5069853 C102.968219,80.3427135 102.698022,80.1201316 102.506207,79.8398664 C102.313755,79.5589742 102.188852,79.2373276 102.12895,78.8749266 C102.07096,78.5118986 102.041646,78.1325688 102.041646,77.7356832 L102.041646,73.8176139 L100.625658,73.8176139 L100.625658,72.9178812 L102.041646,72.9178812 L102.041646,70.9585331 L103.014739,70.6400214 Z M59.2718071,69 L59.2718071,78.8092806 L59.3597487,80.608746 L58.4752343,80.608746 L58.2974393,79.2883021 C58.042536,79.7240611 57.6863087,80.0770572 57.2287573,80.3479175 C56.7718431,80.6181508 56.253115,80.754208 55.6725728,80.754208 C54.5720279,80.754208 53.7187391,80.4056007 53.1139811,79.7090133 C52.5092231,79.0124258 52.2071627,78.0311843 52.2071627,76.7634076 C52.2071627,75.496258 52.5092231,74.5143895 53.1139811,73.817802 C53.7187391,73.1212145 54.5720279,72.7732343 55.6725728,72.7732343 C56.253115,72.7732343 56.7718431,72.9086645 57.2287573,73.1795247 C57.6863087,73.450385 58.042536,73.7983653 58.2974393,74.2240924 L58.2974393,69 L59.2718071,69 Z M127.791911,72.7727954 C128.873338,72.7727954 129.731088,73.1044739 130.36516,73.7672038 C130.999869,74.4293067 131.317224,75.428731 131.317224,76.7635957 C131.317224,78.0984605 130.999869,79.0972578 130.36516,79.7599877 C129.731088,80.4227176 128.873338,80.7537691 127.791911,80.7537691 C126.709847,80.7537691 125.852735,80.4227176 125.218025,79.7599877 C124.583954,79.0972578 124.267236,78.0984605 124.267236,76.7635957 C124.267236,75.428731 124.583954,74.4293067 125.218025,73.7672038 C125.852735,73.1044739 126.709847,72.7727954 127.791911,72.7727954 Z M64.0056796,72.7728581 C65.1463717,72.7728581 65.9818172,73.1189574 66.5126533,73.8105289 C67.0441266,74.5027274 67.3098633,75.482088 67.3098633,76.7492376 L67.3098633,77.1404803 L61.4840489,77.1404803 C61.5324805,78.1179599 61.7861093,78.8170553 62.2430234,79.2377665 C62.7005748,79.6584778 63.2925876,79.8691469 64.0203365,79.8691469 C64.7187715,79.8785518 65.2324016,79.7481376 65.5612268,79.4772773 C65.8906893,79.206417 66.1099061,78.8433889 66.21824,78.3888202 L67.2652552,78.5192344 C67.205353,78.8195633 67.0995681,79.1048444 66.9479007,79.3757047 C66.7955959,79.6465649 66.5891243,79.8835677 66.3284857,80.0867129 C66.0678471,80.2898581 65.7453944,80.4516219 65.3630395,80.5726313 C64.9794101,80.6936406 64.5269568,80.7538318 64.0056796,80.7538318 C62.9146935,80.7538318 62.0492969,80.4227803 61.4101269,79.7600504 C60.7703197,79.0979475 60.4510533,78.0985232 60.4510533,76.7636584 C60.4510533,75.4287937 60.7703197,74.4293694 61.4101269,73.7672665 C62.0492969,73.1045366 62.9146935,72.7728581 64.0056796,72.7728581 Z M91.7619064,72.7728581 C92.9025986,72.7728581 93.7380441,73.1189574 94.2695174,73.8105289 C94.8003535,74.5027274 95.0654529,75.482088 95.0654529,76.7492376 L95.0654529,77.1404803 L89.2396385,77.1404803 C89.2893446,78.1179599 89.5423361,78.8170553 89.998613,79.2377665 C90.4568016,79.6584778 91.0488145,79.8691469 91.7759261,79.8691469 C92.4743611,79.8785518 92.9886284,79.7481376 93.3174537,79.4772773 C93.6475534,79.206417 93.866133,78.8433889 93.9738296,78.3888202 L95.0208448,78.5192344 C94.9615798,78.8195633 94.8564322,79.1048444 94.7034902,79.3757047 C94.5518228,79.6465649 94.3453511,79.8835677 94.0847125,80.0867129 C93.8234367,80.2898581 93.5016213,80.4516219 93.1186291,80.5726313 C92.7349997,80.6936406 92.2825463,80.7538318 91.7619064,80.7538318 C90.6702831,80.7538318 89.8055237,80.4227803 89.1663538,79.7600504 C88.5271838,79.0979475 88.2072802,78.0985232 88.2072802,76.7636584 C88.2072802,75.4287937 88.5271838,74.4293694 89.1663538,73.7672665 C89.8055237,73.1045366 90.6702831,72.7728581 91.7619064,72.7728581 Z M44.8475315,72.7728581 C45.9882237,72.7728581 46.8236692,73.1189574 47.3551425,73.8105289 C47.8859786,74.5027274 48.151078,75.482088 48.151078,76.7492376 L48.151078,77.1404803 L42.3252636,77.1404803 C42.3749697,78.1179599 42.6279612,78.8170553 43.0842381,79.2377665 C43.5424267,79.6584778 44.1344396,79.8691469 44.8615512,79.8691469 C45.5599862,79.8785518 46.0742535,79.7481376 46.4030788,79.4772773 C46.7331785,79.206417 46.9517581,78.8433889 47.0594547,78.3888202 L48.1064699,78.5192344 C48.0472049,78.8195633 47.9420573,79.1048444 47.7891153,79.3757047 C47.6374479,79.6465649 47.4309762,79.8835677 47.1703376,80.0867129 C46.9090618,80.2898581 46.5872464,80.4516219 46.2042542,80.5726313 C45.8206248,80.6936406 45.3681714,80.7538318 44.8475315,80.7538318 C43.7559082,80.7538318 42.8911488,80.4227803 42.2519789,79.7600504 C41.6128089,79.0979475 41.2929053,78.0985232 41.2929053,76.7636584 C41.2929053,75.4287937 41.6128089,74.4293694 42.2519789,73.7672665 C42.8911488,73.1045366 43.7559082,72.7728581 44.8475315,72.7728581 Z M29.0075231,72.7729835 C30.0201264,72.7729835 30.8096893,72.9980734 31.3749373,73.4476263 C31.9401854,73.8978061 32.2224907,74.5818537 32.2224907,75.5010231 L32.2224907,78.8096568 L32.3110696,80.6084952 L31.4558691,80.6084952 L31.2793486,79.2886782 C31.1608186,79.5012283 30.998955,79.6993576 30.7924833,79.8830661 C30.5860117,80.0674016 30.3521379,80.2222685 30.0914993,80.3476667 C29.8308607,80.473065 29.5504671,80.5727567 29.2509558,80.6448607 C28.9508072,80.7175917 28.649384,80.7539572 28.3441373,80.7539572 C27.4194757,80.7539572 26.7337859,80.5602168 26.2864306,80.1733631 C25.8390754,79.7865094 25.6153978,79.2447888 25.6153978,78.5482014 C25.6153978,78.1519428 25.6867707,77.8177564 25.8295165,77.5468961 C25.9716251,77.2760358 26.1736359,77.0515729 26.4342745,76.8722534 C26.6942759,76.6935608 27.0090814,76.5531147 27.3780539,76.4515421 C27.7470264,76.3499695 28.1523226,76.2653257 28.5945798,76.1976106 L31.2793486,75.805741 L31.2793486,75.4427129 C31.2793486,74.7755941 31.0747887,74.3135014 30.6669435,74.0570619 C30.258461,73.8012494 29.7059581,73.6677003 29.0075231,73.6582954 C28.3485982,73.6388586 27.86938,73.762376 27.5698686,74.0282203 C27.26972,74.2940647 27.0657974,74.6690055 26.9574635,75.1524159 L25.9397622,75.0075809 C26.0085861,74.6790374 26.1118219,74.3762005 26.2494697,74.1003243 C26.3871174,73.8250751 26.5744713,73.5905803 26.8102569,73.39684 C27.0460424,73.2037266 27.3430047,73.0513677 27.7024183,72.9397632 C28.0611947,72.8287857 28.4964421,72.7729835 29.0075231,72.7729835 Z M135.770703,72.7730462 C135.90835,72.7730462 136.063204,72.7830781 136.235264,72.8018878 C136.407323,72.8213245 136.542422,72.8507931 136.64056,72.8890396 L136.537961,73.8759241 C136.478696,73.8564874 136.38247,73.8301537 136.249921,73.7962962 C136.117371,73.7624387 135.957419,73.7455099 135.770703,73.7455099 C135.377514,73.7455099 135.02065,73.813225 134.701383,73.9486551 C134.38148,74.0840852 134.111282,74.2583889 133.890154,74.4709389 C133.669025,74.683489 133.496965,74.9204918 133.373974,75.1819472 C133.250984,75.4427756 133.184072,75.6948262 133.17515,75.9362179 L133.17515,80.6091849 L132.200782,80.6091849 L132.200782,74.7029258 L132.112841,72.9178812 L132.997355,72.9178812 L133.17515,74.2822145 C133.293043,74.0790693 133.440249,73.885956 133.617407,73.7016205 C133.793928,73.517912 133.993389,73.3561482 134.214518,73.2157021 C134.436284,73.0752561 134.679079,72.9667866 134.944816,72.8890396 C135.210553,72.8119197 135.485211,72.7730462 135.770703,72.7730462 Z M17.031721,69.290297 L17.031721,74.325665 L23.3737146,74.325665 L23.3737146,69.290297 L24.4060729,69.290297 L24.4060729,80.608746 L23.3737146,80.608746 L23.3737146,75.2830809 L17.031721,75.2830809 L17.031721,80.608746 L16,80.608746 L16,69.290297 L17.031721,69.290297 Z M50.7030422,69.0001254 L50.7030422,80.6088714 L49.7293116,80.6088714 L49.7293116,69.0001254 L50.7030422,69.0001254 Z M40.0838353,72.9182574 L40.0838353,73.7013697 L36.0283241,78.4031783 L34.8035139,79.7236222 L36.9568093,79.7092014 L40.2463361,79.7092014 L40.2463361,80.6089341 L33.623949,80.6089341 L33.623949,79.8251948 L37.6800974,75.1233862 L38.9036331,73.8029423 L36.7509749,73.8179901 L33.9037053,73.8179901 L33.9037053,72.9182574 L40.0838353,72.9182574 Z M72.5007774,72.7730462 C72.9035246,72.7730462 73.282056,72.8288484 73.6370088,72.9398259 C73.9900498,73.0508034 74.2978455,73.2106862 74.5578469,73.4188474 C74.8184855,73.6270085 75.0224081,73.882821 75.170252,74.1875388 C75.3174586,74.4922567 75.3920178,74.8433718 75.3920178,75.2396304 L75.3920178,80.6085579 L74.4176501,80.6085579 L74.4176501,75.4571964 C74.4176501,74.8772294 74.2283844,74.4370814 73.8511275,74.1367525 C73.4713216,73.8370506 72.9729857,73.6871997 72.3529335,73.6871997 C71.9896963,73.6871997 71.6551358,73.7549148 71.3505264,73.8903449 C71.0452797,74.025775 70.782092,74.2000787 70.5616007,74.4126287 C70.3398349,74.6251788 70.1652261,74.8621816 70.0377745,75.123637 C69.9096856,75.3850924 69.841499,75.636516 69.8313028,75.8779077 L69.8313028,80.6085579 L68.8582096,80.6085579 L68.8582096,74.7029258 L68.7689934,72.9178812 L69.6547823,72.9178812 L69.8313028,74.2239043 C70.0868434,73.7981772 70.4481688,73.4501969 70.915279,73.1793366 C71.3823893,72.9084764 71.9113136,72.7730462 72.5007774,72.7730462 Z M83.9888858,69.2899208 C84.3138875,69.2899208 84.6573697,69.3313023 85.0218814,69.4134381 C85.3857558,69.495574 85.7196791,69.6460519 86.0249258,69.862991 C86.3288979,70.081184 86.5806149,70.3833938 86.7768904,70.7702475 C86.973166,71.1571012 87.071941,71.6505435 87.071941,72.2505743 C87.071941,72.6474598 87.0222348,72.9929321 86.9247343,73.2882451 C86.8259593,73.582931 86.7004194,73.8299656 86.548752,74.0280949 C86.39581,74.2262242 86.2313974,74.3810911 86.0542396,74.4920686 C85.8770819,74.603673 85.7101202,74.6833009 85.5527174,74.7315793 C85.7980618,74.7804846 86.0363964,74.8695174 86.2683584,74.9999316 C86.4990459,75.1309728 86.7029685,75.3096654 86.879489,75.5372632 C87.057284,75.7648611 87.1993926,76.0401104 87.3077265,76.3642649 C87.4154231,76.6884195 87.4695901,77.0677493 87.4695901,77.5035083 C87.4695901,78.1417856 87.3771877,78.6640694 87.190471,79.0703598 C87.0031171,79.4766503 86.7520374,79.7939079 86.4372318,80.0208788 C86.1230635,80.2484767 85.7617381,80.4033436 85.3538929,80.4854794 C84.9454104,80.5676153 84.5203592,80.6089968 84.0774647,80.6089968 L79.4318525,80.6089968 L79.4318525,69.2899208 L83.9888858,69.2899208 Z M124.193505,69.2904851 L124.193505,70.247901 L117.851512,70.247901 L117.851512,74.3258531 L123.602767,74.3258531 L123.602767,75.283269 L117.851512,75.283269 L117.851512,80.6089341 L116.819154,80.6089341 L116.819154,69.2904851 L124.193505,69.2904851 Z M31.2793486,76.6327426 L28.5799229,77.0534539 C28.3046273,77.0923273 28.0490868,77.1431136 27.8133013,77.2058128 C27.5768785,77.2691389 27.3704068,77.3537828 27.193249,77.4597443 C27.0167285,77.5663328 26.8765317,77.7067789 26.7732959,77.8810825 C26.6700601,78.0547591 26.6184422,78.2773411 26.6184422,78.5482014 C26.6184422,79.012802 26.7656488,79.3488694 27.0606993,79.5570306 C27.3557499,79.7651917 27.7833501,79.8686453 28.3441373,79.8686453 C28.7570807,79.8686453 29.1400728,79.7990493 29.4943884,79.6586032 C29.848704,79.5181571 30.1552251,79.3413455 30.4158637,79.1287954 C30.6765023,78.9162453 30.882974,78.6767346 31.0352787,78.4102633 C31.1882207,78.1444189 31.2691525,77.8904874 31.2793486,77.6484687 L31.2793486,76.6327426 Z M127.791911,73.6725281 C127.407645,73.6725281 127.061613,73.7308383 126.751906,73.8468317 C126.442198,73.9628251 126.179011,74.1465336 125.96298,74.3979571 C125.74695,74.6500077 125.579351,74.9710273 125.461458,75.3628969 C125.343565,75.7547666 125.2843,76.2218752 125.2843,76.7635957 C125.2843,77.8470369 125.510527,78.6332841 125.96298,79.1217104 C126.414796,79.6101367 127.024652,79.8540364 127.791911,79.8540364 C128.55917,79.8540364 129.168389,79.6101367 129.620842,79.1217104 C130.072658,78.6332841 130.298885,77.8470369 130.298885,76.7635957 C130.298885,76.2218752 130.240257,75.7547666 130.122365,75.3628969 C130.003835,74.9710273 129.836873,74.6500077 129.620842,74.3979571 C129.404175,74.1465336 129.141624,73.9628251 128.831917,73.8468317 C128.522209,73.7308383 128.175541,73.6725281 127.791911,73.6725281 Z M55.7018866,73.6873878 C54.9346278,73.6873878 54.333056,73.9507242 53.8952596,74.478024 C53.4581005,75.0053237 53.239521,75.7671183 53.239521,76.7634076 C53.239521,77.759697 53.4581005,78.5221185 53.8952596,79.0487913 C54.333056,79.5760911 54.9346278,79.8400545 55.7018866,79.8400545 C56.1046338,79.8400545 56.4646847,79.7723394 56.778853,79.6369093 C57.0936585,79.5014791 57.3619442,79.3271755 57.5824356,79.1146254 C57.8035642,78.9014484 57.9762611,78.6644456 58.099252,78.4029902 C58.2216055,78.1421618 58.2885177,77.8907382 58.2974393,77.6487195 L58.2974393,75.8780958 C58.2885177,75.6367041 58.2216055,75.3852805 58.099252,75.1238251 C57.9762611,74.8623697 57.8035642,74.6253669 57.5824356,74.4128168 C57.3619442,74.2002668 57.0936585,74.0259631 56.778853,73.890533 C56.4646847,73.7551029 56.1046338,73.6873878 55.7018866,73.6873878 Z M140.342775,73.6873878 C139.575516,73.6873878 138.973307,73.9507242 138.536148,74.478024 C138.098352,75.0053237 137.879772,75.7671183 137.879772,76.7634076 C137.879772,77.759697 138.098352,78.5221185 138.536148,79.0487913 C138.973307,79.5760911 139.575516,79.8400545 140.342775,79.8400545 C140.745522,79.8400545 141.104299,79.7723394 141.419104,79.6369093 C141.73391,79.5014791 142.002196,79.3271755 142.222687,79.1146254 C142.444453,78.9014484 142.616512,78.6644456 142.739503,78.4029902 C142.862494,78.1421618 142.928769,77.8907382 142.937691,77.6487195 L142.937691,75.8780958 C142.928769,75.6367041 142.862494,75.3852805 142.739503,75.1238251 C142.616512,74.8623697 142.444453,74.6253669 142.222687,74.4128168 C142.002196,74.2002668 141.73391,74.0259631 141.419104,73.890533 C141.104299,73.7551029 140.745522,73.6873878 140.342775,73.6873878 Z M84.018837,75.2833317 L80.4642107,75.2833317 L80.4642107,79.6509539 L83.944915,79.6509539 C84.1908967,79.6509539 84.4566333,79.6340251 84.7414877,79.6001676 C85.0263422,79.56631 85.2895298,79.4791582 85.5304134,79.3393392 C85.771297,79.1988931 85.9707588,78.986343 86.1281616,78.7004349 C86.2855644,78.4151538 86.3633099,78.0163873 86.3633099,77.5035083 C86.3633099,77.0006612 86.2925742,76.6012677 86.1504656,76.3059547 C86.0070825,76.0112687 85.8229149,75.7886868 85.5973255,75.6388358 C85.3704616,75.4889849 85.1181073,75.3918012 84.8370765,75.3485388 C84.5573201,75.3046494 84.2839364,75.2833317 84.018837,75.2833317 Z M91.7619064,73.6437492 C91.0443537,73.6437492 90.4568016,73.8519103 89.998613,74.2676056 C89.5423361,74.6839279 89.2893446,75.3560627 89.2396385,76.284637 L94.0037807,76.284637 C93.9833885,75.4338097 93.7966718,74.7754687 93.4436308,74.310868 C93.0893152,73.8468944 92.5291653,73.6243124 91.7619064,73.6437492 Z M64.0056796,73.6437492 C63.2881268,73.6437492 62.7005748,73.8519103 62.2430234,74.2676056 C61.7861093,74.6839279 61.5324805,75.3560627 61.4840489,76.284637 L66.2475539,76.284637 C66.2277989,75.4338097 66.0410822,74.7754687 65.6867667,74.310868 C65.3330884,73.8468944 64.7729384,73.6243124 64.0056796,73.6437492 Z M44.8475315,73.6437492 C44.1299788,73.6437492 43.5424267,73.8519103 43.0842381,74.2676056 C42.6279612,74.6839279 42.3749697,75.3560627 42.3252636,76.284637 L47.0894058,76.284637 C47.0690136,75.4338097 46.8822969,74.7754687 46.5292559,74.310868 C46.1749403,73.8468944 45.6147904,73.6243124 44.8475315,73.6437492 Z M83.8270222,70.2479637 L80.4642107,70.2479637 L80.4642107,74.3252888 L83.8270222,74.3252888 C84.1513867,74.3252888 84.4464372,74.2964472 84.7115366,74.238137 C84.9772733,74.1804538 85.2015882,74.0738653 85.383844,73.9189984 C85.5654626,73.7647585 85.7082084,73.5515814 85.810807,73.2807212 C85.9140428,73.0098609 85.966298,72.6662696 85.966298,72.2505743 C85.966298,71.834879 85.9165919,71.4956766 85.8178168,71.2348482 C85.7196791,70.9733928 85.5794823,70.7702475 85.3978637,70.6247855 C85.2156078,70.4799505 84.9925675,70.3808859 84.7268308,70.3275916 C84.4617314,70.2749243 84.1615828,70.2479637 83.8270222,70.2479637 Z" id="Hazelden" fill="#405D6F"></path>
    </g>
</svg>