<?xml version="1.0" encoding="UTF-8"?>
<svg width="160px" height="160px" viewBox="0 0 160 160" version="1.1" xmlns="http://www.w3.org/2000/svg" xmlns:xlink="http://www.w3.org/1999/xlink">
    <!-- Generator: Sketch 63.1 (92452) - https://sketch.com -->
    <title>Assets/Logo/Client/HealthPartners</title>
    <desc>Created with Sketch.</desc>
    <g id="Assets/Logo/Client/HealthPartners" stroke="none" stroke-width="1" fill="none" fill-rule="evenodd">
        <path d="M40.1176867,68 L52.1307514,80.000279 L40.1176867,92 L34.891822,86.7802553 L41.6784634,80.000279 L34.891822,73.2203027 L40.1176867,68 Z M28.0119474,68.0003348 L33.2372535,73.2206375 L26.4506121,80.0000558 L33.2372535,86.7794741 L28.0119474,91.9992188 L16,80.0000558 L28.0119474,68.0003348 Z M34.0653477,73.9659885 L40.1056764,79.9998884 L34.0653477,86.0337883 L28.0244605,79.9998884 L34.0653477,73.9659885 Z M86.3850514,76.9235648 L86.547609,77.0067102 L86.547609,78.449199 L88.1849163,78.449199 L88.1849163,79.2181543 L86.547609,79.2181543 L86.547609,82.9831338 C86.547609,83.5601293 86.8928345,83.724746 87.2782804,83.724746 C87.6207128,83.724746 87.8274012,83.6416006 88.0899513,83.4780999 L88.267033,83.7107954 C87.7598085,84.3698203 87.181081,84.8234928 86.3990168,84.8234928 C85.352168,84.8234928 85.0080598,84.1644679 85.0080598,83.4083471 L85.0080598,79.2181543 L84.1824235,79.2181543 L84.1824235,78.8878049 C84.9259431,78.4893766 85.7649862,77.7064707 86.3850514,76.9235648 Z M77.0850792,78.2425632 C78.2961614,78.2425632 78.9424816,78.875361 78.9424816,80.0700877 L78.9424816,82.8719198 C78.9424816,83.4634239 78.9838193,83.8903113 79.3692652,83.8903113 C79.492161,83.8903113 79.6714772,83.7937734 79.7541525,83.710628 L79.9334687,83.9578321 C79.5195333,84.4656328 79.1497286,84.8233254 78.4888844,84.8233254 C77.8280401,84.8233254 77.4990146,84.3702109 77.4437115,83.7379711 C76.8381703,84.3294752 76.219781,84.8233254 75.3399588,84.8233254 C74.5137638,84.8233254 73.8395127,84.3149666 73.8395127,83.4087377 C73.8395127,82.337334 74.7204522,82.0075426 75.6963566,81.6509661 L77.4023738,81.059462 L77.4023738,80.2899486 C77.4023738,79.4936502 76.9348111,79.1766933 76.3158632,79.1766933 C75.5170404,79.1766933 75.3120279,79.3820456 75.2572834,80.152117 C75.2293525,80.5237601 74.4858329,80.7028854 74.2802618,80.7028854 C74.1299937,80.7028854 74.0188289,80.5912809 74.0188289,80.3859285 C74.0188289,79.8507847 74.3495303,79.4517985 74.7751967,79.2319375 C75.2293525,78.998126 75.7376943,78.7375294 76.2611187,78.435081 C76.562772,78.2565138 76.8102395,78.2425632 77.0850792,78.2425632 Z M70.551268,78.2428422 C71.9673628,78.2428422 72.7382546,79.2869027 72.711441,80.6473622 L72.5455317,80.7985863 L68.831844,80.7985863 C68.831844,82.1997814 69.4787228,83.587026 70.9640861,83.587026 C71.6238132,83.587026 72.1595271,83.3403799 72.6013934,82.8454138 L72.82093,83.1076844 C72.2712506,84.0680416 71.335008,84.8236044 70.1797875,84.8236044 C68.4469567,84.8236044 67.5112727,83.2304494 67.5112727,81.6640796 C67.5112727,79.9325351 68.6799001,78.2428422 70.551268,78.2428422 Z M107.785512,78.2371504 C108.996036,78.2371504 109.643473,78.8693901 109.643473,80.0641168 L109.643473,82.866507 C109.643473,83.4580111 109.683693,83.8848985 110.068581,83.8848985 C110.193152,83.8848985 110.371351,83.7883606 110.454027,83.7046572 L110.632784,83.9529773 C110.221083,84.461336 109.849044,84.8190286 109.189317,84.8190286 C108.528473,84.8190286 108.196654,84.3653561 108.143027,83.7331163 C107.538044,84.3240624 106.920214,84.8190286 106.038716,84.8190286 C105.213079,84.8190286 104.539387,84.3106699 104.539387,83.4033249 C104.539387,82.3308052 105.420326,82.0015718 106.396789,81.6449952 L108.103365,81.0534911 L108.103365,80.2834197 C108.103365,79.4871213 107.635244,79.1712804 107.015179,79.1712804 C106.217473,79.1712804 106.011902,79.3777488 105.956599,80.1472622 C105.928668,80.5177893 105.186266,80.6963566 104.980136,80.6963566 C104.827633,80.6963566 104.718144,80.5875421 104.718144,80.3805157 C104.718144,79.8442559 105.048287,79.4452696 105.474512,79.2259667 C105.928668,78.9927132 106.438127,78.7321165 106.960993,78.4296682 C107.263205,78.2511009 107.511789,78.2371504 107.785512,78.2371504 Z M142.116901,78.2370946 C142.736408,78.2370946 143.217377,78.3743682 143.740243,78.566886 C143.698905,79.0607361 143.670974,79.5417517 143.712871,80.0233254 L143.325749,80.0925202 C143.257598,79.3224488 142.968234,78.7320607 142.089529,78.7320607 C141.621966,78.7320607 141.153286,79.0200005 141.153286,79.5557023 C141.153286,81.0528773 144,80.7108094 144,82.7989305 C144,84.2827129 142.804,84.8189728 141.662745,84.8189728 C141.003018,84.8189728 140.507525,84.6253389 140.038845,84.4612802 L139.914832,82.9362041 L140.300278,82.8536167 C140.38407,83.6091795 140.837109,84.3228906 141.649338,84.3228906 C142.186728,84.3228906 142.681105,84.0215583 142.681105,83.4166616 C142.681105,82.0980539 139.914832,82.3173568 139.914832,80.2024506 C139.914832,78.9926574 140.851074,78.2370946 142.116901,78.2370946 Z M131.49295,78.2371504 C132.909045,78.2371504 133.680495,79.2812109 133.652006,80.6416703 L133.487214,80.7928945 L129.773526,80.7928945 C129.773526,82.1940896 130.419288,83.5818922 131.904651,83.5818922 C132.566612,83.5818922 133.101768,83.3346881 133.541958,82.8402799 L133.761495,83.1008766 C133.211815,84.0623497 132.277249,84.8184706 131.120911,84.8184706 C129.388639,84.8184706 128.453513,83.2247576 128.453513,81.6589458 C128.453513,79.9257272 129.620465,78.2371504 131.49295,78.2371504 Z M118.588444,76.9183752 L118.753236,77.0009626 L118.753236,78.4428933 L120.389985,78.4428933 L120.389985,79.2118487 L118.753236,79.2118487 L118.753236,82.9762701 C118.753236,83.5538236 119.097344,83.7189983 119.481673,83.7189983 C119.82634,83.7189983 120.031911,83.636411 120.292785,83.4712363 L120.47266,83.7056058 C119.963201,84.3646307 119.386708,84.8188612 118.602409,84.8188612 C117.557236,84.8188612 117.212011,84.1581622 117.212011,83.4031575 L117.212011,79.2118487 L116.38805,79.2118487 L116.38805,78.8831733 C117.131011,78.484187 117.968379,77.7012811 118.588444,76.9183752 Z M91.0017439,74.1212862 L91.1531292,74.2446093 L91.1531292,79.2461671 C91.7575531,78.8332303 92.459735,78.2428422 93.2982196,78.2428422 C94.2892066,78.2428422 95.0047954,78.7232998 95.0047954,80.0151224 L95.0047954,83.8208375 C95.0047954,84.1732754 95.2934725,84.2026452 95.5954491,84.2050927 L95.8427213,84.2053152 L95.8427213,84.6171359 C95.3209728,84.5903509 94.8120724,84.5624497 94.2892066,84.5624497 C93.7395272,84.5624497 93.202696,84.5903509 92.6518994,84.6171359 L92.6518994,84.2053152 L92.7904365,84.2053152 C93.0641589,84.2053152 93.4635703,84.2053152 93.4635703,83.8481806 L93.4635703,80.4141087 C93.4635703,79.5759585 93.0362281,79.2595596 92.4178387,79.2595596 C91.9636829,79.2595596 91.4553412,79.5346648 91.1531292,79.7271827 L91.1531292,83.8755237 C91.1531292,84.1753341 91.4135095,84.2025896 91.7206441,84.2050674 L92.0195446,84.2053152 L92.0195446,84.6171359 C91.4955616,84.5903509 90.9743717,84.5624497 90.4520645,84.5624497 C89.8878611,84.5624497 89.3365058,84.5903509 88.8007918,84.6171359 L88.8007918,84.2053152 C89.2415409,84.2053152 89.6124628,84.2053152 89.6124628,83.7795438 L89.6124628,75.9889884 C89.6124628,75.6882141 89.5716837,75.563775 89.2549477,75.440452 L88.8007918,75.2613267 L88.8007918,74.9315353 C89.4191812,74.7803111 90.3274929,74.4376851 91.0017439,74.1212862 Z M82.5796387,74.1212862 L82.731024,74.2446093 L82.731024,83.7795438 C82.731024,84.1779721 83.0617255,84.2053152 83.4471714,84.2053152 L83.5979981,84.2053152 L83.5979981,84.6171359 C83.074015,84.5903509 82.5522665,84.5624497 82.0154353,84.5624497 C81.4517905,84.5624497 80.8864698,84.5903509 80.378128,84.6171359 L80.378128,84.2053152 C80.8188771,84.2053152 81.1886817,84.2053152 81.1886817,83.7795438 L81.1886817,75.9889884 C81.1886817,75.6882141 81.1484613,75.563775 80.8317253,75.440452 C80.6808986,75.3846497 80.5295133,75.316571 80.378128,75.2613267 L80.378128,74.9315353 C80.9965174,74.7803111 81.9053877,74.4376851 82.5796387,74.1212862 Z M67.0797967,75.0276268 L67.0797967,75.4405636 L66.8876324,75.4405636 C66.3915802,75.4405636 65.8692731,75.5086424 65.8692731,76.2229115 L65.8692731,76.2229115 L65.8692731,83.4230789 C65.8692731,84.137348 66.3915802,84.2054268 66.8876324,84.2054268 L66.8876324,84.2054268 L67.0797967,84.2054268 L67.0797967,84.6172476 C66.5290001,84.6172476 65.7050396,84.5625613 65.0034163,84.5625613 C64.2610139,84.5625613 63.3806331,84.6172476 62.7745333,84.6172476 L62.7745333,84.6172476 L62.7745333,84.2054268 L63.0359662,84.2054268 C63.5309011,84.2054268 64.10907,84.1646911 64.10907,83.4230789 L64.10907,83.4230789 L64.10907,80.0012835 L59.1161488,80.0012835 L59.1161488,83.4230789 C59.1161488,84.1646911 59.693759,84.2054268 60.1892526,84.2054268 L60.1892526,84.2054268 L60.4501268,84.2054268 L60.4501268,84.6172476 C59.8451443,84.6172476 58.9647635,84.5625613 58.2223611,84.5625613 C57.5207378,84.5625613 56.6951015,84.6172476 56.1448634,84.6172476 L56.1448634,84.6172476 L56.1448634,84.2054268 L56.3375864,84.2054268 C56.8336385,84.2054268 57.3559457,84.137348 57.3559457,83.4230789 L57.3559457,83.4230789 L57.3559457,76.2229115 C57.3559457,75.5086424 56.8336385,75.4405636 56.3375864,75.4405636 L56.3375864,75.4405636 L56.1448634,75.4405636 L56.1448634,75.0276268 C56.6951015,75.0276268 57.5207378,75.082871 58.2223611,75.082871 C58.9647635,75.082871 59.8451443,75.0276268 60.4501268,75.0276268 L60.4501268,75.0276268 L60.4501268,75.4405636 L60.1892526,75.4405636 C59.693759,75.4405636 59.1161488,75.4807412 59.1161488,76.2229115 L59.1161488,76.2229115 L59.1161488,79.2323281 L64.10907,79.2323281 L64.10907,76.2229115 C64.10907,75.4807412 63.5309011,75.4405636 63.0359662,75.4405636 L63.0359662,75.4405636 L62.7745333,75.4405636 L62.7745333,75.0276268 C63.3806331,75.0276268 64.2610139,75.082871 65.0034163,75.082871 C65.7050396,75.082871 66.5290001,75.0276268 67.0797967,75.0276268 L67.0797967,75.0276268 Z M125.478988,78.237262 C126.467182,78.237262 127.183888,78.7177195 127.183888,80.0089842 L127.183888,83.8163733 C127.183888,84.1688112 127.472096,84.198181 127.775715,84.2006285 L128.02349,84.200851 L128.02349,84.6121137 C127.500624,84.5847706 126.991724,84.5579855 126.467182,84.5579855 C125.917503,84.5579855 125.382347,84.5847706 124.830992,84.6121137 L124.830992,84.200851 L124.970088,84.200851 C125.246045,84.200851 125.643222,84.200851 125.643222,83.8431584 L125.643222,80.4079704 C125.643222,79.5698203 125.216997,79.2534214 124.59749,79.2534214 C124.145569,79.2534214 123.635551,79.5285266 123.332222,79.7204864 L123.332222,83.8710595 C123.332222,84.1708699 123.593526,84.1981254 123.900408,84.2006032 L124.200313,84.200851 L124.200313,84.6121137 C123.67633,84.5847706 123.154582,84.5579855 122.631716,84.5579855 C122.06863,84.5579855 121.51895,84.5847706 120.982678,84.6121137 L120.982678,84.200851 L121.076525,84.200851 C121.476495,84.200851 121.792114,84.200851 121.792114,83.7890302 L121.792114,79.8990537 C121.792114,79.6797507 121.7653,79.5971634 121.461971,79.514576 C121.297738,79.4732823 121.144677,79.4185961 120.982678,79.3773024 L120.982678,79.048069 C121.407785,78.9381385 121.874789,78.7724058 122.231187,78.6490828 C122.549599,78.5397103 122.879183,78.360585 123.181395,78.237262 L123.332222,78.360585 L123.332222,79.2394708 C123.937763,78.828208 124.639945,78.237262 125.478988,78.237262 Z M96.9607379,75.0186984 C97.4573487,75.0186984 98.1857856,75.0733846 98.8868503,75.0733846 C99.1214696,75.0733846 100.38771,75.0692217 100.827312,75.0677524 L100.977755,75.0672464 C101.148133,75.0616662 101.316277,75.057202 101.478835,75.057202 C103.349085,75.057202 104.711553,75.6760492 104.711553,77.6821409 C104.711553,79.2898045 103.56918,80.3221465 102.056445,80.4722546 C101.892993,80.4886605 101.574615,80.4924885 101.398299,80.4933088 L100.569406,80.4934595 L100.569406,80.0855449 L101.272705,80.0855449 C102.365919,80.0676882 102.866998,79.0855681 102.866998,77.7362692 C102.866998,76.4723476 102.258664,75.6286173 100.958762,75.5599805 L100.958762,75.5599805 L99.8085688,75.5460299 L99.8085688,83.05869 C99.8085688,84.1730615 100.414669,84.1998465 101.116851,84.1998465 L101.336387,84.1998465 L101.336387,84.6122253 C100.635322,84.6122253 99.9471059,84.5575391 99.2443654,84.5575391 C98.4891148,84.5575391 97.7461538,84.6122253 96.9607379,84.6122253 L96.9607379,84.6122253 L96.9607379,84.1998465 L97.2463654,84.1995743 C97.6407005,84.19537 98.0478072,84.1280085 98.0478072,83.0860332 L98.0478072,83.0860332 L98.0478072,76.5169895 C98.0478072,75.5962519 97.7880501,75.4316352 97.1266473,75.4316352 L97.1266473,75.4316352 L96.9607379,75.4316352 Z M115.013126,78.2370388 C115.480688,78.2370388 115.893507,78.4568997 115.893507,79.0478458 C115.893507,79.5695971 115.548281,79.8586528 115.123173,79.8586528 C114.588018,79.8586528 114.588018,79.3352275 114.160676,79.3352275 C113.829974,79.3352275 113.402632,79.5969402 113.402632,80.2704736 L113.402632,83.8836709 C113.402632,84.1762465 113.718684,84.1987523 114.277413,84.2004835 L114.628238,84.2006278 L114.628238,84.6118905 C113.98136,84.59794 113.333922,84.5577623 112.687602,84.5577623 C112.11055,84.5577623 111.547464,84.59794 110.968737,84.6118905 L110.968737,84.2006278 L111.106156,84.2006278 C111.573719,84.2006278 111.862524,84.1453835 111.862524,83.8434932 L111.862524,80.1052989 C111.862524,79.6521844 111.780408,79.5143528 111.435741,79.4591086 C111.283797,79.4328815 111.146936,79.4049804 110.996109,79.3776372 L110.996109,79.0478458 C111.725663,78.9111302 112.468065,78.5947313 113.251247,78.2370388 L113.402632,78.3196261 L113.402632,79.2677068 L113.431122,79.2677068 C113.679706,78.8692785 114.296978,78.2370388 115.013126,78.2370388 Z M138.299031,78.2370388 C138.766594,78.2370388 139.180529,78.4568997 139.180529,79.0478458 C139.180529,79.5695971 138.834745,79.8586528 138.410755,79.8586528 C137.874482,79.8586528 137.874482,79.3352275 137.447699,79.3352275 C137.116439,79.3352275 136.690772,79.5969402 136.690772,80.2704736 L136.690772,83.8836709 C136.690772,84.1762465 137.006824,84.1987523 137.564235,84.2004835 L137.914703,84.2006278 L137.914703,84.6118905 C137.268382,84.59794 136.621504,84.5577623 135.975183,84.5577623 C135.39869,84.5577623 134.833928,84.59794 134.256877,84.6118905 L134.256877,84.2006278 L134.393179,84.2006278 C134.861301,84.2006278 135.150664,84.1453835 135.150664,83.8434932 L135.150664,80.1052989 C135.150664,79.6516264 135.067989,79.5143528 134.723322,79.4591086 C134.571937,79.4323235 134.434517,79.4049804 134.284249,79.3776372 L134.284249,79.0478458 C135.011569,78.9111302 135.755088,78.5947313 136.538828,78.2370388 L136.690772,78.3196261 L136.690772,79.2677068 L136.718703,79.2677068 C136.96617,78.8692785 137.583443,78.2370388 138.299031,78.2370388 Z M77.4023738,81.526527 C76.646006,81.7731731 75.3801792,82.0348857 75.3801792,82.9958009 C75.3801792,83.586747 75.6835084,83.8903113 76.219781,83.8903113 C76.8515771,83.8903113 77.2515471,83.367444 77.4023738,83.1609756 L77.4023738,81.526527 Z M108.103365,81.5205562 C107.34588,81.7683183 106.079495,82.0289149 106.079495,82.9915041 C106.079495,83.5818922 106.383383,83.8848985 106.920214,83.8848985 C107.55201,83.8848985 107.951421,83.3625892 108.103365,83.1566788 L108.103365,81.5205562 Z M70.3166487,78.7378084 C69.4787228,78.7378084 69.0111601,79.5346648 68.8586576,80.3862075 L70.4272549,80.3862075 C71.1702159,80.3862075 71.2802635,80.372257 71.2802635,79.8778488 C71.2802635,79.3555395 70.9361553,78.7378084 70.3166487,78.7378084 Z M131.258331,78.7321165 C130.419288,78.7321165 129.952284,79.528415 129.80034,80.3805157 L131.368937,80.3805157 C132.111898,80.3805157 132.221946,80.3671232 132.221946,79.871599 C132.221946,79.3504057 131.877279,78.7321165 131.258331,78.7321165 Z" id="HealthParterns" fill="#405D6F"></path>
    </g>
</svg>