<?xml version="1.0" encoding="UTF-8"?>
<svg width="160px" height="160px" viewBox="0 0 160 160" version="1.1" xmlns="http://www.w3.org/2000/svg" xmlns:xlink="http://www.w3.org/1999/xlink">
    <!-- Generator: Sketch 63.1 (92452) - https://sketch.com -->
    <title>Assets/Logo/Client/Lifetouch</title>
    <desc>Created with Sketch.</desc>
    <g id="Assets/Logo/Client/Lifetouch" stroke="none" stroke-width="1" fill="none" fill-rule="evenodd">
        <path d="M115.255588,75.5992349 C115.712317,75.5992349 116.164605,75.6412875 116.612452,75.7253928 C117.060298,75.8109735 117.491859,75.9238516 117.906395,76.066978 C118.320931,76.2108422 118.701415,76.3879058 119.047848,76.5974311 C119.395022,76.8084319 119.69556,77.0408279 119.948723,77.2931436 L117.538495,80.074518 C117.301617,79.7712965 116.980352,79.5270963 116.574699,79.3419172 C116.169047,79.1560004 115.754511,79.0637798 115.331833,79.0637798 C114.891389,79.0637798 114.493879,79.1515738 114.139303,79.3286375 C113.783986,79.5057011 113.479007,79.7417859 113.225844,80.0361542 C112.971941,80.331998 112.773556,80.6735832 112.629949,81.0609099 C112.485602,81.4482366 112.413798,81.861385 112.413798,82.2996175 C112.413798,82.7371122 112.48116,83.1509984 112.617365,83.5375873 C112.752089,83.9263895 112.950474,84.2679747 113.21326,84.562343 C113.475305,84.8567113 113.787688,85.0891073 114.151887,85.2573177 C114.515346,85.4270037 114.92544,85.5096334 115.382169,85.5096334 C115.804847,85.5096334 116.223825,85.4306925 116.63836,85.2705975 C117.052156,85.1097647 117.386745,84.8781065 117.639908,84.574885 L119.948723,87.3806056 C119.423891,87.8874502 118.74805,88.2836301 117.918979,88.569883 C117.090648,88.855398 116.21124,89 115.280756,89 C114.28291,89 113.350945,88.8480204 112.485602,88.5440612 C111.621739,88.2408397 110.869653,87.7989184 110.231564,87.2175595 C109.593475,86.6354629 109.091591,85.931635 108.725912,85.1053381 C108.360232,84.279779 108.177392,83.3450306 108.177392,82.2996175 C108.177392,81.2711729 108.360232,80.3438022 108.725912,79.5175053 C109.091591,78.692684 109.593475,77.9888561 110.231564,77.4074972 C110.869653,76.8261383 111.621739,76.3783149 112.485602,76.066978 C113.350945,75.7556411 114.274027,75.5992349 115.255588,75.5992349 Z M61.2268664,75.5997514 C62.1566106,75.5997514 63.0115903,75.7554198 63.7895848,76.0674944 C64.5668391,76.3795691 65.236018,76.8303435 65.7934203,77.4198178 C66.3508227,78.0092922 66.7860851,78.7256621 67.0999478,79.5689275 C67.41233,80.4114553 67.5692613,81.3720254 67.5692613,82.4513757 L67.5692613,82.9567448 C67.5692613,83.125693 67.5603784,83.2857881 67.5440931,83.4377677 L58.3865572,83.4377677 C58.4198681,83.7904194 58.5249825,84.1113472 58.7019004,84.3976001 C58.881039,84.6845907 59.1082933,84.9332175 59.3873646,85.1427428 C59.6664359,85.3544814 59.9788181,85.5182652 60.3267319,85.6363076 C60.6731653,85.7550878 61.0314425,85.814109 61.4045245,85.814109 C62.0640803,85.814109 62.6222229,85.6923778 63.0796926,85.4474398 C63.536422,85.2025018 63.9080235,84.8867383 64.1944973,84.4986739 L67.0881039,86.3187403 C66.4959102,87.1782367 65.7127339,87.8407497 64.740796,88.304804 C63.7673775,88.7681204 62.6385082,88.9997787 61.3541881,88.9997787 C60.4066781,88.9997787 59.5095046,88.8522257 58.6648883,88.5563819 C57.8187915,88.2627513 57.0785493,87.8326343 56.4456422,87.2675062 C55.8105145,86.703116 55.310851,86.0074035 54.9473921,85.1811066 C54.5839332,84.3562852 54.4025738,83.4119459 54.4025738,82.3495642 C54.4025738,81.3218574 54.5794917,80.3907979 54.9355482,79.5556478 C55.2908645,78.7212355 55.7727621,78.012981 56.3819814,77.4316221 C56.9897202,76.8502632 57.7092356,76.4002265 58.5383068,76.0792987 C59.3666378,75.7598464 60.2623309,75.5997514 61.2268664,75.5997514 Z M85.4942254,75.5987185 C86.4580207,75.5987185 87.3611162,75.7506981 88.2079532,76.0546573 C89.0525695,76.3578788 89.7965129,76.7961112 90.4397834,77.3693547 C91.0830538,77.9425982 91.5901197,78.6412617 91.9617213,79.4668209 C92.3340631,80.2938555 92.5198639,81.2204885 92.5198639,82.248933 C92.5198639,83.2773775 92.3340631,84.2076993 91.9617213,85.0428494 C91.5901197,85.8772617 91.0830538,86.5847784 90.4397834,87.1661373 C89.7965129,87.748234 89.0525695,88.1982707 88.2079532,88.5191985 C87.3611162,88.8393885 86.4580207,88.9987458 85.4942254,88.9987458 C84.5467154,88.9987458 83.6458407,88.8393885 82.790861,88.5191985 C81.9366216,88.1982707 81.1926782,87.748234 80.5590309,87.1661373 C79.9246433,86.5847784 79.4220189,85.8772617 79.0496771,85.0428494 C78.6773353,84.2076993 78.4915345,83.2773775 78.4915345,82.248933 C78.4915345,81.2204885 78.6773353,80.2938555 79.0496771,79.4668209 C79.4220189,78.6412617 79.9246433,77.9425982 80.5590309,77.3693547 C81.1926782,76.7961112 81.9366216,76.3578788 82.790861,76.0546573 C83.6458407,75.7506981 84.5467154,75.5987185 85.4942254,75.5987185 Z M98.300711,76.0034564 L98.300711,82.8299968 C98.300711,83.184124 98.325139,83.5212827 98.3762157,83.8414727 C98.4272925,84.1624005 98.5242642,84.4486534 98.6686114,84.7017068 C98.8114781,84.9540225 99.0017204,85.1524813 99.2393381,85.2956077 C99.4762156,85.4387341 99.7885978,85.5102974 100.177225,85.5102974 C100.904883,85.5102974 101.458584,85.2410131 101.839069,84.7017068 C102.220293,84.1624005 102.410536,83.5301359 102.410536,82.8049128 L102.410536,76.0034564 L106.570697,76.0034564 L106.570697,88.5948932 L102.562285,88.5948932 L102.562285,86.8500788 L102.511949,86.8500788 C102.359459,87.1370694 102.161074,87.4063536 101.915314,87.6594071 C101.670293,87.9124605 101.382339,88.1315767 101.053672,88.3167558 C100.723524,88.5026726 100.358584,88.6539144 99.9610742,88.7719568 C99.5635642,88.8892615 99.1460676,88.9490204 98.7063638,88.9490204 C97.8595267,88.9490204 97.1466735,88.7970408 96.5633627,88.4938194 C95.9785714,88.1898602 95.5055566,87.7988447 95.1420977,87.3178218 C94.7771583,86.8375367 94.5158528,86.2901151 94.3552203,85.674819 C94.1938475,85.0595229 94.1146416,84.4316848 94.1146416,83.7913047 L94.1146416,76.0034564 L98.300711,76.0034564 Z M73.6946172,71.8824482 C74.1639307,71.8824482 74.5444152,72.2623972 74.5444152,72.7308781 L74.5444152,76.003604 L77.5135266,76.003604 L77.5135266,79.0881998 L74.5444152,79.0881998 L74.5444152,83.9109702 C74.5444152,84.5033956 74.6584125,84.9467924 74.8871473,85.2441117 C75.1151419,85.5392177 75.5252361,85.6875085 76.1174298,85.6875085 C76.3209964,85.6875085 76.5356666,85.6712777 76.7636612,85.6366027 C76.9931363,85.6026655 77.1826383,85.5532353 77.3351282,85.4846231 L77.3869451,88.5190509 C77.0982507,88.6201248 76.7347918,88.7079188 76.2943477,88.7853841 C75.8553841,88.8598984 75.4156802,88.899 74.9759764,88.899 C74.1298796,88.899 73.4192471,88.792024 72.8448192,88.5810232 C72.2703913,88.3700224 71.8092204,88.0660632 71.4620468,87.6691456 C71.1156135,87.2722279 70.8661519,86.7985828 70.7144022,86.2489478 C70.5611721,85.7000505 70.4856674,85.0877055 70.4856674,84.4126505 L70.4856674,79.0881998 L68.4559234,79.0881998 L68.4559234,76.003604 L70.4597589,76.003604 L70.4597589,71.8824482 L73.6946172,71.8824482 Z M42.6938674,76.0036778 L42.6938674,88.5951145 L38.5337064,88.5951145 L38.5337064,76.0036778 L42.6938674,76.0036778 Z M52.1254409,69 C52.4807571,69 52.8316319,69.0213952 53.1780653,69.0634478 C53.5252388,69.1055004 53.8420625,69.1689482 54.1292764,69.2530534 L53.8509454,72.5397969 C53.6984555,72.4903666 53.5215376,72.4475763 53.3172308,72.4129013 C53.1151447,72.3797019 52.9123183,72.3627333 52.7087517,72.3627333 C52.3208648,72.3627333 52.0062619,72.4306077 51.7701246,72.5648809 C51.5332472,72.7006297 51.3474464,72.8806444 51.2127223,73.1086138 C51.0765177,73.3358454 50.9839875,73.5933254 50.933651,73.8795783 C50.8825743,74.1665689 50.8574061,74.4528218 50.8574061,74.7398124 L50.8574061,76.003604 L53.672547,76.003604 L53.672547,79.0881998 L50.8574061,79.0881998 L50.8574061,88.5950407 L46.6965048,88.5950407 L46.6965048,79.0881998 L44.3876895,79.0881998 L44.3876895,76.003604 L46.6965048,76.003604 L46.6965048,74.7899804 C46.6965048,74.0153271 46.7808924,73.277562 46.9511481,72.5774229 C47.1184429,71.8787594 47.4108385,71.2634633 47.8253741,70.7322724 C48.2391695,70.2010816 48.7973121,69.7798177 49.4998019,69.4677431 C50.2008113,69.1564062 51.0765177,69 52.1254409,69 Z M29.5094881,70.6944989 C29.9817626,70.6944989 30.3629873,71.0751856 30.3629873,71.5444042 L30.3629873,84.8278646 L36.8401063,84.8278646 L36.8401063,88.5948932 L26,88.5948932 L26,70.6944989 L29.5094881,70.6944989 Z M124.849867,69.4808753 C125.322141,69.4808753 125.703366,69.8615621 125.703366,70.3315184 L125.703366,77.597029 L125.755923,77.597029 C126.042397,77.0909222 126.498386,76.6401477 127.124631,76.2439678 C127.749395,75.8485258 128.502221,75.650067 129.382369,75.650067 C130.244751,75.650067 130.968708,75.8013088 131.552019,76.105268 C132.13459,76.4084895 132.608345,76.8002427 132.973284,77.2805278 C133.336003,77.7608129 133.598049,78.3133989 133.758681,78.9368104 C133.919314,79.5602219 134,80.1843712 134,80.8077827 L134,88.5948932 L129.81319,88.5948932 L129.81319,81.7683528 C129.81319,81.4142256 129.788022,81.0770669 129.736945,80.7568769 C129.686609,80.4374246 129.588897,80.1548606 129.44603,79.9106603 C129.302423,79.6657223 129.112181,79.4716901 128.875303,79.3285637 C128.637686,79.1854373 128.333446,79.113874 127.961845,79.113874 C127.234927,79.113874 126.676044,79.3706163 126.287417,79.8848386 C125.898049,80.3990608 125.703366,81.0350143 125.703366,81.7934368 L125.703366,88.5948932 L121.543205,88.5948932 L121.543205,69.4808753 L124.849867,69.4808753 Z M85.4942254,79.0367038 C85.0027046,79.0367038 84.5718837,79.1304 84.1995419,79.315579 C83.8279403,79.5007581 83.5185191,79.7420072 83.2734989,80.0363755 C83.0284788,80.3314815 82.8419377,80.672329 82.7153563,81.0603935 C82.5880347,81.4484579 82.5251141,81.8439 82.5251141,82.248933 C82.5251141,82.653966 82.5880347,83.0494081 82.7153563,83.4367348 C82.8419377,83.8247992 83.0329202,84.1744999 83.2853428,84.4858368 C83.5392459,84.7986492 83.8523683,85.047276 84.2239699,85.232455 C84.5970519,85.4183718 85.0286131,85.5105925 85.5193937,85.5105925 C86.0086937,85.5105925 86.4395147,85.4183718 86.8118565,85.232455 C87.1849385,85.047276 87.498061,84.7986492 87.7512238,84.4858368 C88.0051269,84.1744999 88.1946289,83.8247992 88.3212103,83.4367348 C88.4477917,83.0494081 88.512933,82.653966 88.512933,82.248933 C88.512933,81.8439 88.4440905,81.4484579 88.3093664,81.0603935 C88.1739021,80.672329 87.9792184,80.3314815 87.7253153,80.0363755 C87.4728927,79.7420072 87.1590301,79.5007581 86.7874285,79.315579 C86.4143464,79.1304 85.9835255,79.0367038 85.4942254,79.0367038 Z M61.2520346,78.4563778 C60.8463819,78.4563778 60.4740401,78.5198256 60.1357494,78.6459834 C59.7974588,78.7721413 59.5021022,78.945516 59.2481991,79.1646323 C58.994296,79.3837485 58.7922099,79.6404908 58.63972,79.9355968 C58.4864899,80.2299651 58.4021023,80.5376131 58.3865572,80.8585409 L63.7377678,80.8585409 C63.7377678,80.2004545 63.5305,79.6368019 63.1167047,79.1646323 C62.7029093,78.6917249 62.0803656,78.4563778 61.2520346,78.4563778 Z M40.6137869,69.7083283 C40.935052,69.7083283 41.243733,69.7673495 41.5398298,69.8846541 C41.8359267,70.0034343 42.0890895,70.1635293 42.3022793,70.365677 C42.512508,70.5678246 42.6812833,70.8075982 42.8086049,71.0857357 C42.9351863,71.3638731 42.9988471,71.6634057 42.9988471,71.9835958 C42.9988471,72.3045236 42.9351863,72.6025807 42.8086049,72.8807181 C42.6812833,73.1588556 42.512508,73.399367 42.3022793,73.6015146 C42.0890895,73.8036623 41.8359267,73.9644951 41.5398298,74.0825375 C41.243733,74.1998421 40.935052,74.2588633 40.6137869,74.2588633 C39.9379458,74.2588633 39.3716605,74.0360583 38.9141909,73.5889726 C38.4574614,73.1426247 38.2294668,72.6077451 38.2294668,71.9835958 C38.2294668,71.6796366 38.287946,71.3889571 38.407125,71.1108197 C38.5248235,70.8326823 38.6950792,70.5929086 38.9141909,70.390761 C39.1333025,70.1886133 39.3879458,70.0248295 39.6759,69.8971961 C39.963114,69.7710383 40.2762364,69.7083283 40.6137869,69.7083283 Z" id="Lifetouch" fill="#405D6F"></path>
    </g>
</svg>