<?xml version="1.0" encoding="UTF-8"?>
<svg width="160px" height="160px" viewBox="0 0 160 160" version="1.1" xmlns="http://www.w3.org/2000/svg" xmlns:xlink="http://www.w3.org/1999/xlink">
    <!-- Generator: Sketch 63.1 (92452) - https://sketch.com -->
    <title>Assets/Logo/Client/MAC</title>
    <desc>Created with Sketch.</desc>
    <g id="Assets/Logo/Client/MAC" stroke="none" stroke-width="1" fill="none" fill-rule="evenodd">
        <g id="Logo" transform="translate(30.000000, 30.000000)">
            <path d="M52.9440217,96.5078261 C52.9440217,97.1176087 52.5527174,97.6882609 51.4896739,97.7284783 L50.486413,97.7469565 L50.5070652,99.0263043 L49.561413,99.0654348 L49.4831522,95.4447826 L51.4309783,95.386087 C52.4929348,95.3469565 52.9070652,95.9371739 52.9440217,96.5078261 Z M43.7382609,95.0516304 L46.0795652,95.2690217 C46.8273913,95.3277174 47.2795652,95.8396739 47.2208696,96.3896739 C47.2013043,96.8027174 46.9447826,97.0798913 46.4730435,97.1961957 L46.4730435,97.236413 C46.9252174,97.3548913 47.0241304,97.7472826 47.0241304,98.1222826 C47.0241304,98.3570652 46.9447826,98.7896739 47.1023913,98.986413 L46.1578261,98.9081522 C46.0795652,98.6527174 46.0991304,98.3179348 46.0991304,98.0233696 C46.0795652,97.6298913 45.9023913,97.4527174 45.4306522,97.4125 L44.4665217,97.3342391 L44.3480435,98.7309783 L43.4034783,98.6331522 L43.7382609,95.0516304 Z M59.1626087,96.388913 C59.3202174,97.4128261 58.6506522,98.3573913 57.3332609,98.5726087 C56.0147826,98.7497826 55.0897826,98.0628261 54.9517391,97.0193478 C54.7952174,95.9573913 55.4256522,95.0128261 56.7626087,94.815 C58.1006522,94.6193478 58.9854348,95.3280435 59.1626087,96.388913 Z M40.61,94.4819565 L41.5545652,94.6580435 L40.8458696,98.2004348 L39.9208696,98.0232609 L40.61,94.4819565 Z M56.8604348,95.4845652 C56.0147826,95.6030435 55.7984783,96.2726087 55.8778261,96.8628261 C55.9745652,97.4726087 56.3702174,98.0226087 57.2147826,97.9052174 C58.08,97.7867391 58.3180435,97.1171739 58.2180435,96.5476087 C58.1408696,95.8976087 57.7071739,95.3465217 56.8604348,95.4845652 Z M36.3996739,93.3796739 L37.3040217,93.6546739 L37.8159783,97.5905435 L36.871413,97.2948913 L36.7931522,96.4492391 L35.2388043,95.9970652 L34.6877174,96.6655435 L33.7822826,96.3894565 L36.3996739,93.3796739 Z M64.5723913,94.1077174 C64.6919565,94.5011957 64.5723913,94.8751087 64.178913,95.1501087 L64.178913,95.1707609 C64.631087,95.1501087 64.8691304,95.4457609 64.9854348,95.8001087 C65.0843478,96.0153261 65.2028261,96.4098913 65.4191304,96.5675 L64.4941304,96.8425 C64.3169565,96.6653261 64.2386957,96.2903261 64.1017391,96.0555435 C63.9636957,95.6816304 63.7082609,95.6033696 63.255,95.7207609 L62.3506522,95.9968478 L62.7441304,97.3338043 L61.8386957,97.5903261 L60.8354348,94.1468478 L63.0778261,93.4979348 C63.805,93.2620652 64.4158696,93.5566304 64.5723913,94.1077174 Z M51.1755435,96.0154348 L50.4277174,96.0556522 L50.4472826,97.1176087 L51.1755435,97.1176087 C51.6472826,97.0784783 52.0407609,97.0002174 52.0407609,96.5480435 C52.0016304,96.0752174 51.6081522,96.0154348 51.1755435,96.0154348 Z M44.6241304,95.7407609 L44.5252174,96.7440217 L45.5676087,96.8625 C45.9806522,96.9027174 46.2176087,96.7831522 46.2958696,96.4092391 C46.3154348,96.0559783 46.0991304,95.8788043 45.686087,95.8396739 L44.6241304,95.7407609 Z M36.5768478,94.3829348 L35.671413,95.4851087 L36.7333696,95.7992391 L36.5768478,94.3829348 Z M62.9202174,94.166413 L61.9169565,94.4805435 L62.1930435,95.4457609 L63.1963043,95.1501087 C63.5886957,95.0131522 63.7658696,94.8348913 63.6886957,94.4805435 C63.5886957,94.1468478 63.3136957,94.0490217 62.9202174,94.166413 Z M69.1780435,91.2353261 L69.4128261,91.8255435 L68.2323913,92.3570652 L69.3541304,95.0125 L68.488913,95.3875 L67.3465217,92.7103261 L66.1465217,93.163587 L65.891087,92.5929348 L69.1780435,91.2353261 Z M27.0740217,89.3857609 L27.9196739,89.8379348 L28.3925,92.808587 L28.4120652,92.808587 L29.5338043,90.6846739 L30.3207609,91.0781522 L28.6283696,94.2651087 L27.8022826,93.8129348 L27.3294565,90.8618478 L26.2088043,92.9672826 L25.4011957,92.5531522 L27.0740217,89.3857609 Z M74.1742391,89.7398913 L73.3677174,90.1920652 C73.1122826,89.8377174 72.7579348,89.9170652 72.3644565,90.1344565 C72.0883696,90.2909783 71.8525,90.5659783 71.9905435,90.8409783 C72.128587,91.0790217 72.3253261,90.9790217 73.3872826,90.6453261 C73.701413,90.5659783 74.6068478,90.2322826 75.0003261,90.9594565 C75.3351087,91.5311957 75.0405435,92.2583696 73.9970652,92.8279348 C73.1905435,93.2811957 72.2068478,93.3790217 71.7938043,92.6322826 L72.5807609,92.1594565 C72.8166304,92.5920652 73.3090217,92.5344565 73.7220652,92.298587 C74.0361957,92.1398913 74.4296739,91.8061957 74.253587,91.4703261 C74.0557609,91.1377174 73.4459783,91.4127174 72.8557609,91.5898913 C72.2068478,91.7670652 71.5383696,91.923587 71.2025,91.3148913 C70.8492391,90.6844565 71.4198913,89.9757609 72.0883696,89.5833696 C72.8753261,89.1311957 73.7611957,89.0116304 74.1742391,89.7398913 Z M23.4733696,87.0047826 L24.2603261,87.5569565 L23.5320652,91.471087 L22.7059783,90.9004348 L22.8831522,90.0341304 L21.5842391,89.1113043 L20.8375,89.5819565 L20.0505435,89.0526087 L23.4733696,87.0047826 Z M23.3548913,88.0091304 L22.0961957,88.7754348 L23.0407609,89.4047826 L23.3548913,88.0091304 Z M81.6107609,84.3092391 L80.883587,84.9201087 C80.6075,84.6646739 80.1357609,84.7429348 79.7618478,85.0375 C79.1325,85.6092391 79.2901087,86.2777174 79.683587,86.7679348 C80.0759783,87.2211957 80.706413,87.4581522 81.3357609,86.9266304 C81.8075,86.5527174 81.8281522,86.061413 81.5901087,85.6668478 L82.2803261,85.0777174 C82.7911957,85.8255435 82.5944565,86.7298913 81.8075,87.4375 C80.7651087,88.2842391 79.6238043,88.1646739 78.9553261,87.3798913 C78.2466304,86.5527174 78.306413,85.3918478 79.3488043,84.5451087 C80.0759783,83.9157609 80.981413,83.7592391 81.6107609,84.3092391 Z M18.6727174,83.1294565 L21.3488043,85.4707609 L20.9161957,85.9827174 L19.9118478,85.0968478 L18.0042391,87.3403261 L17.2759783,86.7098913 L19.2238043,84.4870652 L18.2205435,83.641413 L18.6727174,83.1294565 Z M16.6661957,81.0829348 L17.3346739,81.7916304 L14.7379348,84.2720652 L14.0694565,83.5829348 L16.6661957,81.0829348 Z M86.3722826,80.178587 C87.1396739,80.8872826 87.2375,82.0275 86.313587,83.0307609 C85.4483696,84.0340217 84.286413,84.0340217 83.5005435,83.3459783 C82.7125,82.6177174 82.6146739,81.4959783 83.5190217,80.4927174 C84.4440217,79.4894565 85.586413,79.4894565 86.3722826,80.178587 Z M84.011413,80.9459783 C83.4407609,81.5753261 83.6777174,82.2242391 84.1679348,82.6372826 C84.5820652,83.0307609 85.2505435,83.2079348 85.8407609,82.578587 C86.411413,81.9492391 86.1766304,81.3003261 85.7429348,80.9057609 C85.2505435,80.4927174 84.5820652,80.2959783 84.011413,80.9459783 Z M13.4201087,77.2668478 L14.0298913,78.0342391 L11.7472826,79.8440217 L13.0657609,81.5168478 L12.5548913,81.9092391 L10.6266304,79.5483696 L13.4201087,77.2668478 Z M49.8765217,11.0422826 C52.3754348,11.0422826 54.8145652,11.2988043 57.196087,11.7118478 L57.196087,11.7509783 C57.196087,34.8694565 70.1406522,54.9368478 89.2254348,65.1281522 C87.3569565,70.8922826 84.2471739,76.0868478 80.2536957,80.4346739 C71.145,74.9248913 60.4613043,71.7770652 49.0504348,71.7770652 C38.0917391,71.7770652 27.8015217,74.6890217 18.9482609,79.7846739 C15.1906522,75.5738043 12.2982609,70.558587 10.5080435,65.0488043 C29.4743478,54.8183696 42.3808696,34.808587 42.3808696,11.7509783 C44.8004348,11.2988043 47.318913,11.0422826 49.8765217,11.0422826 Z M88.8906522,73.5675 L91.8819565,75.5946739 L91.3895652,76.3229348 L89.2645652,74.9055435 L90.7786957,77.2077174 L90.3471739,77.8175 L87.6895652,77.2653261 L87.6504348,77.3055435 L89.7569565,78.7229348 L89.2645652,79.4501087 L86.2547826,77.4240217 L87.021087,76.3022826 L89.6580435,76.8729348 L89.6580435,76.8533696 L88.1428261,74.6696739 L88.8906522,73.5675 Z M11.176413,73.8038043 C11.9046739,74.9646739 11.6101087,76.0472826 10.6851087,76.6375 C9.8198913,77.188587 8.69815217,76.9320652 7.98945652,75.8103261 C7.26119565,74.6690217 7.57641304,73.5288043 8.44271739,72.9961957 C9.36663043,72.4461957 10.4883696,72.663587 11.176413,73.8038043 Z M8.97315217,73.8038043 C8.44271739,74.1190217 8.08836957,74.7277174 8.54054348,75.4559783 C8.99271739,76.1853261 9.70141304,76.1244565 10.2133696,75.8103261 C10.7242391,75.4766304 11.0981522,74.8657609 10.626413,74.1766304 C10.1731522,73.4494565 9.4851087,73.4701087 8.97315217,73.8038043 Z M91.9986957,67.5075 L95.266087,69.0422826 L94.8715217,69.8694565 L92.5693478,68.7477174 L94.3986957,70.8129348 L94.0856522,71.4825 L91.3497826,71.3444565 L91.3302174,71.3444565 L93.6334783,72.4466304 L93.238913,73.2727174 L89.9921739,71.6792391 L90.5628261,70.4792391 L93.238913,70.6575 L93.238913,70.6172826 L91.4084783,68.6879348 L91.9986957,67.5075 Z M7.75413043,67.3507609 L8.58021739,69.1018478 C8.99326087,70.1051087 8.65956522,70.7138043 8.10847826,70.9507609 C7.59652174,71.2072826 6.90847826,71.0496739 6.45521739,70.0844565 L6.0226087,69.1605435 L4.86173913,69.7116304 L4.46826087,68.8268478 L7.75413043,67.3507609 Z M7.57695652,68.4725 L6.59326087,68.9246739 L6.90847826,69.5931522 C7.08456522,69.9866304 7.32152174,70.321413 7.75413043,70.1051087 C8.16717391,69.9279348 8.08891304,69.5344565 7.91173913,69.1409783 L7.57695652,68.4725 Z M93.0608696,64.4972826 L96.4847826,65.7168478 L96.15,66.5831522 L92.7467391,65.4027174 L93.0608696,64.4972826 Z M62.5656522,54.581413 C59.0058696,54.581413 56.921087,57.2183696 56.921087,60.6031522 C56.921087,63.9270652 59.0058696,66.5640217 62.5656522,66.5640217 C65.3602174,66.5640217 67.3276087,64.733587 67.5645652,61.881413 L65.143913,61.881413 C64.9667391,63.3955435 64.0819565,64.4390217 62.5656522,64.4390217 C60.2841304,64.4390217 59.4384783,62.5303261 59.4384783,60.6031522 C59.4384783,58.6151087 60.2841304,56.7075 62.5656522,56.7075 C63.8069565,56.7075 64.9080435,57.5520652 65.045,58.6944565 L67.4841304,58.6944565 C67.17,56.0575 65.045,54.581413 62.5656522,54.581413 Z M52.4928261,54.8379348 L49.9156522,54.8379348 L45.5873913,66.2879348 L48.145,66.2879348 L49.0102174,63.7303261 L53.2797826,63.7303261 L54.1656522,66.2879348 L56.7623913,66.2879348 L52.4928261,54.8379348 Z M35.8091304,54.8379348 L32.2678261,54.8379348 L32.2678261,66.2879348 L34.6286957,66.2879348 L34.6286957,58.2803261 L34.6678261,58.2803261 L37.4623913,66.2879348 L39.3895652,66.2879348 L42.1841304,58.1825 L42.2232609,58.1825 L42.2232609,66.2879348 L44.5841304,66.2879348 L44.5841304,54.8379348 L41.0428261,54.8379348 L38.5243478,62.7075 L38.4852174,62.7075 L35.8091304,54.8379348 Z M6.45478261,63.4347826 C6.84826087,64.7152174 6.29717391,65.7184783 5.25478261,66.0130435 C4.27108696,66.3478261 3.22869565,65.8358696 2.83521739,64.5565217 C2.44173913,63.2782609 2.99282609,62.276087 3.99608696,61.9402174 C5.01891304,61.6456522 6.06130435,62.1565217 6.45478261,63.4347826 Z M4.29065217,62.8652174 C3.72,63.0423913 3.22869565,63.5347826 3.46456522,64.3402174 C3.72,65.1673913 4.40913043,65.2847826 4.99934783,65.1076087 C5.58956522,64.9108696 6.06130435,64.4402174 5.80586957,63.6119565 C5.57,62.8054348 4.86130435,62.6673913 4.29065217,62.8652174 Z M95.5801087,59.4822826 L95.3638043,60.4051087 C94.9301087,60.3072826 94.7333696,60.6409783 94.6366304,61.0942391 C94.5366304,61.4083696 94.5757609,61.7627174 94.871413,61.8225 C95.1268478,61.8822826 95.2061957,61.7040217 95.6975,60.7018478 C95.8551087,60.4051087 96.248587,59.521413 97.0366304,59.6975 C97.6648913,59.8540217 97.9996739,60.5822826 97.7246739,61.7442391 C97.4888043,62.6681522 96.8779348,63.4355435 96.0322826,63.2192391 L96.248587,62.3138043 C96.721413,62.4322826 96.996413,62.0388043 97.1138043,61.546413 C97.2138043,61.2127174 97.2518478,60.7018478 96.9170652,60.6018478 C96.523587,60.5246739 96.3072826,61.1540217 95.9942391,61.7442391 C95.7170652,62.3138043 95.3638043,62.8844565 94.6942391,62.7268478 C94.0061957,62.5496739 93.848587,61.6648913 94.0257609,60.9170652 C94.2420652,60.0311957 94.7529348,59.3040217 95.5801087,59.4822826 Z M51.1743478,57.6705435 L52.6113043,61.8618478 L49.6797826,61.8618478 L51.1558696,57.6705435 L51.1743478,57.6705435 Z M4.68434783,55.9795652 L5.07782609,58.2806522 C5.19630435,59.0676087 4.84195652,59.6186957 4.33108696,59.6969565 C3.8973913,59.7567391 3.54413043,59.6382609 3.2876087,59.186087 C3.26804348,59.6784783 2.93326087,59.8545652 2.56043478,59.9534783 C2.34304348,60.0121739 1.93,60.0708696 1.75391304,60.2871739 L1.59630435,59.3436957 C1.8126087,59.186087 2.14630435,59.1263043 2.40282609,59.0284783 C2.77673913,58.91 2.93326087,58.6936957 2.83543478,58.2415217 L2.67782609,57.2969565 L1.28108696,57.5523913 L1.14304348,56.608913 L4.68434783,55.9795652 Z M4.23217391,57.0219565 L3.22891304,57.2186957 L3.40608696,58.2219565 C3.46478261,58.635 3.68108696,58.8513043 4.01586957,58.7926087 C4.38978261,58.733913 4.46804348,58.4969565 4.40934783,58.0643478 L4.23217391,57.0219565 Z M96.386413,54.1091304 L96.2679348,55.0352174 C95.8157609,55.0352174 95.6581522,55.368913 95.6005435,55.8221739 C95.5798913,56.1167391 95.6396739,56.4906522 95.9342391,56.5091304 C96.2092391,56.5493478 96.2679348,56.371087 96.6429348,55.3102174 C96.7603261,54.996087 97.0353261,54.0515217 97.8418478,54.1884783 C98.511413,54.2482609 98.9059783,54.9363043 98.7679348,56.0971739 C98.6483696,57.0613043 98.1570652,57.8873913 97.2722826,57.7493478 L97.3896739,56.845 C97.8418478,56.9036957 98.0983696,56.4906522 98.1570652,55.9797826 C98.2157609,55.6645652 98.1777174,55.1515217 97.8222826,55.093913 C97.4288043,55.0352174 97.311413,55.6645652 97.0548913,56.293913 C96.8581522,56.9036957 96.5831522,57.5134783 95.8744565,57.4547826 C95.1472826,57.3569565 94.9103261,56.4906522 94.9896739,55.7036957 C95.1266304,54.818913 95.5396739,54.0308696 96.386413,54.1091304 Z M4.29086957,50.6081522 L4.46804348,54.1092391 L3.79956522,54.1896739 L3.73978261,52.8711957 L0.80826087,53.0277174 L0.749565217,52.0831522 L3.68108696,51.9059783 L3.6223913,50.6266304 L4.29086957,50.6081522 Z M95.4618478,50.9221739 L99.0629348,51.0602174 L99.0422826,51.9852174 L95.4227174,51.8667391 L95.4618478,50.9221739 Z M0.868152174,45.4332609 L4.46815217,45.6495652 L4.29097826,48.856087 L3.6225,48.8376087 L3.7398913,46.555 L2.99206522,46.4952174 L2.87467391,48.581087 L2.22576087,48.5626087 L2.38228261,46.456087 L1.47793478,46.3973913 L1.3398913,48.7386957 L0.690978261,48.7006522 L0.868152174,45.4332609 Z M99.0611957,46.5154348 C99.1611957,47.8545652 98.3731522,48.6991304 97.3307609,48.758913 C96.2481522,48.8578261 95.3644565,48.1295652 95.2644565,46.7904348 C95.1861957,45.4328261 95.9720652,44.6067391 97.0361957,44.5284783 C98.0579348,44.4491304 98.9633696,45.1784783 99.0611957,46.5154348 Z M97.0948913,45.4915217 C96.4840217,45.5121739 95.8753261,45.885 95.9329348,46.7328261 C95.9938043,47.5784783 96.6427174,47.8545652 97.2720652,47.8328261 C97.8416304,47.7936957 98.453587,47.4393478 98.3938043,46.5741304 C98.3340217,45.7295652 97.703587,45.4328261 97.0948913,45.4915217 Z M2.04826087,38.2142391 L5.57,38.8816304 L5.33413043,40.1805435 L2.6776087,40.7305435 L4.96021739,42.1479348 L4.68521739,43.466413 L1.14282609,42.7577174 L1.32,41.9109783 L3.83847826,42.4033696 L3.83847826,42.3642391 L1.53630435,40.8501087 L1.65478261,40.1218478 L4.35043478,39.5707609 L4.35043478,39.5501087 L1.87108696,39.0588043 L2.04826087,38.2142391 Z M97.7628261,38.3898913 L97.941087,39.3344565 L95.9345652,41.5377174 L95.9345652,41.5768478 L98.315,41.0855435 L98.491087,41.971413 L94.9302174,42.6594565 L94.7530435,41.7540217 L96.7791304,39.5116304 L96.7606522,39.4920652 L94.3997826,39.9648913 L94.2019565,39.0790217 L97.7628261,38.3898913 Z M94.6351087,29.6541304 L95.028587,30.54 L92.2948913,31.6802174 L93.1198913,33.6280435 L92.5101087,33.863913 L91.3296739,31.0508696 L94.6351087,29.6541304 Z M6.4551087,26.861413 L9.72141304,28.4146739 L9.32793478,29.2222826 L7.02576087,28.1396739 L8.87467391,30.2059783 L8.5801087,30.8744565 L5.84532609,30.736413 L5.80619565,30.736413 L8.10836957,31.838587 L7.7148913,32.6255435 L4.46815217,31.0711957 L5.05836957,29.8907609 L7.7148913,30.0092391 L5.90402174,28.0809783 L6.4551087,26.861413 Z M91.6842391,24.0673913 L92.136413,24.8934783 L90.2092391,25.976087 C89.8353261,26.1923913 89.5603261,26.4869565 89.9527174,27.1565217 C90.288587,27.7467391 90.6027174,27.8054348 91.0744565,27.55 L93.0222826,26.4282609 L93.5146739,27.2543478 L91.5461957,28.376087 C90.6809783,28.8673913 89.9342391,28.4934783 89.3831522,27.4902174 C88.811413,26.4673913 88.8701087,25.6402174 89.7168478,25.1695652 L91.6842391,24.0673913 Z M8.30423913,23.7911957 L11.3933696,25.681413 L10.8825,26.4879348 L7.81293478,24.5792391 L8.30423913,23.7911957 Z M88.9301087,20.1322826 L89.5007609,20.8811957 L87.5909783,24.3420652 L86.9822826,23.5561957 L87.4355435,22.8279348 L86.471413,21.5094565 L85.6246739,21.7257609 L85.0529348,20.9790217 L88.9301087,20.1322826 Z M11.9638043,18.6759783 L14.8170652,20.8596739 L14.246413,21.608587 L11.2366304,21.5879348 L13.1453261,23.0640217 L12.6138043,23.7727174 L9.72141304,21.5879348 L10.2920652,20.8205435 L13.3409783,20.8596739 L11.4333696,19.3651087 L11.9638043,18.6759783 Z M88.496413,21.0366304 L87.1007609,21.371413 L87.7681522,22.2768478 L88.496413,21.0366304 Z M16.3120652,14.0330435 L18.8501087,16.571087 L18.1816304,17.2406522 L15.2109783,16.846087 L16.9218478,18.5395652 L16.3120652,19.1884783 L13.7348913,16.6308696 L14.4033696,15.9623913 L17.3946739,16.393913 L17.3946739,16.3547826 L15.6631522,14.6623913 L16.3120652,14.0330435 Z M84.581413,15.1555435 L85.9194565,16.5718478 C86.6879348,17.3588043 86.5292391,18.066413 86.1172826,18.4598913 C85.6846739,18.8533696 84.9759783,18.9316304 84.2477174,18.1457609 L83.5596739,17.4175 L82.6151087,18.3022826 L81.9857609,17.6142391 L84.581413,15.1555435 Z M84.7988043,16.2761957 L84.0118478,17.0044565 L84.5238043,17.5359783 C84.8379348,17.8490217 85.131413,18.0870652 85.4672826,17.791413 C85.8009783,17.4566304 85.6238043,17.1218478 85.3096739,16.7881522 L84.7988043,16.2761957 Z M20.8569565,10.2552174 L21.2895652,10.7878261 L19.4602174,12.2030435 L19.9515217,12.813913 L21.5852174,11.515 L21.9786957,11.9878261 L20.345,13.3052174 L20.896087,13.9943478 L22.7058696,12.5378261 L23.1395652,13.0497826 L20.5613043,15.0954348 L18.318913,12.2628261 L20.8569565,10.2552174 Z M77.4595652,9.2326087 L80.3519565,11.3184783 L79.938913,11.8684783 L78.8758696,11.101087 L77.165,13.4826087 L76.3976087,12.8923913 L78.1291304,10.5315217 L77.065,9.78369565 L77.4595652,9.2326087 Z M24.7725,7.67793478 L28.0583696,9.92141304 L27.1920652,10.4529348 L26.5040217,9.92141304 L25.1061957,10.7866304 L25.2638043,11.6333696 L24.4181522,12.1442391 L23.946413,8.1898913 L24.7725,7.67793478 Z M72.3248913,6.16358696 L73.1509783,6.6548913 L73.5444565,9.62771739 L73.5444565,9.64619565 L74.7248913,7.54184783 L75.5118478,7.95380435 L73.7216304,11.1016304 L72.9151087,10.6494565 L72.5216304,7.65923913 L71.3216304,9.74402174 L70.5346739,9.33097826 L72.3248913,6.16358696 Z M24.8311957,8.72141304 L24.8116304,8.72141304 L25.0083696,10.1377174 L25.9920652,9.56815217 L24.8311957,8.72141304 Z M31.7558696,5.47413043 C31.9928261,5.98608696 31.8352174,6.67521739 30.871087,7.12847826 L29.9656522,7.56 L30.5167391,8.72195652 L29.6319565,9.11434783 L28.1363043,5.82956522 L29.9069565,5.02195652 C30.9102174,4.59043478 31.5004348,4.92413043 31.7558696,5.47413043 Z M69.0586957,4.68815217 L69.9434783,5.08163043 L68.5076087,8.38706522 L67.6217391,7.99358696 L69.0586957,4.68815217 Z M64.6328261,3.03586957 L65.5382609,3.35 L65.9697826,7.28478261 L65.0263043,6.95 L64.9665217,6.10434783 L63.4132609,5.5923913 L62.8621739,6.26195652 L61.9176087,5.94673913 L64.6328261,3.03586957 Z M29.9265217,5.67086957 L29.2580435,6.00673913 L29.7102174,6.99043478 L30.3786957,6.67521739 C30.7721739,6.49913043 31.1069565,6.26108696 30.9297826,5.82956522 C30.7134783,5.41652174 30.32,5.49478261 29.9265217,5.67086957 Z M38.0133696,4.07934783 C38.3079348,5.08152174 37.7970652,6.10434783 36.5177174,6.49782609 C35.2394565,6.89130435 34.2351087,6.32065217 33.9405435,5.3173913 C33.6057609,4.31413043 34.1177174,3.29130435 35.3959783,2.89891304 C36.6948913,2.48478261 37.678587,3.03695652 38.0133696,4.07934783 Z M35.6122826,3.52717391 C34.7861957,3.76304348 34.6688043,4.4326087 34.8459783,5.0423913 C35.0220652,5.61304348 35.5144565,6.10434783 36.301413,5.86847826 C37.1275,5.59347826 37.2851087,4.92391304 37.0883696,4.35326087 C36.9111957,3.74347826 36.4198913,3.25217391 35.6122826,3.52717391 Z M64.81,4.03913043 L64.7708696,4.03913043 L63.8447826,5.10108696 L64.9078261,5.475 L64.81,4.03913043 Z M59.3394565,1.61836957 C60.2253261,1.79554348 60.9927174,2.28793478 60.7959783,3.0748913 L59.9296739,2.91728261 C59.9503261,2.4651087 59.6144565,2.28793478 59.1622826,2.22923913 C58.8872826,2.16945652 58.5340217,2.18902174 58.4731522,2.48467391 C58.3959783,2.75967391 58.5927174,2.81945652 59.6144565,3.29119565 C59.9296739,3.40967391 60.8340217,3.74336957 60.6775,4.5498913 C60.5590217,5.1998913 59.8307609,5.55423913 58.6709783,5.33684783 C57.7470652,5.15967391 56.9383696,4.5901087 57.1361957,3.74336957 L58.0416304,3.88141304 C57.9427174,4.37271739 58.3361957,4.64880435 58.828587,4.74663043 C59.1622826,4.8075 59.6742391,4.82597826 59.7731522,4.47163043 C59.8307609,4.07815217 59.201413,3.88141304 58.6111957,3.62597826 C58.0025,3.36945652 57.4122826,3.03576087 57.528587,2.36619565 C57.6666304,1.63902174 58.553587,1.46184783 59.3394565,1.61836957 Z M40.826413,1.61836957 L41.3372826,4.53141304 L43.4427174,4.15641304 L43.5220652,4.80641304 L40.5307609,5.33793478 L39.8818478,1.79554348 L40.826413,1.61836957 Z M46.138587,0.911195652 L46.4331522,4.53076087 L45.4896739,4.60902174 L45.1940217,1.00902174 L46.138587,0.911195652 Z M50.2107609,0.693586957 C51.1161957,0.693586957 51.9422826,1.02945652 51.9422826,1.89467391 L51.0368478,1.85554348 C50.9977174,1.4425 50.6444565,1.30445652 50.1911957,1.30445652 C49.8770652,1.30445652 49.5422826,1.4425 49.5422826,1.73706522 C49.5422826,2.01206522 49.7390217,2.03271739 50.781413,2.28706522 C51.1161957,2.34793478 52.0998913,2.5251087 52.0998913,3.35119565 C52.0607609,4.01967391 51.4509783,4.49141304 50.2694565,4.49141304 C49.3259783,4.47293478 48.4401087,4.07728261 48.4401087,3.1925 L49.3846739,3.1925 C49.3846739,3.68380435 49.7977174,3.86097826 50.3096739,3.86097826 C50.6444565,3.86097826 51.1553261,3.80336957 51.1553261,3.42945652 C51.1553261,3.0348913 50.506413,2.95663043 49.8770652,2.81858696 C49.2661957,2.68054348 48.5977174,2.46423913 48.6172826,1.79576087 C48.6172826,1.02945652 49.4433696,0.693586957 50.2107609,0.693586957 Z" id="Combined-Shape" fill="#405D6F"></path>
            <path d="M56.5459783,72.9773913 C57.4307609,73.4882609 57.451413,80.0404348 57.4307609,80.5317391 C58.5525,81.6534783 62.7633696,82.7154348 65.2220652,84.2893478 L65.1829348,84.8208696 L58.5329348,83.4436957 L57.4720652,83.4045652 L57.3916304,84.4665217 C57.2144565,86.6502174 57.1166304,87.5752174 57.0775,88.8545652 C57.9427174,89.7991304 58.5525,90.5273913 58.6905435,91.4904348 L58.1992391,91.4904348 C57.5101087,91.2154348 56.6644565,90.586087 56.5459783,90.586087 C56.4296739,90.586087 55.601413,91.2154348 54.8938043,91.4904348 L54.401413,91.4904348 C54.5394565,90.5273913 55.1492391,89.7991304 56.0144565,88.8545652 C55.9948913,87.5752174 55.8970652,86.6502174 55.7198913,84.4665217 L55.6405435,83.4045652 L54.578587,83.4436957 L47.9481522,84.8208696 L47.9090217,84.2893478 C50.3481522,82.7154348 54.5394565,81.6534783 55.6807609,80.5317391 C55.6405435,80.0404348 55.6611957,73.4882609 56.5459783,72.9773913 Z M31.7763043,81.3780435 C32.0719565,81.5356522 32.0719565,83.6791304 32.0719565,83.8552174 C32.4447826,84.2095652 33.8219565,84.565 34.6295652,85.0758696 L34.608913,85.2530435 L32.4252174,84.7997826 L32.0915217,84.7997826 L32.0513043,85.1356522 C31.9926087,85.863913 31.9730435,86.1573913 31.9534783,86.5715217 C32.2480435,86.8856522 32.4447826,87.1215217 32.485,87.4367391 L32.3273913,87.4367391 C32.0915217,87.3584783 31.8154348,87.1421739 31.7763043,87.1421739 C31.7371739,87.1421739 31.461087,87.3584783 31.2447826,87.4367391 L31.0871739,87.4367391 C31.1273913,87.1215217 31.3241304,86.8856522 31.6186957,86.5715217 C31.5991304,86.1573913 31.56,85.863913 31.5013043,85.1356522 L31.4817391,84.7997826 L31.1273913,84.7997826 L28.9632609,85.2530435 L28.9436957,85.0758696 C29.7502174,84.565 31.1273913,84.2095652 31.5013043,83.8552174 C31.4817391,83.6791304 31.5013043,81.5356522 31.7763043,81.3780435 Z M86.1167391,51.2967391 C86.3917391,51.4554348 86.4113043,53.6184783 86.3917391,53.775 C86.7656522,54.148913 88.1428261,54.4836957 88.9482609,55.0152174 L88.9297826,55.1728261 L86.746087,54.7391304 L86.4113043,54.7195652 L86.371087,55.0543478 C86.3134783,55.7826087 86.293913,56.0771739 86.2743478,56.5108696 C86.568913,56.8054348 86.7656522,57.0413043 86.8058696,57.3565217 L86.6482609,57.3565217 C86.4113043,57.2782609 86.1558696,57.0608696 86.1167391,57.0608696 C86.0776087,57.0608696 85.8026087,57.2782609 85.5656522,57.3565217 L85.4080435,57.3565217 C85.4482609,57.0413043 85.643913,56.8054348 85.9395652,56.5108696 C85.918913,56.0771739 85.9004348,55.7826087 85.8417391,55.0543478 L85.8026087,54.7195652 L85.4667391,54.7391304 L83.2841304,55.1728261 L83.2634783,55.0152174 C84.071087,54.4836957 85.4482609,54.148913 85.821087,53.775 C85.8026087,53.6184783 85.821087,51.4554348 86.1167391,51.2967391 Z M10.9017391,48.1090217 C11.1973913,48.2677174 11.1973913,50.3927174 11.1973913,50.5481522 C11.5702174,50.9231522 12.9473913,51.276413 13.755,51.7883696 L13.7343478,51.9655435 L11.5506522,51.5133696 L11.2169565,51.4938043 L11.1767391,51.8470652 C11.1180435,52.5557609 11.0984783,52.8698913 11.078913,53.2829348 C11.3734783,53.5981522 11.5702174,53.8351087 11.6104348,54.1503261 L11.4528261,54.1503261 C11.2169565,54.051413 10.9408696,53.853587 10.9017391,53.853587 C10.8626087,53.853587 10.5865217,54.051413 10.3702174,54.1503261 L10.2126087,54.1503261 C10.2528261,53.8351087 10.4495652,53.5981522 10.7245652,53.2829348 C10.7245652,52.8698913 10.6854348,52.5557609 10.6267391,51.8470652 L10.606087,51.4938043 L10.2528261,51.5133696 L8.06804348,51.9655435 L8.06804348,51.7883696 C8.87565217,51.276413 10.2528261,50.9231522 10.6267391,50.5481522 C10.606087,50.3927174 10.6267391,48.2677174 10.9017391,48.1090217 Z M26.0119565,26.6246739 C27.1141304,27.2540217 27.1336957,35.3996739 27.0945652,36.0290217 C28.5108696,37.4268478 33.7434783,38.7442391 36.7934783,40.7116304 L36.7543478,41.3801087 L28.4717391,39.6692391 L27.1532609,39.6290217 L27.0347826,40.9279348 C26.8184783,43.6431522 26.701087,44.8051087 26.6608696,46.3975 C27.7434783,47.5779348 28.5108696,48.4822826 28.6684783,49.6833696 L28.0576087,49.6833696 C27.1923913,49.3290217 26.15,48.5627174 26.0119565,48.5627174 C25.8543478,48.5627174 24.8119565,49.3290217 23.9456522,49.6833696 L23.3358696,49.6833696 C23.5130435,48.4822826 24.2608696,47.5779348 25.3434783,46.3975 C25.3032609,44.8051087 25.1858696,43.6431522 24.9695652,40.9279348 L24.8706522,39.6290217 L23.5521739,39.6692391 L15.25,41.3801087 L15.2108696,40.7116304 C18.2597826,38.7442391 23.5130435,37.4268478 24.9293478,36.0290217 C24.8706522,35.3996739 24.9097826,27.2540217 26.0119565,26.6246739 Z M71.8132609,20.6633696 C72.1078261,20.8405435 72.1078261,22.9861957 72.1078261,23.1427174 C72.4828261,23.5166304 73.86,23.851413 74.6665217,24.3818478 L74.6447826,24.5590217 L72.4632609,24.1057609 L72.1078261,24.0861957 L72.0893478,24.4416304 C72.0295652,25.1492391 71.9904348,25.4633696 71.9904348,25.8775 C72.2654348,26.1916304 72.4828261,26.428587 72.5208696,26.7427174 L72.3643478,26.7427174 C72.1284783,26.6438043 71.8523913,26.4470652 71.8132609,26.4470652 C71.7741304,26.4470652 71.4991304,26.6438043 71.2828261,26.7427174 L71.1056522,26.7427174 C71.1632609,26.428587 71.361087,26.1916304 71.636087,25.8775 C71.636087,25.4633696 71.5969565,25.1492391 71.5382609,24.4416304 L71.5186957,24.0861957 L71.1632609,24.1057609 L68.9806522,24.5590217 L68.9806522,24.3818478 C69.7871739,23.851413 71.1632609,23.5166304 71.5382609,23.1427174 C71.5186957,22.9861957 71.5186957,20.8405435 71.8132609,20.6633696 Z M38.583587,9.40956522 C38.8988043,9.58673913 38.8988043,11.888913 38.8792391,12.066087 C39.2922826,12.4606522 40.7672826,12.8323913 41.6129348,13.3834783 L41.6129348,13.5606522 L39.2727174,13.09 L38.8988043,13.0693478 L38.8792391,13.4432609 C38.8194565,14.2095652 38.7803261,14.5247826 38.7607609,14.9769565 C39.0759783,15.3128261 39.2922826,15.5671739 39.331413,15.9030435 L39.1542391,15.9030435 C38.9183696,15.8041304 38.6227174,15.5878261 38.583587,15.5878261 C38.5444565,15.5878261 38.2488043,15.8041304 37.9933696,15.9030435 L37.8357609,15.9030435 C37.8748913,15.5671739 38.0911957,15.3128261 38.3868478,14.9769565 C38.3868478,14.5247826 38.3477174,14.2095652 38.2879348,13.4432609 L38.2488043,13.0693478 L37.8944565,13.09 L35.5542391,13.5606522 L35.533587,13.3834783 C36.3998913,12.8323913 37.8748913,12.4606522 38.2683696,12.066087 L38.268802,11.9341552 C38.2722611,11.4035534 38.3033937,9.56705314 38.583587,9.40956522 Z" id="Combined-Shape" fill="#B3BEC5"></path>
        </g>
    </g>
</svg>