<?xml version="1.0" encoding="UTF-8"?>
<svg width="160px" height="160px" viewBox="0 0 160 160" version="1.1" xmlns="http://www.w3.org/2000/svg" xmlns:xlink="http://www.w3.org/1999/xlink">
    <!-- Generator: Sketch 63.1 (92452) - https://sketch.com -->
    <title>Assets/Logo/Client/Medtronic</title>
    <desc>Created with Sketch.</desc>
    <g id="Assets/Logo/Client/Medtronic" stroke="none" stroke-width="1" fill="none" fill-rule="evenodd">
        <path d="M53.9181388,79.4164026 C53.7644323,77.5017707 52.767023,76.3778192 50.7419118,76.3778192 C48.872751,76.3778192 47.7205132,77.5520969 47.5140753,79.4164026 L53.9181388,79.4164026 Z M56.9417812,80.1321528 C56.9417812,80.7438956 56.8901718,81.3835974 56.7880747,81.8946878 L47.5656848,81.8946878 C47.9000245,83.4257223 49.2048468,84.3707363 51.6641508,84.3707363 C51.6753702,84.3707363 51.6865897,84.3707363 51.6978091,84.3696179 L51.72137,84.3696179 C51.8784423,84.3684995 52.028783,84.3640261 52.1791237,84.3550792 C52.2599037,84.3506058 52.3418057,84.345014 52.4214638,84.3383038 C52.4865367,84.3338304 52.5482436,84.3282386 52.6110726,84.3226468 C53.6354086,84.2186393 54.6081351,83.9446412 55.5023255,83.5286114 C55.573008,83.4939422 55.6436906,83.4603914 55.7121292,83.4257223 L55.7132512,83.4257223 C55.8938844,83.3362535 56.0689078,83.2356011 56.2428094,83.132712 L56.3224675,83.132712 L56.3224675,85.7183597 C54.9716454,86.5314073 53.3897026,87 51.6978091,87 L51.6978091,86.9932898 C51.6338583,86.9944082 51.5732732,87 51.5104443,87 C46.8756885,87 44.3378483,84.3707363 44.3378483,80.5403541 C44.3378483,76.4292637 46.9508588,73.7228332 50.7419118,73.7228332 C54.5329648,73.7228332 56.9417812,76.4046598 56.9417812,80.1321528 L56.9417812,80.1321528 Z M25,86.745014 L28.1493003,86.745014 L28.7394435,75.7403541 L28.8662233,72.7520969 L28.9189548,72.7520969 L29.5853902,75.7403541 L32.1467912,86.745014 L36.0904288,86.745014 L38.6776345,75.7403541 L39.3182653,72.7520969 L39.3687528,72.7520969 L39.4966546,75.7403541 L40.1114806,86.745014 L43.3909265,86.745014 L42.314981,69.127493 L37.0889601,69.127493 L34.732875,79.6971109 L34.2201461,82.3778192 L34.1685366,82.3778192 L33.6311248,79.6971109 L31.2750398,69.127493 L26.0490188,69.127493 L25,86.745014 Z M79.2269797,87 C76.2818734,87 74.6157847,85.6467847 74.6157847,82.582479 L74.6157847,76.5567568 L71.0805353,76.5567568 L71.0805353,82.9671948 C71.0805353,83.9110904 71.4395577,84.2935694 72.2080902,84.2935694 C72.3864795,84.2935694 72.5929175,84.2935694 72.8229162,84.2421249 L72.8992085,84.2421249 L72.8992085,86.7461323 C72.5929175,86.8210624 71.9780915,86.8971109 71.516972,86.8971109 C69.7757129,86.8971109 68.6986455,86.2350419 68.238648,84.7800559 C67.3141651,86.2082013 65.8556362,87 64.0380849,87 C60.7821998,87 58.1456285,84.472507 58.1456285,80.3356943 C58.1456285,76.2503262 60.7821998,73.7228332 64.0380849,73.7228332 C65.6491983,73.7228332 66.9831912,74.3356943 67.9043083,75.4585275 L67.9043083,69.127493 L71.0805353,69.127493 L71.0805353,73.9789376 L74.6157847,73.9789376 L74.6157847,70.9403541 L77.7920117,70.9403541 L77.7920117,73.9789376 L81.1982375,73.9789376 L81.1982375,76.5567568 L77.7920117,76.5567568 L77.7920117,82.4292637 C77.7920117,83.7064306 78.4326425,84.3204101 79.6622945,84.3204101 C80.225511,84.3204101 80.6092163,84.2689655 81.1219452,84.1414725 L81.1982375,84.1414725 L81.1982375,86.7461323 C80.5845335,86.8971109 79.8406838,87 79.2269797,87 L79.2269797,87 Z M64.7022765,84.3204101 C66.8541675,84.3204101 68.0591367,82.6596459 68.0591367,80.3356943 C68.0591367,78.0385834 66.8541675,76.3778192 64.7022765,76.3778192 C62.5245808,76.3778192 61.3981478,78.0385834 61.3981478,80.3356943 C61.3981478,82.6596459 62.5245808,84.3204101 64.7022765,84.3204101 L64.7022765,84.3204101 Z M85.7836278,80.054986 C85.7836278,77.9871389 86.8595733,76.8374651 88.9093672,76.8374651 C89.2672678,76.8374651 89.6532169,76.8889096 90.0099955,76.9906803 L90.061605,76.9906803 L90.061605,74.0303821 C89.7283873,73.9006524 89.2930725,73.8246039 88.8072702,73.8246039 C87.2702052,73.8246039 86.2447473,74.7707363 85.655726,76.3028891 L85.655726,73.9789376 L82.6074008,73.9789376 L82.6074008,86.7461323 L85.7836278,86.7461323 L85.7836278,80.054986 Z M96.8504957,87 C92.8294439,87 90.1132145,84.090028 90.1132145,80.3625349 C90.1132145,76.6339236 92.8294439,73.7228332 96.8504957,73.7228332 C100.845743,73.7228332 103.56085,76.6339236 103.56085,80.3625349 C103.56085,84.090028 100.845743,87 96.8504957,87 L96.8504957,87 Z M96.8504957,84.2689655 C99.1291665,84.2689655 100.308331,82.6082013 100.308331,80.3625349 C100.308331,78.1146319 99.1291665,76.454986 96.8504957,76.454986 C94.6211905,76.454986 93.3657338,78.1146319 93.3657338,80.3625349 C93.3657338,82.6082013 94.6211905,84.2689655 96.8504957,84.2689655 L96.8504957,84.2689655 Z M108.436824,79.6221808 C108.436824,77.6561044 109.435356,76.3778192 111.278712,76.3778192 C113.097385,76.3778192 113.943332,77.5778192 113.943332,79.6221808 L113.943332,86.7461323 L117.119559,86.7461323 L117.119559,79.4924511 C117.119559,76.4292637 115.532006,73.7228332 112.073049,73.7228332 C110.229693,73.7228332 109.001163,74.6410065 108.308923,76.0221808 L108.308923,73.9789376 L105.260597,73.9789376 L105.260597,86.7461323 L108.436824,86.7461323 L108.436824,79.6221808 Z M122.729285,70.8643057 C122.729285,71.8853681 121.910265,72.7520969 120.835441,72.7520969 C119.808861,72.7520969 118.965159,71.8853681 118.965159,70.8643057 C118.965159,69.8410065 119.808861,69 120.835441,69 C121.910265,69 122.729285,69.8410065 122.729285,70.8643057 L122.729285,70.8643057 Z M124.496349,86.7461323 C124.011668,86.8479031 123.44733,86.9239515 122.934601,86.9239515 C120.502223,86.9239515 119.195157,85.6467847 119.195157,83.2982293 L119.195157,73.9789376 L122.396067,73.9789376 L122.396067,83.0689655 C122.396067,83.9110904 122.805577,84.3204101 123.677329,84.3204101 C123.881523,84.3204101 124.138448,84.2935694 124.420056,84.2421249 L124.496349,84.2421249 L124.496349,86.7461323 Z M124.804884,80.3625349 C124.804884,76.6339236 127.519991,73.7228332 131.566848,73.7228332 C132.719085,73.7228332 134.026152,74.0035415 135,74.5403541 L135,77.3485555 L134.922586,77.3485555 C133.924055,76.7602982 132.924401,76.4795899 131.796846,76.4795899 C129.363347,76.4795899 128.057403,78.1403541 128.057403,80.3625349 C128.057403,82.582479 129.363347,84.2421249 131.796846,84.2421249 C132.924401,84.2421249 133.924055,83.9614166 134.922586,83.3742777 L135,83.3742777 L135,86.1835974 C134.026152,86.7192917 132.719085,87 131.566848,87 C127.519991,87 124.804884,84.090028 124.804884,80.3625349 L124.804884,80.3625349 Z" id="Medtronic" fill="#405D6F"></path>
    </g>
</svg>