<?xml version="1.0" encoding="UTF-8"?>
<svg width="160px" height="160px" viewBox="0 0 160 160" version="1.1" xmlns="http://www.w3.org/2000/svg" xmlns:xlink="http://www.w3.org/1999/xlink">
    <!-- Generator: Sketch 63.1 (92452) - https://sketch.com -->
    <title>Assets/Logo/Client/Prime Therapeutics</title>
    <desc>Created with Sketch.</desc>
    <g id="Assets/Logo/Client/Prime-Therapeutics" stroke="none" stroke-width="1" fill="none" fill-rule="evenodd">
        <path d="M130.276859,89.4731712 C131.987488,89.4731712 132.507487,90.5227249 132.659153,91.2614138 L132.051456,91.302452 C131.779076,90.3534421 131.088841,90.0117985 130.276859,90.0117985 C128.789087,90.0117985 128.197899,91.1588181 128.197899,92.2370986 C128.197899,93.2999897 128.717897,94.4623987 130.276859,94.4623987 C131.287967,94.4623987 131.859552,93.8806812 132.086536,92.9880989 L132.691137,93.0588899 C132.464153,93.9719914 131.844076,95 130.213923,95 C128.661151,95 127.555123,93.9432646 127.555123,92.2370986 C127.555123,90.6283985 128.730278,89.4731712 130.276859,89.4731712 Z M138.055166,89.4731712 C139.374764,89.4731712 139.780239,90.190315 139.88754,90.9628604 L139.273653,90.9628604 C139.248892,90.5288807 138.917702,90.0117985 138.062388,90.0117985 C137.214295,90.0117985 136.852154,90.4939982 136.852154,91.0028727 C136.852154,91.3599056 137.064693,91.6923156 138.050007,91.8821176 C139.395399,92.1437365 140,92.4710167 140,93.3964297 C140,94.1987278 139.430478,95 138.043816,95 C136.831519,95 136.161918,94.4039192 136.102077,93.4261824 L136.710805,93.4261824 C136.818106,94.1289628 137.29374,94.4613727 138.070642,94.4613727 C138.989924,94.4613727 139.359288,93.9299272 139.359288,93.4559352 C139.359288,92.8721658 139.033257,92.6915974 138.086118,92.4915359 C136.852154,92.2360726 136.252712,91.896481 136.252712,91.0028727 C136.252712,90.1318354 136.972868,89.4731712 138.055166,89.4731712 Z M109.17164,89.573202 L109.17164,93.0450395 C109.17164,94.0145686 109.719495,94.4618857 110.540762,94.4618857 C111.288775,94.4618857 111.907821,94.0063609 111.907821,92.9239766 L111.907821,89.573202 L112.507263,89.573202 L112.507263,92.9301323 C112.507263,94.3274854 111.62925,94.999487 110.540762,94.999487 C109.235608,94.999487 108.575293,94.241305 108.575293,93.1373756 L108.575293,89.573202 L109.17164,89.573202 Z M62.3317722,89.5723812 L62.3317722,90.1130604 L60.7078097,90.1130604 L60.7078097,94.9012004 L60.1083673,94.9012004 L60.1083673,90.1130604 L58.4854365,90.1130604 L58.4854365,89.5723812 L62.3317722,89.5723812 Z M81.8556403,89.5735098 C83.2866671,89.5735098 83.6869831,90.3306658 83.6869831,91.0262645 C83.6869831,91.9804042 83.0596837,92.4215656 82.4684953,92.5631476 L83.8943633,94.901303 L83.1607945,94.901303 L81.8411959,92.6195753 L80.7960409,92.6195753 L80.7960409,94.901303 L80.1976303,94.901303 L80.1976303,89.5735098 L81.8556403,89.5735098 Z M119.747825,89.5725864 L119.747825,90.1122397 L118.123862,90.1122397 L118.123862,94.9014056 L117.526484,94.9014056 L117.526484,90.1122397 L115.902521,90.1122397 L115.902521,89.5725864 L119.747825,89.5725864 Z M123.784001,89.5736124 L123.784001,94.9003796 L123.185591,94.9003796 L123.185591,89.5736124 L123.784001,89.5736124 Z M96.7566833,89.573202 C97.8534255,89.573202 98.5127089,90.1908279 98.5127089,91.2167847 C98.5127089,92.2724941 97.7419973,92.8470299 96.6720804,92.8470299 L95.6537507,92.8470299 L95.6537507,94.9009952 L95.0543083,94.9009952 L95.0543083,89.573202 L96.7566833,89.573202 Z M89.6441606,89.5736124 L91.6601853,94.9003796 L90.984394,94.9003796 L90.447888,93.3963271 L88.2265466,93.3963271 L87.6910722,94.9003796 L87.0163127,94.9003796 L89.0313056,89.5736124 L89.6441606,89.5736124 Z M66.3267821,89.5733046 L66.3267821,91.8970965 L69.0608995,91.8970965 L69.0608995,89.5733046 L69.6603418,89.5733046 L69.6603418,94.9000718 L69.0608995,94.9000718 L69.0608995,92.4357238 L66.3267821,92.4357238 L66.3267821,94.9000718 L65.7273397,94.9000718 L65.7273397,89.5733046 L66.3267821,89.5733046 Z M76.6065476,89.5733046 L76.6065476,90.1129578 L74.1871116,90.1129578 L74.1871116,91.8970965 L76.5374209,91.8970965 L76.5374209,92.4357238 L74.1871116,92.4357238 L74.1871116,94.3634965 L76.6065476,94.3634965 L76.6065476,94.9000718 L73.5876693,94.9000718 L73.5876693,89.5733046 L76.6065476,89.5733046 Z M105.042091,89.573202 L105.042091,90.1118293 L102.61956,90.1118293 L102.61956,91.8980199 L104.970901,91.8980199 L104.970901,92.4356212 L102.61956,92.4356212 L102.61956,94.3633939 L105.042091,94.3633939 L105.042091,94.8999692 L102.021149,94.8999692 L102.021149,89.573202 L105.042091,89.573202 Z M89.3449553,90.3235867 L89.3294792,90.3235867 L88.4246411,92.8607777 L90.2497934,92.8607777 L89.3449553,90.3235867 Z M96.629779,90.1118293 L95.6537507,90.1118293 L95.6537507,92.3073766 L96.5802554,92.3073766 C97.2643006,92.3073766 97.8678699,92.0170309 97.8678699,91.209603 C97.8678699,90.4380835 97.3561257,90.1118293 96.629779,90.1118293 Z M81.8277833,90.1121371 L80.7960409,90.1121371 L80.7960409,92.080948 L81.8638943,92.080948 C82.5685743,92.080948 83.0462711,91.749564 83.0462711,91.1114189 C83.0462711,90.3234841 82.4468287,90.1121371 81.8277833,90.1121371 Z M46.7675252,67.9709654 C49.4768808,69.7243254 51.1472718,72.1107007 51.1472718,74.7463835 C51.1472718,80.1244485 44.1747565,84.54427 35.57312,84.54427 C34.5186793,84.54427 33.3228898,84.4673233 32.244719,84.2385349 C26.6722782,83.0556069 27.2944189,77.1430184 33.5581271,72.7119114 C34.0492365,73.218734 34.7374087,73.5398584 35.5039933,73.5398584 C36.9907341,73.5398584 38.2009679,72.3394891 38.2009679,70.8580076 C38.2009679,70.6374269 38.1638252,70.4240279 38.1173968,70.2219144 C40.5554041,69.2041654 43.4401559,68.4039192 46.7675252,67.9709654 Z M139.079789,66.962963 C139.13963,66.962963 139.16336,67.0440135 139.16336,67.1486611 C139.16336,67.293321 139.057091,67.5364728 138.995186,68.1120345 C138.976615,68.3192777 138.933282,69.2200677 138.895107,69.4662973 C138.872409,69.5699189 138.829076,69.6940597 138.747568,69.6940597 C138.624791,69.6940597 138.582489,69.5904381 138.582489,69.426285 C138.582489,69.2816251 138.561854,68.9327998 138.460743,68.6886221 C138.313204,68.360316 138.107888,68.1120345 136.994638,67.9899456 C136.642813,67.9499333 134.391551,67.9273623 134.1656,67.9273623 C134.080997,67.9273623 134.040759,67.9899456 134.040759,68.1335796 L134.040759,73.7989125 C134.040759,73.9435724 134.061394,74.0061557 134.1656,74.0061557 L134.425308,74.0060172 C135.149929,74.0052324 137.044471,74 137.449636,73.9651175 C137.940745,73.9251052 138.23376,73.882015 138.418442,73.6768236 C138.561854,73.5136965 138.644394,73.4090489 138.728997,73.4090489 C138.787806,73.4090489 138.829076,73.4511132 138.829076,73.5752539 C138.829076,73.6973428 138.728997,74.047194 138.66606,74.7222735 C138.624791,75.1326562 138.582489,75.8928901 138.582489,76.0365241 C138.582489,76.2017031 138.582489,76.4274136 138.440109,76.4274136 C138.335903,76.4274136 138.294633,76.3443111 138.294633,76.2427414 C138.294633,76.0365241 138.294633,75.8303068 138.211062,75.564584 C138.130586,75.2783421 137.940745,74.9284908 137.139081,74.8464143 C136.580909,74.7869088 134.535995,74.7458705 134.184171,74.7458705 C134.080997,74.7458705 134.040759,74.806402 134.040759,74.8874525 L134.04008,76.9851118 C134.036683,77.8979515 134.022417,79.8221903 134.040759,80.2070381 C134.101632,81.6197804 134.41425,81.8865292 136.436465,81.8865292 C136.972971,81.8865292 137.880904,81.8865292 138.418442,81.6608187 C138.954948,81.4351082 139.202566,81.0247256 139.349074,80.1824151 C139.38828,79.9587565 139.433677,79.877706 139.532724,79.877706 C139.658596,79.877706 139.658596,80.0408331 139.658596,80.1824151 C139.658596,80.350672 139.490422,81.7439212 139.38828,82.1737971 C139.241772,82.7103724 139.079789,82.7103724 138.273998,82.7103724 C136.727416,82.7103724 135.588373,82.6693342 134.784645,82.6467631 C134.059434,82.6098287 133.585771,82.5920078 133.273401,82.588813 L133.038096,82.5889295 C132.88922,82.5902215 132.636558,82.5940973 132.34767,82.6057248 C131.934973,82.6057248 131.461403,82.6467631 131.150848,82.6467631 C130.924897,82.6467631 130.817596,82.6057248 130.817596,82.483636 C130.817596,82.4241305 130.864024,82.3605212 130.983706,82.3605212 C131.171483,82.3605212 131.41807,82.3194829 131.605847,82.2804966 C132.018544,82.19842 132.120686,81.7439212 132.203226,81.1509182 C132.293503,80.3941469 132.304788,79.059249 132.306198,77.4170249 L132.306101,71.4978731 C132.304854,69.6532061 132.298412,69.175058 132.26513,68.645532 C132.222829,67.9499333 132.05775,67.6206012 131.377832,67.4759413 C131.211721,67.434903 130.864024,67.4143839 130.676247,67.4143839 C130.593708,67.4143839 130.509105,67.3753976 130.509105,67.293321 C130.509105,67.1691803 130.614342,67.127116 130.840294,67.127116 C131.314896,67.127116 131.873068,67.127116 132.324971,67.1486611 L133.175127,67.1886734 L134.288491,67.1880261 C135.58256,67.1866595 137.579451,67.1824078 137.903603,67.1691803 C138.294633,67.1486611 138.624791,67.1076229 138.787806,67.0655586 C138.895107,67.0440135 138.976615,66.962963 139.079789,66.962963 Z M98.4250108,67.1275264 C98.6499307,67.1275264 98.7531049,67.1695906 98.7531049,67.2937314 C98.7531049,67.373756 98.672629,67.4137683 98.5890579,67.4137683 C98.4456457,67.4137683 98.3218366,67.4353134 98.0731866,67.4763517 C97.515014,67.5789474 97.3489035,67.9267467 97.310729,68.6449164 C97.2779795,69.15485 97.2705845,69.6149739 97.2689146,71.2830851 L97.2686331,77.4167059 C97.2700719,79.059435 97.2815823,80.3936596 97.3736653,81.1513286 C97.4324746,81.7443316 97.555252,82.1978045 98.1763609,82.279881 C98.4673123,82.3188673 98.9212789,82.3599056 99.1038973,82.3599056 C99.2297699,82.3599056 99.2700078,82.4235149 99.2700078,82.4840464 C99.2700078,82.587668 99.1678654,82.6471735 98.940882,82.6471735 C97.8059654,82.6471735 96.5049382,82.587668 96.4007322,82.587668 C96.2996214,82.587668 94.9975625,82.6471735 94.3785171,82.6471735 C94.1535972,82.6471735 94.0473277,82.6061352 94.0473277,82.4840464 C94.0473277,82.4235149 94.0885974,82.3599056 94.2134383,82.3599056 C94.4001837,82.3599056 94.6457383,82.3188673 94.831452,82.279881 C95.2441489,82.1978045 95.3493867,81.7443316 95.4319261,81.1513286 C95.5267174,80.3395404 95.5326419,78.8658898 95.5330121,77.0600683 L95.5330004,72.2236294 C95.53266,69.766965 95.5291428,69.2398389 95.4927989,68.6449164 C95.4504974,67.9503437 95.2441489,67.6004925 94.7922458,67.4968708 C94.5652624,67.4353134 94.2939142,67.4137683 94.1535972,67.4137683 C94.0689943,67.4137683 93.9854232,67.373756 93.9854232,67.2937314 C93.9854232,67.1695906 94.0885974,67.1275264 94.3197077,67.1275264 C94.9975625,67.1275264 96.2996214,67.1880579 96.4007322,67.1880579 C96.5049382,67.1880579 97.8059654,67.1275264 98.4250108,67.1275264 Z M60.3859061,67.1886734 C60.838841,67.1886734 62.0346304,67.127116 62.9848652,67.127116 C65.5642212,67.127116 66.4958846,67.9899456 66.8260422,68.2977326 C67.2800089,68.7286345 67.8588164,69.6519955 67.8588164,70.7405355 C67.8588164,73.6563045 65.7096969,75.6251154 62.777485,75.6251154 C62.677406,75.6251154 62.4483591,75.6251154 62.3441532,75.6066482 C62.2430424,75.6066482 62.1192333,75.564584 62.1192333,75.4619883 C62.1192333,75.2978352 62.2430424,75.2783421 62.677406,75.2783421 C64.6789862,75.2783421 66.2472347,73.8204576 66.2472347,71.9316713 C66.2472347,71.2524879 66.1873937,69.8797579 65.0906515,68.7676208 C63.999068,67.6626654 62.7362153,67.744742 62.2636773,67.744742 C61.9108213,67.744742 61.5610607,67.7847543 61.375347,67.8637529 C61.2515379,67.9068431 61.2102682,68.051503 61.2102682,68.2577203 L61.2109483,77.7641274 C61.2138955,79.2469991 61.2296134,80.448202 61.3134425,81.1509182 C61.375347,81.7439212 61.4970926,82.19842 62.1192333,82.2804966 C62.4091529,82.3194829 62.8610561,82.3605212 63.0467697,82.3605212 C63.1716106,82.3605212 63.213912,82.4241305 63.213912,82.483636 C63.213912,82.5882836 63.109706,82.6467631 62.881691,82.6467631 C61.8098252,82.6467631 60.589793,82.5946008 60.3723643,82.588805 L60.3446364,82.5882836 C60.2817001,82.5882836 58.9806729,82.6467631 58.359564,82.6467631 C58.1315489,82.6467631 58.0314699,82.6057248 58.0314699,82.483636 C58.0314699,82.4241305 58.0727396,82.3605212 58.1965486,82.3605212 C58.3812305,82.3605212 58.6319439,82.3194829 58.8145624,82.2804966 C59.2282911,82.19842 59.3304336,81.7439212 59.412973,81.1509182 C59.5106661,80.3400918 59.5167719,78.8655997 59.5171535,77.0605145 L59.5170858,71.9675563 C59.5164575,69.729381 59.5115876,69.2174201 59.4738458,68.645532 C59.4336078,67.9499333 59.2705925,67.6206012 58.587579,67.4759413 C58.4214685,67.434903 58.0727396,67.4143839 57.8849624,67.4143839 C57.8044865,67.4143839 57.7219471,67.3753976 57.7219471,67.293321 C57.7219471,67.1691803 57.8240896,67.127116 58.0521047,67.127116 C58.9806729,67.127116 60.2197955,67.1886734 60.3859061,67.1886734 Z M76.3690869,67.1882749 L76.3995801,67.1888786 C76.6265634,67.1888786 78.1958436,67.1283472 78.8355239,67.1283472 C80.1344876,67.1283472 81.5190859,67.2483841 82.6137646,68.0301631 C83.1296359,68.3984816 84.0375692,69.406997 84.0375692,70.8248692 C84.0375692,72.3412332 83.3968571,73.862727 81.5386891,75.5647892 C83.2307466,77.7203242 84.6380433,79.5475531 85.832801,80.8197394 C86.9491463,81.991382 87.8364448,82.2170924 88.3512842,82.298143 C88.7443781,82.3617523 89.0342977,82.3617523 89.1560433,82.3617523 C89.2592175,82.3617523 89.3427887,82.4233097 89.3427887,82.4838412 C89.3427887,82.60593 89.2220748,82.6469683 88.8475523,82.6469683 L87.3824781,82.6469683 C86.2258948,82.6469683 85.7110554,82.5433467 85.1745493,82.2560788 C84.2862191,81.7851647 83.5629677,80.7807531 82.3867813,79.241818 C81.5190859,78.1122397 80.5492481,76.7354058 80.1344876,76.2019083 C80.0519482,76.1188058 79.9921072,76.0798194 79.8693298,76.0798194 L77.32918,76.0367293 C77.2270375,76.0367293 77.1847361,76.0993126 77.1847361,76.2019083 L77.1849356,77.4162062 C77.186332,79.0584443 77.1975039,80.3934544 77.2868786,81.1511234 C77.3487831,81.7431004 77.4715605,82.1986252 78.0916376,82.2807018 C78.3805255,82.3196881 78.8355239,82.3617523 79.0191741,82.3617523 C79.1429832,82.3617523 79.1852846,82.4233097 79.1852846,82.4838412 C79.1852846,82.5874628 79.0841738,82.6469683 78.8540953,82.6469683 C77.7202104,82.6469683 76.4202149,82.5874628 76.3170407,82.5874628 C76.2953741,82.5874628 74.9943469,82.6469683 74.3753015,82.6469683 C74.1483181,82.6469683 74.0451439,82.60593 74.0451439,82.4838412 C74.0451439,82.4233097 74.0874453,82.3617523 74.2091909,82.3617523 C74.3959363,82.3617523 74.6435545,82.3196881 74.8302999,82.2807018 C75.2419651,82.1986252 75.3461711,81.7431004 75.4297422,81.1511234 C75.5118947,80.4475736 75.5272983,79.2462144 75.5301865,77.7633134 L75.5301437,71.0808694 C75.5281045,69.5765788 75.5202027,69.1329011 75.4895833,68.6457371 C75.4483136,67.9501385 75.2811713,67.6218324 74.6033165,67.4761465 C74.4392695,67.4351082 74.0874453,67.4135631 73.8996682,67.4135631 C73.8181606,67.4135631 73.7366529,67.3745768 73.7366529,67.2925003 C73.7366529,67.1693855 73.8408589,67.1283472 74.0678422,67.1283472 C74.9398466,67.1283472 76.143608,67.1819667 76.3690869,67.1882749 Z M121.876206,66.8399508 C122.022714,66.8399508 122.083587,67.0041038 122.123825,67.3949933 L123.508423,79.9998974 C123.590962,80.7375603 123.734374,81.8866318 124.624768,82.1738997 C125.222147,82.3606238 125.755558,82.3606238 125.965002,82.3606238 C126.066112,82.3606238 126.128017,82.3811429 126.128017,82.4621935 C126.128017,82.5883862 125.943335,82.6468657 125.696749,82.6468657 C125.24175,82.6468657 123.013187,82.5883862 122.24557,82.5237509 C121.770969,82.4837386 121.671921,82.4242331 121.671921,82.3195855 C121.671921,82.236483 121.710096,82.1985226 121.81327,82.1738997 C121.918508,82.1544065 121.938111,81.8055812 121.896841,81.4352108 L120.906369,70.8422079 L120.844464,70.8422079 L115.785831,81.5172874 C115.352499,82.4242331 115.289563,82.6048015 115.105913,82.6048015 C114.960437,82.6048015 114.858294,82.4006361 114.465201,81.6609213 C113.928695,80.6575357 112.152034,77.1046476 112.046796,76.8994562 C111.863146,76.5301118 109.54998,71.6044937 109.324028,71.0494511 L109.239425,71.0494511 L108.415063,80.5754591 C108.396492,80.9027393 108.396492,81.2741356 108.396492,81.619883 C108.396492,81.929722 108.622443,82.1985226 108.932998,82.2570022 C109.28379,82.3431825 109.593313,82.3606238 109.718154,82.3606238 C109.801725,82.3606238 109.882201,82.4006361 109.882201,82.4621935 C109.882201,82.6048015 109.756328,82.6468657 109.510774,82.6468657 C108.746252,82.6468657 107.753716,82.5883862 107.590701,82.5883862 C107.403956,82.5883862 106.411419,82.6468657 105.85531,82.6468657 C105.652057,82.6468657 105.505549,82.6048015 105.505549,82.4621935 C105.505549,82.4006361 105.60666,82.3606238 105.709834,82.3606238 C105.876977,82.3606238 106.019357,82.3606238 106.331975,82.2990664 C107.010862,82.1738997 107.072766,81.3726275 107.154274,80.5939263 L108.642046,67.2082692 C108.66165,66.9825587 108.746252,66.8399508 108.86903,66.8399508 C108.992839,66.8399508 109.078473,66.9220273 109.177521,67.1487637 L115.495911,80.0624808 L121.56462,67.1692829 C121.650255,66.9825587 121.732794,66.8399508 121.876206,66.8399508 Z M35.5741518,65 C39.3420751,65 42.7922217,65.8361547 45.4881646,67.227352 C42.5023021,67.5843849 39.8022322,68.1876475 37.3982723,68.9478814 C36.9092264,68.4708115 36.2427208,68.1784139 35.5039933,68.1784139 C34.0482047,68.1784139 32.8699549,69.3223556 32.8152725,70.7545912 C26.9498169,73.5769981 23.7926851,77.3597004 23.8081613,80.0805376 C23.8081613,80.5145173 23.8927641,80.9279778 24.0671286,81.3086078 C21.5403914,79.573715 20,77.2714681 20,74.7455627 C20,69.360316 26.9725152,65 35.5741518,65 Z M78.7323497,67.7849595 C78.1122725,67.7849595 77.5540998,67.8465169 77.3487831,67.9080743 C77.2435454,67.9501385 77.1847361,68.0301631 77.1847361,68.1532779 L77.1847361,74.8671386 C77.1847361,74.9707602 77.2270375,75.0518108 77.32918,75.1133682 C77.6356075,75.2980404 78.5858423,75.4427003 79.4948073,75.4427003 C79.9921072,75.4427003 80.5688512,75.3811429 81.0424209,75.0518108 C81.7667041,74.5593516 82.3042419,73.4502924 82.3042419,71.8918642 C82.3042419,69.3249205 80.9392467,67.7849595 78.7323497,67.7849595 Z" id="Prime-Therapeutics" fill="#405D6F"></path>
    </g>
</svg>