<?xml version="1.0" encoding="UTF-8"?>
<svg width="160px" height="160px" viewBox="0 0 160 160" version="1.1" xmlns="http://www.w3.org/2000/svg" xmlns:xlink="http://www.w3.org/1999/xlink">
    <!-- Generator: Sketch 63.1 (92452) - https://sketch.com -->
    <title>Assets/Logo/Client/Science Museum</title>
    <desc>Created with Sketch.</desc>
    <g id="Assets/Logo/Client/Science-Museum" stroke="none" stroke-width="1" fill="none" fill-rule="evenodd">
        <path d="M78.2787297,75.7722459 C80.7891195,80.3582321 76.7412359,88.0233934 67.1919745,94.470841 C60.2161027,99.1809851 52.7131331,103.34707 42.3838749,106 C42.2824753,103.322903 42.7948732,99.2199543 46.0414601,95.8314419 C47.3143549,94.501956 47.6329536,92.93654 47.3269549,91.5596264 C63.0018915,85.7619684 68.0787709,80.5391824 66.6213768,75.4985549 C65.2458824,70.7421915 54.1153274,69.1369 42.0118764,72.6541016 C33.6134104,75.0940601 29.1320285,78.1753498 30.1691243,81.3955996 C31.4015193,85.2215344 40.2553835,83.4525116 45.9556604,81.5454349 C50.9530402,79.8733821 52.006936,77.8149598 51.5857377,76.4619111 C51.1075396,74.9254954 48.4600503,74.2850705 44.1145679,75.4828464 C40.3933829,76.5084325 38.7607895,77.8871586 39.1225881,78.9266407 C39.5095865,80.0389259 43.4971704,79.284312 44.3098671,78.6411683 L44.1502677,78.3647585 C43.0450722,79.0378088 39.9175849,79.5658573 39.6619859,78.7553573 C39.400087,77.9243153 41.6602778,76.8969167 44.3173671,76.1549904 C47.7793531,75.1880092 50.2216432,75.4320957 50.5612418,76.8026655 C50.7259411,77.4666532 50.4733422,79.0813094 45.1546637,80.7195284 C38.3449912,82.81692 32.5751146,82.9860889 31.8818174,80.9213227 C31.23052,78.9810164 33.959009,76.662497 43.0390722,73.8899404 C52.4416342,71.0192055 62.6019931,72.4541198 63.4698896,76.3253676 C64.4247857,80.586308 55.467422,84.9279056 47.8513528,87.2884152 C43.7599693,88.5562752 36.9871967,89.809031 30.5996226,89.8174894 C23.7848501,89.8274583 20.840062,88.3384703 20.096365,85.4622979 C19.3490681,82.5704169 22.7288544,75.5254407 37.9828927,70.6763365 C54.4528261,65.4405607 74.1141465,68.1638771 78.2787297,75.7722459 Z M89.5294942,84.7171091 C89.817793,84.7171091 90.0997919,84.8098499 90.2767911,84.9282681 L89.8966927,85.4629625 C89.7721932,85.3971074 89.6608936,85.3638779 89.5423941,85.3638779 C89.320095,85.3638779 89.1427957,85.5022338 89.0902959,85.7466224 L88.9918963,86.2284515 L89.8441929,86.2284515 L89.4898943,86.8359489 L88.8937967,86.8359489 L88.3564989,89.6075992 C88.0847,91.3165066 86.8928048,91.8792951 86.4002068,92.0608496 L86.0738081,91.3165066 C86.3345071,91.2041302 87.2279035,90.9413143 87.4847024,89.6075992 L88.0355002,86.8359489 L87.3728029,86.8359489 L87.5033024,86.2284515 L88.1467998,86.2284515 C88.1530997,86.0900955 88.1791996,85.91851 88.2121995,85.7665601 C88.3627989,85.0406445 88.8415969,84.7171091 89.5294942,84.7171091 Z M124.626712,86.0424866 C125.19011,86.0424866 125.576808,86.2533435 125.708508,86.6294421 C125.748145,86.7507679 125.768029,86.8468835 125.76796,87.1118665 L125.766708,87.2363353 L125.747208,88.3715791 L125.747208,88.4310903 C125.747208,88.7535852 125.793904,88.8989749 125.983796,89.0616031 L126.061906,89.1237763 L125.596608,89.6651166 C125.393809,89.5790217 125.20991,89.427374 125.12471,89.2557884 C125.05901,89.3222476 124.987011,89.3881026 124.921611,89.4337178 C124.758412,89.5527402 124.522013,89.6185952 124.246614,89.6185952 C123.499317,89.6185952 123.093118,89.2361527 123.093118,88.5628003 C123.093118,87.7710297 123.637016,87.401577 124.705012,87.401577 L124.801011,87.4023322 L124.801011,87.4023322 L124.901511,87.4076188 L124.901511,87.2692628 C124.901511,86.8934663 124.829211,86.7681001 124.508813,86.7681001 C124.267099,86.7681001 123.991664,86.8699713 123.691007,87.0529781 L123.538617,87.1511467 L123.165118,86.5173677 C123.342117,86.4052934 123.472917,86.3391363 123.709016,86.2400516 C124.036915,86.1016957 124.318913,86.0424866 124.626712,86.0424866 Z M85.1602518,86.087407 C85.9135488,86.087407 86.3788469,86.5033811 86.3788469,87.2425885 C86.3788469,88.4303955 85.7497495,89.6052127 84.4198548,89.6052127 C83.6593579,89.6052127 83.2264597,89.1825927 83.2264597,88.4104577 C83.2264597,87.1365559 84.0067565,86.087407 85.1602518,86.087407 Z M113.843496,86.0222165 C114.380794,86.0222165 114.735392,86.1877603 115.042591,86.3394081 L114.754592,86.9330095 C114.420693,86.761424 114.177994,86.688621 113.928995,86.688621 C113.673396,86.688621 113.502997,86.8206331 113.502997,87.0191044 C113.502997,87.1903878 113.614297,87.2828265 113.922995,87.3619734 L114.328894,87.4677039 C114.741692,87.5734344 114.879092,87.6988006 114.997591,87.8504484 C115.121791,88.0087421 115.18029,88.2002654 115.18029,88.4244142 C115.18029,89.1237461 114.603993,89.5992314 113.745996,89.5992314 C113.332898,89.5992314 112.8805,89.4669172 112.389102,89.209841 L112.7038,88.5630722 C112.972899,88.7280118 113.437597,88.9458167 113.817696,88.9458167 C114.066695,88.9458167 114.263194,88.7808771 114.263194,88.5630722 C114.263194,88.3319755 114.099395,88.2129531 113.745996,88.1474002 L113.352398,88.0745972 C113.129499,88.0350237 112.8541,87.87673 112.7362,87.7314261 C112.618001,87.5867263 112.546301,87.3423377 112.546301,87.1242307 C112.546301,86.4644722 113.064099,86.0222165 113.843496,86.0222165 Z M109.933012,86.0417012 C110.31941,86.0417012 110.686609,86.1737133 110.902608,86.3981641 C111.180167,86.6830928 111.319459,87.0808238 111.344542,87.6719584 L111.348706,87.8762769 L111.348706,88.0804879 L109.408614,88.0804879 L109.408614,88.1073736 C109.408614,88.6287762 109.663613,88.9254258 110.115711,88.9254258 C110.36696,88.9254258 110.604459,88.8473866 110.832201,88.6916579 L110.967707,88.5889007 L111.309406,89.116647 C110.922708,89.4332345 110.515909,89.5851843 110.044311,89.5851843 C109.081315,89.5851843 108.458818,88.8991442 108.458818,87.8367035 C108.458818,87.2298102 108.583017,86.827128 108.877616,86.4969466 C109.152715,86.186703 109.487213,86.0417012 109.933012,86.0417012 Z M105.189191,86.0290437 C105.26809,86.1673997 105.31339,86.3127036 105.31339,86.4513617 C105.44539,86.3586209 105.556089,86.2797761 105.700389,86.2006293 C105.877388,86.1075864 106.106887,86.0553253 106.303386,86.0553253 C106.676885,86.0553253 107.004483,86.2534945 107.109483,86.5434983 C107.155683,86.6688645 107.174883,86.8141684 107.174883,87.0253274 L107.174883,88.5297218 C107.174883,88.8925285 107.338982,89.0900936 107.404382,89.1964283 L106.748885,89.5852145 C106.637885,89.5057656 106.309686,89.1964283 106.309686,88.6683798 L106.309686,87.2962996 C106.309386,86.9129509 106.244287,86.8005745 106.014787,86.8005745 C105.838088,86.8005745 105.608889,86.9198989 105.40549,87.1044742 L105.40549,89.4930779 L104.527393,89.4930779 L104.527393,87.0452651 C104.527393,86.7552614 104.488094,86.4779453 104.409494,86.2534945 L105.189191,86.0290437 Z M101.143887,86.0290437 C101.222787,86.1673997 101.268087,86.3127036 101.268087,86.4513617 C101.399486,86.3586209 101.511086,86.2797761 101.654785,86.2006293 C101.832084,86.1075864 102.061283,86.0553253 102.258083,86.0553253 C102.631581,86.0553253 102.95948,86.2534945 103.063879,86.5434983 C103.110079,86.6688645 103.129579,86.8141684 103.129579,87.0253274 L103.129579,88.5297218 C103.129579,88.8925285 103.293678,89.0900936 103.359078,89.1964283 L102.703581,89.5852145 C102.591981,89.5057656 102.264383,89.1964283 102.264383,88.6683798 L102.264383,87.2962996 C102.264383,86.9129509 102.198983,86.8005745 101.969784,86.8005745 C101.792485,86.8005745 101.563585,86.9198989 101.360186,87.1044742 L101.360186,89.4930779 L100.48209,89.4930779 L100.48209,87.0452651 C100.48209,86.7552614 100.44249,86.4779453 100.36359,86.2534945 L101.143887,86.0290437 Z M121.344635,85.0917275 C121.312236,85.401669 121.292136,85.7711216 121.292136,86.1142927 L122.078432,86.1142927 L121.855533,86.7220922 L121.292136,86.7220922 L121.292136,88.4174057 C121.292136,88.8463696 121.371035,88.958746 121.672534,88.958746 C121.750834,88.958746 121.829434,88.9391104 121.986933,88.892891 L122.098532,89.4209395 C121.842633,89.5260659 121.613134,89.5725873 121.383935,89.5725873 C120.938137,89.5725873 120.584439,89.3744181 120.479439,89.0771642 C120.426639,88.9321624 120.420939,88.8663074 120.420939,88.5557617 L120.420939,86.7217901 L120.086741,86.7217901 L120.086741,86.1142927 L120.420939,86.1142927 C120.420939,85.7844135 120.420939,85.5669107 120.453039,85.3158762 L121.344635,85.0917275 Z M117.71798,86.0485888 C118.196478,86.0485888 118.569977,86.2138305 118.858276,86.5570016 C119.126474,86.8732869 119.244674,87.2430417 119.244674,87.7910279 C119.244674,88.3713374 119.113874,88.7673738 118.825276,89.097253 C118.570277,89.387861 118.236678,89.5657903 117.71798,89.5657903 C116.807484,89.5657903 116.211086,88.8797502 116.211086,87.8170074 C116.211086,86.7551708 116.813484,86.0485888 117.71798,86.0485888 Z M99.2682048,86.0423053 L99.2682048,89.5005999 L98.3901083,89.5005999 L98.3901083,86.1806613 L99.2682048,86.0423053 Z M94.1129956,84.9072126 L94.7090932,87.2033776 C94.7942929,87.5335589 94.8272927,87.6921547 94.8662926,87.9292932 C94.9055924,87.6921547 94.9580922,87.4544121 95.0300919,87.1837419 L95.6462894,84.9072126 L96.8126847,84.9072126 L97.2191831,89.4935009 L96.3212867,89.4935009 L96.1508874,87.045386 C96.1364874,86.8278832 96.1254625,86.6435156 96.12085,86.4619517 L96.118,86.282 L96.0805939,86.4627683 C96.0435816,86.6334145 96.006738,86.7781898 95.9477882,86.9861769 L95.2271911,89.4938029 L94.4471943,89.4938029 L93.7985969,87.0849594 C93.7397971,86.8605086 93.6608975,86.5372753 93.6152976,86.273251 C93.6152976,86.5439212 93.6020977,86.8142893 93.5825978,87.0979492 L93.4253984,89.4935009 L92.5146021,89.4935009 L92.9406004,84.9072126 L94.1129956,84.9072126 Z M124.888611,88.0154183 L124.849311,88.0154183 C124.239714,88.0154183 124.030315,88.1274926 124.030315,88.5298728 C124.030315,88.793897 124.194414,88.9721285 124.416713,88.9721285 C124.547993,88.9721285 124.67908,88.9170278 124.793387,88.8205919 L124.875711,88.7407297 L124.888611,88.0154183 Z M85.0285524,86.7411237 C84.4390548,86.7408216 84.1570559,87.9814939 84.1570559,88.4968547 C84.1570559,88.8197859 84.3211552,88.965392 84.5701542,88.965392 C85.1338519,88.965392 85.4353507,87.902347 85.4353507,87.2428906 C85.4353507,86.8535002 85.2910513,86.7411237 85.0285524,86.7411237 Z M117.73118,86.7020034 C117.521481,86.7020034 117.351082,86.8343176 117.279082,87.0451745 C117.220282,87.223406 117.187282,87.4608465 117.187282,87.7970696 C117.187282,88.1864601 117.226582,88.477068 117.299182,88.6486535 C117.377182,88.8332288 117.574281,88.9250633 117.74468,88.9250633 C118.124178,88.9250633 118.287978,88.5827985 118.287978,87.7840799 C118.287978,87.3285323 118.229178,87.0321848 118.111579,86.880537 C118.025479,86.7681605 117.888079,86.7020034 117.73118,86.7020034 Z M128.160068,85.9961766 C128.788565,85.9961766 129.325263,86.4873705 129.325263,87.1546811 C129.325263,87.8277315 128.788565,88.3192274 128.160068,88.3192274 C127.52527,88.3192274 126.988273,87.8277315 126.988273,87.1546811 C126.988273,86.4873705 127.52527,85.9961766 128.160068,85.9961766 Z M128.160068,86.1898145 C127.63207,86.1898145 127.219572,86.6045803 127.219572,87.154379 C127.219572,87.7138446 127.63207,88.1255895 128.160068,88.1255895 C128.681766,88.1255895 129.093664,87.7138446 129.093664,87.154379 C129.093664,86.6045803 128.681766,86.1898145 128.160068,86.1898145 Z M128.220668,86.4870684 C128.534766,86.4870684 128.689866,86.6045803 128.689866,86.8686045 C128.689866,87.0784796 128.575712,87.1849701 128.41674,87.2245034 L128.346067,87.237453 L128.724366,87.8277315 L128.498167,87.8277315 L128.147168,87.2468177 L127.915569,87.2468177 L127.915569,87.8277315 L127.71397,87.8277315 L127.71397,86.4870684 L128.220668,86.4870684 Z M109.945612,86.6884699 C109.641795,86.6884699 109.456985,86.9066718 109.425895,87.2985908 L109.421214,87.4213335 L109.421214,87.4349275 L110.43671,87.4349275 L110.43671,87.3947499 C110.43671,87.1443195 110.41091,87.0117033 110.33231,86.8866391 C110.24711,86.7552312 110.122911,86.6884699 109.945612,86.6884699 Z M128.189768,86.6592581 L127.915569,86.6592581 L127.915569,87.0743259 L128.157068,87.0743259 C128.328067,87.0743259 128.480467,87.0619404 128.480467,86.8559169 C128.480467,86.6906752 128.331367,86.6592581 128.189768,86.6592581 Z M98.8425065,84.6430373 C99.1374053,84.6430373 99.3735043,84.8871238 99.3735043,85.1904194 C99.3735043,85.4943191 99.1305053,85.7384056 98.8296065,85.7384056 C98.5347077,85.7384056 98.2923087,85.494017 98.2923087,85.1904194 C98.2923087,84.8871238 98.5413077,84.6430373 98.8425065,84.6430373 Z M113.442757,74.3864208 C114.488553,74.3864208 115.17765,74.7072374 115.777048,75.0029808 L115.21545,76.1587665 C114.565053,75.8249602 114.093155,75.6835833 113.608657,75.6835833 C113.110959,75.6835833 112.77916,75.9403575 112.77916,76.3258208 C112.77916,76.6596272 112.996659,76.8396711 113.596057,76.9937356 L114.386554,77.1991549 C115.19025,77.4048763 115.458149,77.6489628 115.687648,77.9444041 C115.930047,78.2525331 116.044947,78.6250066 116.044947,79.0615227 C116.044947,80.4233319 114.922051,81.3480209 113.251058,81.3480209 C112.447361,81.3480209 111.567465,81.0912468 110.610469,80.5900841 L111.222766,79.3312866 C111.745964,79.6524053 112.651361,80.0765358 113.391458,80.0765358 C113.875956,80.0765358 114.259354,79.755417 114.259354,79.3312866 C114.259354,78.8817808 113.940455,78.6506841 113.251358,78.522297 L112.486061,78.3809202 C112.052563,78.3038879 111.516765,77.995759 111.286966,77.7130053 C111.057467,77.4305538 110.917068,76.9550685 110.917068,76.5312401 C110.917068,75.2467652 111.924464,74.3864208 113.442757,74.3864208 Z M137.780609,74.4504633 C138.290607,74.4504633 138.775405,74.6045278 139.068804,74.861604 C139.439002,75.1824206 139.553602,75.5678839 139.553602,76.4668955 L139.553602,79.2672441 C139.553602,79.973524 139.872501,80.3586852 140,80.5641046 L138.749905,81.3220414 C138.533006,81.1679769 137.895209,80.5641046 137.895209,79.5367059 L137.895209,76.801004 C137.894909,76.0173897 137.805809,75.8633252 137.359111,75.8633252 C137.040512,75.8633252 136.593814,76.0814322 136.223915,76.4155407 L136.223915,81.1422995 L134.603622,81.1422995 L134.603622,76.8650465 C134.603622,76.0430671 134.489322,75.8503355 134.017124,75.8503355 C133.698825,75.8503355 133.265027,76.0173897 132.894829,76.3514982 L132.894829,81.1422995 L131.223836,81.1422995 L131.223836,76.5569175 C131.223836,75.606249 131.160236,75.1954104 130.981736,74.8739896 L132.52523,74.4504633 C132.64013,74.6302052 132.69053,74.7842697 132.754429,75.1183781 C133.201128,74.68156 133.749825,74.4504633 134.349223,74.4504633 C134.885021,74.4504633 135.331419,74.6302052 135.675817,74.989689 C135.764917,75.079711 135.854317,75.1954104 135.931116,75.3108077 C136.530214,74.6945498 137.065712,74.4504633 137.780609,74.4504633 Z M119.960261,74.4247557 C120.712958,74.4247557 121.427255,74.6815298 121.848153,75.1183479 C122.407871,75.693804 122.678555,76.5042543 122.712159,77.7272736 L122.71575,77.9957287 L122.71575,78.3938797 L118.939965,78.3938797 L118.939965,78.4452345 C118.939965,79.4599455 119.437363,80.0381405 120.31756,80.0381405 C120.839424,80.0381405 121.330474,79.8653317 121.800401,79.5203505 L121.975653,79.3829133 L122.63895,80.4103119 C121.886253,81.026872 121.095456,81.3223133 120.17686,81.3223133 C118.301868,81.3223133 117.090173,79.9864836 117.090173,77.9186965 C117.090173,76.7369313 117.332872,75.953317 117.906769,75.3110796 C118.442267,74.7072072 119.093265,74.4247557 119.960261,74.4247557 Z M105.891158,74.399048 L105.891158,78.6246441 C105.891158,79.2155268 105.942158,79.5239578 106.031857,79.7036997 C106.120957,79.8837437 106.375656,80.0118287 106.630955,80.0118287 C107.051853,80.0118287 107.562151,79.7036997 107.689351,79.382581 L107.689351,74.7585318 L109.322544,74.4117357 L109.322544,79.4339358 C109.322544,79.870754 109.462344,80.3202597 109.717643,80.6286908 L108.505647,81.321981 C108.288748,81.1679165 108.109949,80.9498095 107.995649,80.6797435 C107.574751,81.0908843 106.962154,81.3089912 106.273356,81.3089912 C105.35506,81.3089912 104.564563,80.8724752 104.347664,80.2432275 C104.245665,79.9477862 104.207265,79.6009901 104.207265,78.9330752 L104.207265,74.7201668 L105.891158,74.399048 Z M125.776908,74.399048 L125.776908,78.6246441 C125.776908,79.2155268 125.828207,79.5239578 125.917307,79.7036997 C126.007007,79.8837437 126.261406,80.0118287 126.517005,80.0118287 C126.937603,80.0118287 127.448201,79.7036997 127.5754,79.382581 L127.5754,74.7585318 L129.208594,74.4117357 L129.208594,79.4339358 C129.208594,79.870754 129.348393,80.3202597 129.603392,80.6286908 L128.391697,81.321981 C128.174798,81.1679165 127.996299,80.9498095 127.881699,80.6797435 C127.460501,81.0908843 126.848203,81.3089912 126.159406,81.3089912 C125.24111,81.3089912 124.450313,80.8724752 124.233414,80.2432275 C124.131714,79.9477862 124.093314,79.6009901 124.093314,78.9330752 L124.093314,74.7201668 L125.776908,74.399048 Z M96.4010564,72.2155616 L97.5617517,76.6852442 C97.727651,77.3277837 97.7915507,77.6359127 97.8680504,78.0984082 C97.9448501,77.6359127 98.0465497,77.1737192 98.1866491,76.6468791 L99.3857443,72.2155616 L101.656735,72.2155616 L102.447232,81.1425412 L100.699439,81.1425412 L100.36824,76.3771152 C100.32984,75.8122121 100.304041,75.3624042 100.304041,74.887221 C100.202341,75.4010714 100.125541,75.7221901 99.9728419,76.2614158 L98.5697476,81.1425412 L97.0514537,81.1425412 L95.7887588,76.4544495 C95.6930092,76.0904344 95.5705931,75.5925779 95.4812323,75.1393701 L95.432,74.876 L95.4240825,75.4019441 C95.413727,75.7549833 95.3938604,76.1117819 95.3678605,76.4801269 L95.0615618,81.1425412 L93.288569,81.1425412 L94.1177656,72.2155616 L96.4010564,72.2155616 Z M119.986061,75.6835531 C119.376032,75.6835531 119.012799,76.1351794 118.969778,76.9430987 L118.965465,77.1094048 L118.965465,77.1350822 L120.942757,77.1350822 L120.942757,77.05805 C120.942757,76.569877 120.891757,76.3128008 120.738458,76.0690164 C120.572559,75.8122423 120.33016,75.6835531 119.986061,75.6835531 Z M86.2941573,60.2568648 C87.3783529,60.2568648 88.4754484,60.5903691 89.2533453,61.1558764 L88.4112487,62.4403512 C87.6078519,61.9521783 87.0084544,61.7594466 86.345157,61.7594466 C85.61766,61.7594466 85.1076621,62.183275 85.1076621,62.7871474 C85.1076621,63.2496429 85.3500611,63.4807396 86.0898581,63.686159 L87.1611537,63.9816003 C88.6155479,64.3797512 89.4057447,65.31743 89.4057447,66.640572 C89.4057447,68.4515849 87.9516505,69.6460378 85.7451595,69.6460378 C84.7377636,69.6460378 83.6148681,69.3505965 82.7220717,68.8367462 L83.385369,67.4365719 C84.2145657,67.87339 84.9291628,68.1558415 85.8216592,68.1558415 C86.842255,68.1558415 87.3780529,67.7320132 87.3780529,66.9357112 C87.3780529,66.3578184 87.0084544,65.9983346 86.2176576,65.7799255 L85.2354615,65.5101616 C84.3549651,65.2660751 83.8065673,64.919279 83.4876686,64.3797512 C83.2455696,63.9816003 83.1177701,63.5191047 83.1177701,63.0182441 C83.1177701,61.3869731 84.4191648,60.2568648 86.2941573,60.2568648 Z M108.757106,62.7100245 C108.909806,62.9797884 108.999205,63.262542 108.999205,63.5323059 C109.254504,63.352564 109.470803,63.1981975 109.751602,63.044133 C110.096001,62.8643911 110.542699,62.7613793 110.925198,62.7613793 C111.652395,62.7613793 112.290192,63.1468426 112.494791,63.7120478 C112.583291,63.9561343 112.621691,64.2385859 112.621691,64.6497266 L112.621691,67.5781601 C112.621691,68.2847422 112.940289,68.6699034 113.068089,68.8756248 L111.792494,69.6332595 C111.575595,69.4791951 110.937498,68.8756248 110.937498,67.847924 L110.937498,65.1762646 C110.937498,64.4310154 110.809998,64.2126064 110.3636,64.2126064 C110.019801,64.2126064 109.572803,64.4440052 109.177405,64.803489 L109.177405,69.4532156 L107.468612,69.4532156 L107.468612,64.6880917 C107.468612,64.1231885 107.391512,63.5836608 107.238513,63.1468426 L108.757106,62.7100245 Z M103.130749,62.7357019 C103.884046,62.7357019 104.598043,62.9924761 105.018942,63.4292942 C105.578659,64.0044683 105.849343,64.8148998 105.882947,66.0379179 L105.886538,66.3063729 L105.886538,66.7045239 L102.110753,66.7045239 L102.110753,66.7558787 C102.110753,67.7705897 102.608151,68.3487847 103.488648,68.3487847 C104.010246,68.3487847 104.501266,68.1762145 104.971401,67.8310743 L105.146741,67.6935575 L105.809738,68.7209561 C105.057041,69.3375161 104.266245,69.6329575 103.347948,69.6329575 C101.472656,69.6329575 100.260961,68.2971277 100.260961,66.2293407 C100.260961,65.0475755 100.50336,64.2642633 101.077857,63.6217237 C101.613355,63.0181535 102.263753,62.7357019 103.130749,62.7357019 Z M122.927729,62.7357019 C123.680426,62.7357019 124.395023,62.9924761 124.815621,63.4292942 C125.375339,64.0044683 125.646285,64.8148998 125.679923,66.0379179 L125.683518,66.3063729 L125.683518,66.7045239 L121.907733,66.7045239 L121.907733,66.7558787 C121.907733,67.7705897 122.404831,68.3487847 123.285328,68.3487847 C123.806926,68.3487847 124.29842,68.1762145 124.768238,67.8310743 L124.943421,67.6935575 L125.606718,68.7209561 C124.853421,69.3375161 124.062924,69.6329575 123.144628,69.6329575 C121.269636,69.6329575 120.057941,68.2971277 120.057941,66.2293407 C120.057941,65.0475755 120.30034,64.2642633 120.874537,63.6217237 C121.410035,63.0181535 122.060733,62.7357019 122.927729,62.7357019 Z M98.6667672,62.7227122 L98.6667672,67.5778581 C98.6667672,68.2844401 98.9859659,68.6696013 99.1134654,68.8753227 L97.8123707,69.6329575 C97.5954715,69.478893 96.9576741,68.8753227 96.9576741,67.8476219 L96.9576741,62.9924761 L98.6667672,62.7227122 Z M117.162592,62.6844679 C117.596391,62.6844679 118.068289,62.7871776 118.425587,62.9796071 C118.667686,63.1079942 118.782586,63.1980162 119.063685,63.4421027 L118.233888,64.5725131 C117.889789,64.2513944 117.519591,64.0586627 117.200692,64.0586627 C116.435095,64.0586627 116.090697,64.7265776 116.090697,66.2678266 C116.090697,67.1284731 116.205596,67.6423235 116.422795,67.9250771 C116.601595,68.1558718 116.894393,68.2972486 117.188092,68.2972486 C117.583191,68.2972486 117.940489,68.1304964 118.361388,67.7577208 L118.463687,67.6680009 L119.241284,68.7083893 C118.986585,68.9654655 118.871985,69.0551854 118.641886,69.1965622 C118.183188,69.4663261 117.67289,69.6074009 117.047693,69.6074009 C115.2495,69.6074009 114.203104,68.3489055 114.203104,66.2164718 C114.203104,64.7009002 114.777602,63.6991789 115.542599,63.1723388 C115.976697,62.8768975 116.614795,62.6844679 117.162592,62.6844679 Z M93.6161976,62.6844679 C94.0496959,62.6844679 94.521894,62.7871776 94.8791925,62.9796071 C95.1212915,63.1079942 95.2358911,63.1980162 95.5166899,63.4421027 L94.6874933,64.5725131 C94.3430947,64.2513944 93.9728962,64.0586627 93.6542975,64.0586627 C92.8887006,64.0586627 92.544302,64.7265776 92.544302,66.2678266 C92.544302,67.1284731 92.6592015,67.6423235 92.8761006,67.9250771 C93.0545999,68.1558718 93.3479987,68.2972486 93.6413975,68.2972486 C94.0367959,68.2972486 94.3940945,68.1304964 94.8146928,67.7577208 L94.9172924,67.6680009 L95.6951892,68.7083893 C95.4398903,68.9654655 95.3252907,69.0551854 95.0954917,69.1965622 C94.6364935,69.4663261 94.1261956,69.6074009 93.5012981,69.6074009 C91.7028054,69.6074009 90.6570096,68.3489055 90.6570096,66.2164718 C90.6570096,64.7009002 91.2309073,63.6991789 91.9965042,63.1723388 C92.4297024,62.8768975 93.0680999,62.6844679 93.6161976,62.6844679 Z M103.156849,63.9941973 C102.54682,63.9941973 102.183851,64.4458236 102.140863,65.2537428 L102.136553,65.420049 L102.136553,65.4457264 L104.113545,65.4457264 L104.113545,65.3686942 C104.113545,64.8808233 104.062545,64.6237471 103.909246,64.3796606 C103.743047,64.1228865 103.500948,63.9941973 103.156849,63.9941973 Z M122.952929,63.9941973 C122.343181,63.9941973 121.98023,64.4458236 121.937243,65.2537428 L121.932933,65.420049 L121.932933,65.4457264 L123.910225,65.4457264 L123.910225,65.3686942 C123.910225,64.8808233 123.858925,64.6237471 123.705926,64.3796606 C123.539727,64.1228865 123.297628,63.9941973 122.952929,63.9941973 Z M97.8378706,60 C98.4117682,60 98.8710664,60.4748811 98.8710664,61.0657637 C98.8710664,61.6566463 98.3991683,62.1318296 97.8123707,62.1318296 C97.238473,62.1318296 96.7662749,61.6566463 96.7662749,61.0657637 C96.7662749,60.4748811 97.2510729,60 97.8378706,60 Z" id="Science-Museum" fill="#405D6F"></path>
    </g>
</svg>