<?xml version="1.0" encoding="UTF-8"?>
<svg width="160px" height="160px" viewBox="0 0 160 160" version="1.1" xmlns="http://www.w3.org/2000/svg" xmlns:xlink="http://www.w3.org/1999/xlink">
    <!-- Generator: Sketch 63.1 (92452) - https://sketch.com -->
    <title>Assets/Logo/Client/ShelterBox</title>
    <desc>Created with Sketch.</desc>
    <g id="Assets/Logo/Client/ShelterBox" stroke="none" stroke-width="1" fill="none" fill-rule="evenodd">
        <path d="M26.7593849,68 C33.2540932,68 38.5187698,73.3724 38.5187698,80 C38.5187698,86.6276 33.2540932,92 26.7593849,92 C20.2646766,92 15,86.6276 15,80 C15,73.3724 20.2646766,68 26.7593849,68 Z M50.042967,72.86 C50.7485301,72.86 51.4540932,72.92 52.1008593,73.1 C52.7476255,73.28 53.3355948,73.52 53.8647671,73.88 C54.3939394,74.24 54.8055179,74.72 55.0995025,75.26 C55.3934871,75.86 55.5698779,76.52 55.5698779,77.36 L52.6300317,77.36 C52.6300317,76.94 52.5124378,76.58 52.394844,76.34 C52.2184532,76.04 52.0420624,75.86 51.8068747,75.68 C51.571687,75.5 51.2777024,75.44 50.9837178,75.32 C50.7387306,75.22 50.3712498,75.2033333 50.0514054,75.2005556 L49.8665762,75.2 C49.6313885,75.2 49.3962008,75.2 49.1610131,75.26 C48.9258254,75.32 48.6906377,75.38 48.5142469,75.56 C48.3378562,75.68 48.1614654,75.86 48.0438716,76.04 C47.9262777,76.22 47.8674808,76.46 47.8674808,76.76 C47.8674808,77.06 47.9262777,77.24 48.0438716,77.42 C48.1614654,77.6 48.3378562,77.72 48.6318408,77.9 C48.9258254,78.02 49.3374039,78.2 49.8665762,78.32 C50.3957485,78.44 51.1013116,78.62 51.9832655,78.86 C52.2184532,78.92 52.5712347,78.98 53.0416101,79.16 C53.5119855,79.28 53.923564,79.52 54.3939394,79.82 C54.8643148,80.12 55.2170963,80.54 55.5698779,81.02 C55.9226594,81.5 56.0402533,82.16 56.0402533,82.94 C56.0402533,83.6 55.9226594,84.2 55.6874717,84.74 C55.452284,85.28 55.0995025,85.76 54.5703302,86.18 C54.0999548,86.6 53.5119855,86.9 52.8064224,87.14 C52.1008593,87.38 51.2777024,87.5 50.3369516,87.5 C49.5725916,87.5 48.8670285,87.38 48.1026685,87.2 C47.3971054,87.02 46.7503392,86.72 46.2211669,86.3 C45.6919946,85.88 45.2216192,85.4 44.9276346,84.74 C44.6336499,84.14 44.4572592,83.36 44.4572592,82.52 L47.3971054,82.52 C47.3383085,83 47.3971054,83.42 47.5734962,83.72 C47.7498869,84.02 47.9850746,84.32 48.2202623,84.5 C48.45545,84.68 48.8082316,84.86 49.21981,84.98 C49.5725916,85.1 49.9841701,85.1 50.3957485,85.1 C50.6897332,85.1 50.9837178,85.1 51.2777024,85.04 C51.571687,84.98 51.8656716,84.92 52.1596563,84.8 C52.4536409,84.68 52.6300317,84.5 52.8064224,84.26 C52.9828132,84.02 53.1004071,83.72 53.1004071,83.36 C53.1004071,83 52.9828132,82.7 52.7476255,82.46 C52.5124378,82.22 52.2184532,82.04 51.8068747,81.86 C51.3952962,81.68 50.9837178,81.56 50.5133424,81.44 C50.042967,81.32 49.5137947,81.2 49.0434193,81.02 C48.5142469,80.9 48.0438716,80.72 47.5146992,80.54 C47.0443238,80.36 46.5739484,80.12 46.2211669,79.82 C45.8095884,79.52 45.5156038,79.16 45.2804161,78.68 C45.0452284,78.2 44.9276346,77.66 44.9276346,77.06 C44.9276346,76.34 45.1040253,75.74 45.39801,75.2 C45.6919946,74.66 46.103573,74.24 46.5739484,73.88 C47.0443238,73.52 47.6322931,73.28 48.2202623,73.1 C48.8082316,72.92 49.4549977,72.86 50.042967,72.86 Z M128.772049,76.76 C129.536409,76.76 130.241972,76.88 130.888738,77.12 C131.535504,77.36 132.064677,77.72 132.535052,78.2 C133.005427,78.68 133.358209,79.22 133.593397,79.88 C133.828584,80.54 133.946178,81.26 133.946178,82.1 C133.946178,82.94 133.828584,83.66 133.593397,84.32 C133.358209,84.98 133.005427,85.52 132.535052,86 C132.064677,86.48 131.535504,86.84 130.888738,87.08 C130.241972,87.32 129.536409,87.44 128.772049,87.44 C128.007689,87.44 127.302126,87.32 126.65536,87.08 C126.008593,86.84 125.479421,86.48 125.009046,86 C124.53867,85.52 124.185889,84.98 123.950701,84.32 C123.715513,83.66 123.597919,82.94 123.597919,82.1 C123.597919,81.32 123.715513,80.54 123.950701,79.88 C124.185889,79.22 124.53867,78.68 125.009046,78.2 C125.479421,77.72 126.008593,77.36 126.65536,77.12 C127.302126,76.88 128.007689,76.76 128.772049,76.76 Z M73.5029398,76.82 C74.3260968,76.82 75.0904568,77 75.737223,77.3 C76.3839891,77.66 76.9131615,78.08 77.265943,78.62 C77.6775215,79.16 77.9715061,79.82 78.1478969,80.54 C78.3242877,81.26 78.3830846,82.04 78.3242877,82.82 L71.1510629,82.82 C71.2098598,83.66 71.4450475,84.32 71.856626,84.74 C72.2682044,85.16 72.8561737,85.34 73.6205337,85.34 C74.149706,85.34 74.6200814,85.22 75.0316599,84.92 C75.4432384,84.62 75.6784261,84.32 75.737223,84.02 L78.1478969,84.02 C77.7363184,85.22 77.1483492,86.12 76.3839891,86.66 C75.5608322,87.2 74.6200814,87.44 73.5029398,87.44 C72.7385798,87.44 72.0330167,87.32 71.3862506,87.08 C70.7394844,86.84 70.2103121,86.48 69.7987336,86 C69.3871551,85.52 69.0343736,84.98 68.7991859,84.32 C68.5639982,83.66 68.4464043,82.94 68.4464043,82.16 C68.4464043,81.38 68.5639982,80.72 68.7991859,80.06 C69.0343736,79.4 69.3871551,78.86 69.8575305,78.38 C70.3279059,77.9 70.8570782,77.54 71.4450475,77.24 C72.0918137,76.94 72.7385798,76.82 73.5029398,76.82 Z M96.3161465,76.82 C97.1393035,76.82 97.9036635,77 98.5504297,77.3 C99.1971958,77.66 99.7263682,78.08 100.07915,78.62 C100.490728,79.16 100.784713,79.82 100.961104,80.54 C101.137494,81.26 101.196291,82.04 101.137494,82.82 L93.9642696,82.82 C94.0230665,83.66 94.2582542,84.32 94.6698327,84.74 C95.0814111,85.16 95.6693804,85.34 96.4337404,85.34 C96.9629127,85.34 97.4332881,85.22 97.8448666,84.92 C98.256445,84.62 98.4916327,84.32 98.5504297,84.02 L100.961104,84.02 C100.549525,85.22 99.9615559,86.12 99.1971958,86.66 C98.3740389,87.2 97.4332881,87.44 96.3161465,87.44 C95.5517865,87.44 94.8462234,87.32 94.1994573,87.08 C93.5526911,86.84 93.0235188,86.48 92.6119403,86 C92.2003618,85.52 91.8475803,84.98 91.6123926,84.32 C91.3772049,83.66 91.259611,82.94 91.259611,82.16 C91.259611,81.38 91.3772049,80.72 91.6123926,80.06 C91.8475803,79.4 92.2003618,78.86 92.6707372,78.38 C93.1411126,77.9 93.6702849,77.54 94.2582542,77.24 C94.9050204,76.94 95.5517865,76.82 96.3161465,76.82 Z M117.071461,73.16 C117.718227,73.16 118.306196,73.22 118.835369,73.34 C119.364541,73.46 119.834916,73.64 120.246495,73.94 C120.658073,74.18 120.952058,74.54 121.128449,75.02 C121.363636,75.44 121.422433,76.04 121.422433,76.7 C121.422433,77.42 121.246043,78.02 120.952058,78.5 C120.658073,78.98 120.187698,79.34 119.540932,79.64 C120.364089,79.88 121.010855,80.3 121.422433,80.96 C121.834012,81.56 122.069199,82.34 122.069199,83.24 C122.069199,83.96 121.951606,84.56 121.657621,85.1 C121.363636,85.64 121.010855,86.06 120.540479,86.36 C120.070104,86.66 119.540932,86.96 118.952962,87.08 C118.364993,87.26 117.777024,87.32 117.130258,87.32 L110.486205,87.32 L110.486205,73.16 L117.071461,73.16 Z M88.5549525,73.94 L88.5549525,77 L90.4364541,77 L90.4364541,78.86 L88.4373587,78.86 L88.4373587,83.9 C88.4373587,84.38 88.4961556,84.68 88.6725464,84.86 C88.8489371,85.04 89.1429218,85.1 89.6132972,85.1 L90.0836725,85.1 C90.2012664,85.1 90.3776572,85.04 90.495251,85.04 L90.495251,87.2 C90.2600633,87.26 90.0248756,87.26 89.730891,87.26 L88.9077341,87.26 C88.4961556,87.26 88.0845771,87.26 87.7317956,87.2 C87.379014,87.14 87.0262325,87.02 86.7322479,86.84 C86.4382632,86.66 86.2030755,86.42 86.0266848,86.12 C85.850294,85.82 85.7914971,85.4 85.7914971,84.86 L85.7914971,78.86 L84.1451832,78.86 L84.1451832,77 L85.7914971,77 L85.7914971,73.94 L88.5549525,73.94 Z M60.2148349,73.16 L60.2148349,78.44 L60.2736318,78.44 C60.6264134,77.84 61.0379919,77.42 61.6259611,77.18 C62.2139303,76.94 62.6843057,76.76 63.2134781,76.76 C63.9190412,76.76 64.5658073,76.88 65.0361827,77.06 C65.5065581,77.24 65.8593397,77.54 66.1533243,77.9 C66.4473089,78.26 66.6236997,78.68 66.7412935,79.22 C66.8588874,79.76 66.9176843,80.3 66.9176843,80.96 L66.9176843,87.2 L64.1542289,87.2 L64.1542289,81.44 C64.1542289,80.6 64.036635,80 63.7426504,79.58 C63.5074627,79.16 63.0370873,78.98 62.3903211,78.98 C61.6259611,78.98 61.0967888,79.22 60.7440072,79.64 C60.3912257,80.12 60.2148349,80.84 60.2148349,81.86 L60.2148349,87.2 L57.4513795,87.2 L57.4513795,73.16 L60.2148349,73.16 Z M108.663501,76.7 C108.839891,76.7 109.016282,76.76 109.25147,76.82 L109.25147,79.4 C109.133876,79.4 108.957485,79.34 108.781095,79.34 L108.251922,79.34 C107.72275,79.34 107.311171,79.4 106.95839,79.58 C106.605608,79.76 106.311624,80 106.135233,80.3 C105.900045,80.6 105.782451,80.96 105.664858,81.32 C105.547264,81.74 105.547264,82.16 105.547264,82.58 L105.547264,87.2 L102.783808,87.2 L102.783808,77 L105.42967,77 L105.42967,78.86 L105.488467,78.86 C105.606061,78.56 105.782451,78.26 106.017639,77.96 C106.252827,77.72 106.488014,77.48 106.781999,77.3 C107.075984,77.12 107.369968,76.94 107.663953,76.88 C107.957938,76.76 108.310719,76.7 108.663501,76.7 Z M82.7928539,73.16 L82.7928539,87.2 L80.0293985,87.2 L80.0293985,73.16 L82.7928539,73.16 Z M138.061963,77 L139.825871,79.64 L141.589778,77 L144.588422,77 L141.295794,81.74 L145,87.14 L141.883763,87.14 L139.825871,83.96 L137.767978,87.14 L134.710538,87.14 L138.297151,81.8 L134.945726,77 L138.061963,77 Z M128.772049,78.86 C128.301673,78.86 127.948892,78.98 127.59611,79.16 C127.302126,79.34 127.066938,79.58 126.83175,79.88 C126.65536,80.18 126.537766,80.54 126.420172,80.9 C126.361375,81.32 126.302578,81.68 126.302578,82.1 C126.302578,82.52 126.361375,82.88 126.420172,83.3 C126.478969,83.66 126.65536,84.02 126.83175,84.32 C127.008141,84.62 127.243329,84.86 127.59611,85.04 C127.890095,85.22 128.301673,85.34 128.772049,85.34 C129.242424,85.34 129.595206,85.22 129.947987,85.04 C130.241972,84.86 130.535957,84.62 130.712347,84.32 C130.888738,84.02 131.006332,83.66 131.123926,83.3 C131.182723,82.94 131.24152,82.52 131.24152,82.1 C131.24152,81.68 131.182723,81.32 131.123926,80.9 C131.065129,80.48 130.888738,80.18 130.712347,79.88 C130.535957,79.58 130.300769,79.34 129.947987,79.16 C129.654003,78.98 129.242424,78.86 128.772049,78.86 Z M116.89507,80.96 L113.602442,80.96 L113.602442,84.8 L116.89507,84.8 C117.189055,84.8 117.483039,84.8 117.718227,84.74 C117.953415,84.68 118.247399,84.56 118.42379,84.44 C118.600181,84.32 118.776572,84.14 118.894166,83.9 C119.011759,83.66 119.070556,83.36 119.070556,83 C119.070556,82.28 118.894166,81.74 118.482587,81.44 C118.071009,81.14 117.541836,80.96 116.89507,80.96 Z M22.761194,78.79988 L20.8796924,78.79988 C20.8796924,78.79988 20.9384894,78.97988 20.9384894,79.03988 C20.9972863,79.45988 21.0560832,79.81988 21.1148801,80.17988 L21.1148801,80.24048 L21.4676617,81.31988 C21.4676617,81.44048 21.4676617,81.49988 21.5264586,81.61988 C21.5852555,81.91988 21.6440525,82.21988 21.6440525,82.51988 L21.8792402,84.31988 C21.8792402,84.37988 21.8792402,84.49988 21.9380371,84.55988 C21.9380371,84.67988 22.0556309,84.79988 22.1732248,84.79988 L22.9375848,84.79988 C22.9963817,84.79988 23.0551787,84.67988 23.1139756,84.61988 C23.1139756,84.55988 23.1727725,84.55988 23.2315694,84.55988 L30.2872004,84.55988 C30.3459973,84.55988 30.4047942,84.61988 30.4047942,84.61988 C30.4635911,84.67988 30.4635911,84.79988 30.581185,84.79988 L31.345545,84.79988 C31.4631389,84.79988 31.5219358,84.61988 31.5807327,84.55988 L31.5807327,84.31988 L31.8159204,82.51988 C31.8747173,82.21988 31.9335142,81.91988 31.9335142,81.61988 C31.9335142,81.49988 31.9335142,81.49988 31.9923112,81.31988 L32.3450927,80.24048 L32.3450927,80.17988 C32.4038896,79.81988 32.4626866,79.39988 32.5214835,79.03988 C32.5214835,78.97988 32.5802804,78.79988 32.5802804,78.79988 L30.6987788,78.79988 L30.6399819,79.45988 C30.6399819,79.45988 30.6399819,79.51988 30.581185,79.51988 L29.1700588,79.51988 C29.1700588,79.51988 29.1112619,79.51988 29.1112619,79.45988 L29.1700588,78.85988 L24.1723202,78.85988 L24.2311171,79.45988 C24.2311171,79.45988 24.2311171,79.51988 24.1723202,79.51988 L22.761194,79.51988 C22.761194,79.51988 22.7023971,79.51988 22.7023971,79.45988 L22.761194,78.79988 Z M96.3161465,78.86 C95.9045681,78.86 95.4929896,78.92 95.199005,79.1 C94.9050204,79.28 94.6698327,79.46 94.4934419,79.64 C94.3170511,79.88 94.1994573,80.12 94.1406603,80.36 C94.0818634,80.6 94.0230665,80.84 94.0230665,81.02 L98.4916327,81.02 C98.315242,80.3 98.0800543,79.76 97.7860697,79.4 C97.4332881,79.04 96.9629127,78.86 96.3161465,78.86 Z M73.5029398,78.86 C73.0913614,78.86 72.6797829,78.92 72.3857983,79.1 C72.0918137,79.28 71.856626,79.46 71.6802352,79.64 C71.5038444,79.88 71.3862506,80.12 71.3274536,80.36 C71.2686567,80.6 71.2098598,80.84 71.2098598,81.02 L75.6784261,81.02 C75.5020353,80.3 75.2668476,79.76 74.972863,79.4 C74.6200814,79.04 74.149706,78.86 73.5029398,78.86 Z M116.727866,75.5609375 L113.720036,75.56 L113.720036,78.8 L116.718679,78.8 C117.247852,78.8 117.718227,78.68 118.071009,78.38 C118.42379,78.14 118.600181,77.72 118.600181,77.12 C118.600181,76.82 118.541384,76.52 118.42379,76.34 C118.306196,76.16 118.129806,75.98 117.953415,75.86 C117.777024,75.74 117.541836,75.68 117.306649,75.62 C117.130258,75.575 116.920794,75.56375 116.727866,75.5609375 Z M22.6436002,75.19988 L21.9380371,75.19988 C21.7028494,75.19988 21.5264586,75.31988 21.4088648,75.49988 C21.3500678,75.61988 21.3500678,75.67988 21.232474,75.73988 L21.0560832,75.91988 C20.7620986,76.63988 20.5269109,77.29988 20.2917232,78.01988 C20.2329263,78.25988 20.7033017,78.19988 20.7033017,78.19988 L32.7566712,78.19988 C32.8154681,78.19988 33.2858435,78.25988 33.2270466,78.07988 C32.9918589,77.35988 32.6978743,76.63988 32.4626866,75.91988 C32.4626866,75.85988 32.4038896,75.79988 32.2862958,75.73988 C32.1687019,75.67988 32.1687019,75.61988 32.109905,75.55988 C32.0511081,75.37988 31.8159204,75.25988 31.5807327,75.25988 L30.8751696,75.25988 L30.9927635,76.75988 L30.6399819,76.81988 L30.5223881,75.43988 L29.2288557,75.43988 C29.2288557,75.43988 29.1700588,75.43988 29.1700588,75.37988 C29.1112619,75.31988 29.0524649,75.25988 28.9348711,75.25988 L24.7014925,75.25988 C24.5838987,75.25988 24.5251018,75.31988 24.4663048,75.37988 L24.4075079,75.43988 L23.1139756,75.43988 L22.9963817,76.81988 L22.6436002,76.75988 L22.6436002,75.19988 Z" id="Shelter-Box" fill="#405D6F"></path>
    </g>
</svg>