<?xml version="1.0" encoding="UTF-8"?>
<svg width="160px" height="160px" viewBox="0 0 160 160" version="1.1" xmlns="http://www.w3.org/2000/svg" xmlns:xlink="http://www.w3.org/1999/xlink">
    <!-- Generator: Sketch 63.1 (92452) - https://sketch.com -->
    <title>Assets/Logo/Client/U of M</title>
    <desc>Created with Sketch.</desc>
    <g id="Assets/Logo/Client/U-of-M" stroke="none" stroke-width="1" fill="none" fill-rule="evenodd">
        <polygon id="U-of-M" fill="#405D6F" points="109.746922 89.7931034 97.8264858 70.2068966 101.112731 70.2068966 101.112731 60 81.2705064 60 81.2705064 70.2068966 84.5518274 70.2068966 79.9983585 77.6892495 75.4465312 70.2068966 78.731135 70.2068966 78.731135 60 58.8921933 60 58.8921933 70.2068966 62.1735142 70.2068966 50.2530778 89.7931034 46 89.7931034 46 100 66.2328972 100 66.2328972 89.7931034 62.6002993 89.7931034 68.8100227 79.5894523 71.2147926 83.5472617 68.9117945 83.5472617 68.9117945 93.7525355 91.0947714 93.7525355 91.0947714 83.5472617 88.7835659 83.5472617 91.1932603 79.5894523 97.3997007 89.7931034 93.7671028 89.7931034 93.7671028 100 114 100 114 89.7931034"></polygon>
    </g>
</svg>