<?xml version="1.0" encoding="UTF-8"?>
<svg width="160px" height="160px" viewBox="0 0 160 160" version="1.1" xmlns="http://www.w3.org/2000/svg" xmlns:xlink="http://www.w3.org/1999/xlink">
    <!-- Generator: Sketch 63.1 (92452) - https://sketch.com -->
    <title>Assets/Logo/Client/US Bank</title>
    <desc>Created with Sketch.</desc>
    <g id="Assets/Logo/Client/US-Bank" stroke="none" stroke-width="1" fill="none" fill-rule="evenodd">
        <path d="M61.2602116,65 L61.2602116,88.289344 L41.6407971,95 L22.0187098,88.289344 L22,65 L61.2602116,65 Z M30.8691407,71.1710805 L24.6503717,71.1710805 L24.6503717,82.410444 C24.6503717,86.1688413 27.3205222,87.967426 30.2401363,87.967426 C32.6171672,87.967426 34.245506,87.185935 35.400389,85.6741954 L35.5483635,85.4728749 L35.6107294,85.4728749 L35.6107294,87.5571911 L41.609436,87.5571911 L41.609436,71.1710805 L35.3915579,71.1710805 L35.3915579,79.8218434 C35.3915579,82.4417938 33.9776343,82.9792195 32.9102868,82.9792195 C31.1511389,82.9792195 30.8861618,81.7425823 30.8699793,79.9521662 L30.8691407,71.1710805 Z M50.9391042,70.7603081 C47.672914,70.7603081 43.2440457,71.8342639 43.2440457,75.9688592 C43.2440457,78.7813872 45.16046,80.2951363 49.9020487,81.116502 C52.7913708,81.6225779 53.3250445,81.9056221 53.3250445,82.8532828 C53.3250445,83.8000478 52.0376346,84.1162332 51.2215325,84.1162332 C50.4669054,84.1162332 49.8708658,83.9263428 49.5563635,83.6432986 C49.1382152,83.2778491 48.8925354,82.8621514 48.8212015,82.3754457 L48.8026274,82.189562 L42.8671776,82.189562 C42.9616173,86.4208939 47.1695323,87.9677843 51.0014701,87.9677843 C54.9581396,87.9677843 59.2925682,86.7370794 59.2925682,82.189562 C59.2925682,79.5051205 57.4705936,78.2744155 55.3991554,77.6106948 C53.3250445,76.9174156 50.9693962,76.7902248 49.9332316,76.34864 C49.5884374,76.1900994 49.2097874,75.9688592 49.2097874,75.4959245 C49.2097874,74.4237602 50.21566,74.2338698 51.0959098,74.2338698 C51.5984006,74.2338698 52.1008914,74.3906189 52.4777595,74.7068044 C52.8412635,74.9599916 53.1041021,75.3115521 53.1805495,75.7640022 L53.2003128,75.938405 L58.8524433,75.938405 C58.6956376,71.7402144 54.4565397,70.7603081 50.9391042,70.7603081 Z M69.6901184,65.0140626 L69.6901184,72.9706506 L69.7533752,72.9706506 C70.6951,71.5805094 72.3602689,70.7600394 74.2125355,70.7600394 C79.6766775,70.7600394 81.1538579,75.4329561 81.1538579,79.2854029 C81.1538579,83.3895441 78.9238322,87.9675156 74.3060844,87.9675156 C71.2590657,87.9675156 70.3191228,86.7986146 69.5333127,85.7569044 L69.4700559,85.7569044 L69.4700559,87.5572806 L63.4722403,87.5572806 L63.4722403,65.0140626 L69.6901184,65.0140626 Z M90.7650634,70.760129 C98.1960688,70.760129 98.4796705,73.7206557 98.4900479,76.7346519 L98.4904139,83.8948138 C98.4904139,85.1264145 98.5536708,86.5165557 99.2450411,87.5573702 L92.8997584,87.5573702 C92.7438437,87.1166811 92.6494039,86.4511689 92.6805869,86.0113755 L92.618221,86.0113755 C91.2978462,87.5260204 89.3823228,87.9676052 87.3723596,87.9676052 C84.2317922,87.9676052 81.6257894,86.4511689 81.6257894,83.0107485 C81.6257894,77.8335473 87.6556789,78.022542 90.8274293,77.4224166 C91.6756053,77.2647717 92.5237812,77.0121816 92.5237812,75.9695757 C92.5237812,74.8642701 91.4867257,74.4540352 90.4826351,74.4540352 C88.5653298,74.4540352 88.1893526,75.4330457 88.1572788,76.1272206 L82.3795256,76.1272206 C82.5684051,71.518795 86.9019427,70.760129 90.7650634,70.760129 Z M112.086176,70.7591437 C115.007571,70.7591437 117.678613,72.5595199 117.678613,76.3170215 L117.678613,87.5572806 L111.458953,87.5572806 L111.458953,78.9692174 C111.458953,77.0747917 111.239781,75.7482459 109.419589,75.7482459 C108.348677,75.7482459 106.935645,76.2865673 106.935645,78.9065178 L106.935645,87.5572806 L100.718658,87.5572806 L100.718658,71.1702744 L106.716473,71.1702744 L106.716473,73.2536948 L106.778839,73.2536948 C107.940626,71.6127549 109.605795,70.7591437 112.086176,70.7591437 Z M126.094354,65.0140626 L126.094354,75.9076822 L130.052805,71.1711701 L137.087676,71.1711701 L131.277849,77.3587317 L138,87.5572806 L130.523222,87.5572806 L127.193775,81.6223091 L126.094354,82.8207685 L126.094354,87.5572806 L119.877367,87.5572806 L119.877367,65.0140626 L126.094354,65.0140626 Z M92.5237812,80.2009077 C91.7691541,80.5797928 90.9218691,80.8010331 90.0745841,80.9900278 C88.6927344,81.3071089 87.9692902,81.6528528 87.9692902,82.7572627 C87.9692902,83.5159287 88.7853923,84.273699 89.9168875,84.273699 C91.330811,84.273699 92.4293415,83.4218792 92.5237812,81.7164482 L92.5237812,80.2009077 Z M72.2034633,75.3066611 C69.9734377,75.3066611 69.4700559,77.4223271 69.4700559,79.3489983 C69.4700559,81.3061237 69.9734377,83.4217896 72.2034633,83.4217896 C74.432598,83.4217896 74.9341979,81.3061237 74.9341979,79.3489983 C74.9341979,77.4223271 74.432598,75.3066611 72.2034633,75.3066611 Z" id="US-Bank" fill="#405D6F"></path>
    </g>
</svg>