<?xml version="1.0" encoding="UTF-8"?>
<svg width="445px" height="441px" viewBox="0 0 445 441" version="1.1" xmlns="http://www.w3.org/2000/svg" xmlns:xlink="http://www.w3.org/1999/xlink">
    <!-- Generator: Sketch 63.1 (92452) - https://sketch.com -->
    <title>Assets/Graphic/Oragnization Development</title>
    <desc>Created with Sketch.</desc>
    <g id="Assets/Graphic/Oragnization-Development" stroke="none" stroke-width="1" fill="none" fill-rule="evenodd" opacity="0.0399999991">
        <g id="Solutions---Oraganization-Development">
            <polygon id="Path-6" fill="#A9B240" points="243.647059 10 438 10 438 203.529412 366.352941 203.529412 372.117647 229.058824 358.941176 249.647059 340.823529 262 320.235294 249.647059 304.588235 229.058824 312 210.941176 312 203.529412 243.647059 203.529412 237.882353 136 216.470588 136 193.411765 130.235294 186 103.058824 205.764706 76.7058824 227.176471 76.7058824 237.882353 76.7058824"></polygon>
            <path d="M206.011649,33.7479476 C209.856289,33.7479476 212.963983,36.8570437 212.963983,40.7034199 C212.963983,44.5497962 209.856289,47.6588923 206.011649,47.6588923 L206.011649,47.6588923 L13.9047508,47.6588923 L13.9047508,163.550973 C13.9047508,163.557928 13.9117031,163.557928 13.9117031,163.564884 L13.9117031,163.564884 L13.9117031,230.302641 L83.1917131,230.302641 L83.1917131,230.302641 L83.2264748,230.309597 L83.2403794,230.309597 C83.5810438,230.309597 83.8799942,230.455662 84.1998016,230.50435 C84.7212266,230.58086 85.228747,230.622593 85.7223627,230.810391 C86.2159785,230.998188 86.6192139,231.311185 87.0572109,231.603315 C87.3353043,231.791112 87.641207,231.874578 87.9053957,232.111064 C87.9401573,232.152797 87.954062,232.201485 87.995776,232.243218 C88.3920591,232.618814 88.6562478,233.077875 88.9551981,233.536936 C89.1568158,233.849932 89.4210045,234.121196 89.5739559,234.455058 C89.7269072,234.795876 89.7477642,235.192338 89.8520492,235.567934 C89.9771913,236.075683 90.1440473,236.569522 90.1579519,237.091182 C90.1579519,237.153782 90.1927136,237.20247 90.1927136,237.265069 C90.1927136,237.626754 90.0397623,237.932794 89.9841436,238.273613 C89.9146203,238.781362 89.8729062,239.268245 89.6851932,239.748173 C89.4974802,240.248967 89.1846252,240.652384 88.8926271,241.090579 C88.7118664,241.368798 88.6214861,241.681794 88.3920591,241.932191 C84.0885642,246.689734 81.8151509,252.504509 81.8151509,258.764434 C81.8151509,272.348472 92.9110763,283.400717 106.551556,283.400717 C111.640665,283.400717 116.375204,281.849647 120.310225,279.192657 C126.852372,274.755065 131.162819,267.257066 131.162819,258.77139 C131.162819,252.657529 128.958929,246.967953 124.836195,242.28692 C123.522204,241.021024 122.680971,239.254334 122.680971,237.27898 C122.680971,235.345359 123.466585,233.606491 124.724957,232.354506 C125.448,231.631136 126.344851,231.130342 127.318178,230.782569 C127.693604,230.643459 128.089887,230.622593 128.479218,230.546083 C128.875501,230.476528 129.237022,230.309597 129.64721,230.309597 L129.64721,230.309597 L205.942125,230.309597 C205.976887,230.309597 206.011649,230.28873 206.04641,230.28873 C209.891051,230.28873 212.998744,233.397826 212.998744,237.244203 L212.998744,237.244203 L212.998744,300.017341 C217.357858,298.361938 222.015922,297.478593 226.868651,297.478593 C248.121937,297.478593 265.405439,314.818586 265.405439,336.144064 C265.405439,357.455632 248.121937,374.795624 226.868651,374.795624 C222.015922,374.795624 217.357858,373.919235 212.998744,372.256877 L212.998744,372.256877 L212.998744,426.878201 L398.132451,426.878201 L398.132451,237.265069 C398.132451,233.418693 401.247097,230.309597 405.084785,230.309597 C408.922474,230.309597 412.037119,233.418693 412.037119,237.265069 L412.037119,237.265069 L412.037119,433.833674 C412.037119,437.673094 408.922474,440.789146 405.084785,440.789146 L405.084785,440.789146 L6.96632125,440.789146 C3.12863278,440.789146 0.0139870758,437.673094 0.0139870758,433.833674 L0.0139870758,433.833674 L0.0139870758,237.313757 C0.0139870758,237.292891 0.00703474158,237.27898 0.00703474158,237.258114 L0.00703474158,237.258114 L0.00703474158,163.564884 C0.00703474158,163.557928 8.24074075e-05,163.550973 8.24074075e-05,163.544017 L8.24074075e-05,163.544017 L8.24074075e-05,40.7034199 C8.24074075e-05,36.8570437 3.11472812,33.7479476 6.95241658,33.7479476 L6.95241658,33.7479476 Z M70.7817966,244.220541 L13.9186554,244.220541 L13.9186554,426.878201 L199.094076,426.878201 L199.094076,360.140444 C199.094076,359.910913 199.198361,359.702249 199.22617,359.472719 C199.281789,358.839771 199.372169,358.220734 199.601596,357.622563 C199.719786,357.323478 199.907499,357.080036 200.060451,356.801817 C200.29683,356.391444 200.435877,355.932383 200.769589,355.556788 C200.853017,355.459411 200.964254,355.424634 201.054634,355.334213 C201.235395,355.139459 201.471774,355.028172 201.680344,354.854285 C202.180912,354.436957 202.681481,354.040495 203.258524,353.783142 C203.42538,353.713587 203.613093,353.699677 203.786902,353.637077 C204.475183,353.400591 205.170416,353.23366 205.893459,353.219749 C205.949078,353.212793 205.990792,353.184972 206.04641,353.184972 C206.25498,353.184972 206.421836,353.289304 206.630406,353.303215 C207.276973,353.358858 207.895731,353.44928 208.514489,353.685766 C208.896867,353.831831 209.209722,354.068317 209.550387,354.270025 C209.891051,354.471734 210.266477,354.583022 210.57238,354.847329 C215.140063,358.798038 220.778406,360.884679 226.868651,360.884679 C240.44656,360.884679 251.500771,349.790701 251.500771,336.144064 C251.500771,322.497427 240.44656,311.389538 226.868651,311.389538 C220.778406,311.389538 215.140063,313.483135 210.57238,317.426888 C210.280382,317.684241 209.925813,317.781617 209.606005,317.97637 C209.244484,318.205901 208.90382,318.456298 208.493632,318.602363 C207.909636,318.831894 207.304783,318.908404 206.692977,318.971003 C206.46355,318.991869 206.275837,319.096202 206.04641,319.096202 C205.990792,319.096202 205.942125,319.075335 205.879554,319.06838 C205.184321,319.054469 204.509944,318.880582 203.835568,318.658007 C203.647855,318.588452 203.439285,318.574541 203.251572,318.498031 C202.695385,318.254589 202.222626,317.865083 201.735963,317.468621 C201.499584,317.287779 201.242347,317.148669 201.04073,316.940005 C200.957302,316.849584 200.846064,316.814807 200.769589,316.724385 C200.449781,316.362701 200.310735,315.917551 200.081308,315.514133 C199.921404,315.222003 199.726739,314.971606 199.601596,314.65861 C199.372169,314.06044 199.288741,313.448358 199.22617,312.822365 C199.205313,312.585879 199.094076,312.391126 199.094076,312.140729 L199.094076,312.140729 L199.094076,244.234452 L142.21703,244.234452 C144.080256,248.797242 145.088344,253.673028 145.088344,258.764434 C145.088344,270.720891 139.609905,281.425363 131.037677,288.506034 C124.370388,294.014768 115.832922,297.325573 106.537651,297.325573 C85.228747,297.325573 67.8965779,280.027313 67.8965779,258.77139 C67.8965779,256.983833 68.146862,255.224099 68.3901937,253.464364 C68.8212384,250.271802 69.5790428,247.176617 70.7817966,244.220541 L70.7817966,244.220541 Z M438.048057,0.789146067 C441.892527,0.789146067 445.000082,3.89647154 445.000082,7.72514042 L445.000082,7.72514042 L445.000082,203.743277 C445.000082,207.578882 441.892527,210.679271 438.048057,210.679271 L438.048057,210.679271 L374.193705,210.679271 C376.077704,215.270899 377.113556,220.174647 377.113556,225.189371 C377.113556,246.38577 359.782157,263.635588 338.474199,263.635588 C317.221858,263.635588 299.939123,246.38577 299.939123,225.189371 C299.939123,220.167711 300.981927,215.257027 302.865926,210.658463 L302.865926,210.658463 L239.018526,210.658463 C235.181008,210.658463 232.066501,207.558074 232.066501,203.722469 L232.066501,203.722469 L232.066501,142.331983 C227.700629,143.996621 223.03582,144.877493 218.183307,144.877493 C196.930965,144.877493 179.648231,127.586059 179.648231,106.3203 C179.648231,85.0684134 196.930965,67.7700435 218.183307,67.7700435 C223.03582,67.7700435 227.693677,68.6509148 232.052597,70.3086175 L232.052597,70.3086175 L232.052597,7.72514042 C232.052597,3.89647154 235.160152,0.789146067 239.004622,0.789146067 L239.004622,0.789146067 Z M431.096032,14.6611348 L245.956647,14.6611348 L245.956647,82.4257996 C245.956647,82.6963034 245.831511,82.9182552 245.803703,83.174887 C245.741135,83.7575105 245.671614,84.319326 245.456102,84.8742056 C245.303157,85.2764933 245.059836,85.609421 244.837371,85.9700927 C244.642715,86.2960844 244.531482,86.6636921 244.274257,86.9619399 C244.211689,87.0382358 244.114361,87.0659798 244.051792,87.1353398 C243.738951,87.4682675 243.35659,87.6971553 242.981181,87.9607231 C242.619675,88.2242909 242.279026,88.5294746 241.868857,88.7098105 C241.521255,88.8624023 241.138894,88.9040183 240.756533,89.0080582 C240.255987,89.1467781 239.769345,89.292434 239.254895,89.313242 C239.171471,89.313242 239.094998,89.3617939 239.004622,89.3617939 C238.650069,89.3617939 238.34418,89.2092021 238.010483,89.1606501 C237.530793,89.0912902 237.078911,89.0496742 236.620077,88.8832103 C236.098676,88.6890025 235.660698,88.3907547 235.201864,88.078635 C234.965495,87.9260431 234.694367,87.8636192 234.471902,87.6694113 C229.911373,83.7228305 224.273281,81.6420322 218.183307,81.6420322 C204.606001,81.6420322 193.552281,92.7118792 193.552281,106.3203 C193.552281,119.928721 204.606001,131.005504 218.183307,131.005504 C224.273281,131.005504 229.911373,128.924706 234.471902,124.985061 C234.763887,124.728429 235.11844,124.638261 235.431281,124.437117 C235.806691,124.20823 236.154292,123.951598 236.578365,123.799006 C237.120623,123.590926 237.669833,123.528502 238.239899,123.466078 C238.504076,123.431398 238.740445,123.299614 239.018526,123.299614 C239.088046,123.299614 239.150615,123.34123 239.213183,123.34123 C239.804105,123.362038 240.367219,123.528502 240.937285,123.68803 C241.250126,123.785134 241.569919,123.812878 241.854953,123.937726 C242.285978,124.124998 242.640531,124.437117 243.022893,124.714557 C243.384398,124.985061 243.766759,125.207013 244.065697,125.526068 C244.121313,125.588492 244.211689,125.616236 244.274257,125.685596 C244.517578,125.963036 244.607955,126.309836 244.795659,126.608084 C245.045932,127.010371 245.310109,127.371043 245.48391,127.814947 C245.664662,128.300466 245.713327,128.792922 245.782847,129.299249 C245.831511,129.618305 245.970551,129.902681 245.970551,130.235609 L245.970551,130.235609 L245.970551,196.786474 L315.247483,196.786474 C315.748029,196.786474 316.186007,196.96681 316.651792,197.07085 C317.006345,197.147146 317.353947,197.154082 317.694596,197.27893 C318.271614,197.500882 318.765208,197.847682 319.258802,198.208353 C319.474314,198.367881 319.724587,198.423369 319.933148,198.610641 C319.967908,198.645321 319.981812,198.686937 320.00962,198.714681 C320.398934,199.082289 320.663111,199.553936 320.962048,200.004776 C321.170609,200.323832 321.455642,200.608207 321.601634,200.955007 C321.712867,201.190831 321.719819,201.468271 321.789339,201.724902 C321.990948,202.356078 322.164748,202.973381 322.178652,203.618429 C322.178652,203.660045 322.199508,203.687789 322.199508,203.722469 C322.199508,203.930549 322.095228,204.11782 322.074372,204.318964 C322.025708,204.991756 321.935331,205.650675 321.678106,206.295723 C321.559922,206.580098 321.365265,206.808986 321.212321,207.07949 C320.962048,207.53033 320.781295,208.008913 320.41979,208.404265 C316.116486,213.148485 313.843174,218.946976 313.843174,225.189371 C313.843174,238.735368 324.896894,249.763599 338.474199,249.763599 C352.114073,249.763599 363.209505,238.735368 363.209505,225.189371 C363.209505,219.092632 360.998761,213.418989 356.869258,208.723321 C355.555326,207.46097 354.728035,205.706163 354.728035,203.743277 C354.728035,200.726119 356.674602,198.229161 359.365035,197.271994 C359.691781,197.154082 360.018526,197.147146 360.359175,197.07085 C360.804105,196.980682 361.207322,196.807282 361.68006,196.807282 L361.68006,196.807282 L431.096032,196.807282 L431.096032,14.6611348 Z" id="Combined-Shape" fill="#36454F"></path>
        </g>
    </g>
</svg>