<?xml version="1.0" encoding="UTF-8"?>
<svg width="445px" height="417px" viewBox="0 0 445 417" version="1.1" xmlns="http://www.w3.org/2000/svg" xmlns:xlink="http://www.w3.org/1999/xlink">
    <!-- Generator: Sketch 63.1 (92452) - https://sketch.com -->
    <title>Assets/Graphic/Board of Director Governance</title>
    <desc>Created with Sketch.</desc>
    <g id="Assets/Graphic/Board-of-Director-Governance" stroke="none" stroke-width="1" fill="none" fill-rule="evenodd" opacity="0.0399999991">
        <g id="Solutions---Board-of-Director-Governance">
            <polygon id="Path-2" fill="#A9B240" points="395.111111 234 434 234 422.888889 256 428.444444 267 395.111111 267 384 256"></polygon>
            <polygon id="Path-3" fill="#A9B240" points="284.222222 16 262 43.7777778 273.111111 66 300.888889 60.4444444 312 32.6666667 289.777778 32.6666667"></polygon>
            <path d="M163.951472,90.1489106 C171.947501,90.1489106 179.94353,90.7657451 187.800498,91.8815919 C200.10743,93.6350653 211.899834,96.795476 223.094275,101.154902 C227.015806,102.679662 228.559387,107.44107 226.452607,111.07277 C224.700434,114.094566 221.029214,115.27972 217.768224,114.004467 C207.658462,110.053953 196.978549,107.233148 185.853639,105.604428 C178.622447,104.564819 171.252194,104.010361 163.951472,104.010361 C75.584921,104.010361 4.81658695,180.539429 14.8568183,270.604203 C22.5747246,339.856009 78.922394,395.384979 148.480894,402.357289 C229.991719,410.542475 300.14123,353.218447 312.142227,276.862648 C312.677613,273.459661 315.521418,270.902224 318.984047,270.902224 L318.984047,270.902224 L319.06053,270.902224 C323.267137,270.902224 326.618516,274.617093 325.971881,278.754736 C313.004408,362.082845 236.611041,424.805908 147.674338,416.211809 C68.4997439,408.567219 5.37978552,343.314441 0.338810655,264.17942 C-5.71035918,169.297792 70.0363721,90.1489106 163.951472,90.1489106 Z M163.950082,126.186602 C177.981374,126.186602 191.546812,128.446019 204.20835,132.694553 C208.408003,134.101491 210.313144,138.952998 208.095115,142.785689 C206.412473,145.696594 202.908126,146.881748 199.709714,145.814416 C185.282097,140.983701 169.58902,139.070821 153.277121,140.526273 C100.767546,145.253027 57.6028945,186.712626 50.9974792,238.852471 C42.2296594,308.041901 96.3106284,367.174848 163.950082,367.174848 C218.907137,367.174848 264.866922,328.238034 275.567695,276.548686 C276.249095,273.298176 279.009464,270.900145 282.346937,270.900145 L282.346937,270.900145 L282.42342,270.900145 C286.866431,270.900145 290.085702,275.010065 289.188756,279.348699 C276.353391,341.503442 217.891989,387.294744 150.39855,380.329365 C91.4712925,374.244188 43.6272263,326.962781 36.9870456,268.280331 C28.3096157,191.52948 88.5788159,126.186602 163.950082,126.186602 Z M146.732893,163.028258 C160.228799,160.581712 173.363146,161.087655 185.510157,164.005491 C190.00184,165.093614 192.157291,170.243143 189.848872,174.235241 C188.270525,176.965947 185.079067,178.171893 182.012764,177.451098 C176.199998,176.064952 170.157781,175.323365 163.948691,175.323365 C119.497722,175.323365 83.6129342,212.333437 85.5250281,256.981169 C87.2911076,298.205123 125.331347,333.267662 166.695153,331.839932 C200.980735,330.661709 229.717768,307.45071 239.160036,276.012941 C240.056982,273.025798 242.678289,270.898065 245.800217,270.898065 L245.800217,270.898065 L245.883653,270.898065 C250.507444,270.898065 253.837964,275.361452 252.523834,279.776324 C241.190332,317.86759 205.75054,345.749898 163.948691,345.749898 C107.621881,345.749898 62.9275546,295.204119 72.9608328,237.256325 C79.4271868,199.899716 109.311476,169.799577 146.732893,163.028258 Z M158.330611,249.443313 L264.170224,66.7355347 L257.258874,42.5750266 C256.744347,40.7661073 256.987704,38.8255043 257.926369,37.2037146 L257.926369,37.2037146 L277.478398,3.46494429 C278.882918,1.03225974 281.552896,-0.312300946 284.410608,0.0619582148 C287.191835,0.422355925 289.486348,2.43226623 290.21642,5.13524906 L290.21642,5.13524906 L295.81364,25.9759398 L316.721518,20.3897752 C319.447121,19.6620491 322.332645,20.6392813 324.036147,22.8709749 C325.753554,25.0888069 325.94824,28.1244646 324.543721,30.5502184 L324.543721,30.5502184 L304.998644,64.2889887 C304.05998,65.9177091 302.495539,67.0959324 300.666882,67.5464295 L300.666882,67.5464295 L276.219893,73.6593292 L176.012265,246.65023 L376.42752,246.664092 L393.970112,228.616483 C395.277289,227.264992 397.085087,226.509543 398.962416,226.509543 L398.962416,226.509543 L438.045615,226.509543 C440.861608,226.509543 443.399478,228.193709 444.470251,230.7858 C445.547977,233.377891 444.950013,236.351173 442.961435,238.340291 L442.961435,238.340291 L427.657731,253.594817 L442.961435,268.849343 C444.950013,270.83153 445.547977,273.811742 444.470251,276.403834 C443.399478,278.995925 440.861608,280.680091 438.045615,280.680091 L438.045615,280.680091 L398.962416,280.680091 C397.085087,280.680091 395.277289,279.924642 393.970112,278.56622 L393.970112,278.56622 L376.42752,260.525542 L163.96955,260.511681 C160.131456,260.511681 157.016481,257.406716 157.016481,253.580955 C157.016481,252.264118 157.690929,250.496783 158.330611,249.443313 L158.285745,249.521576 C158.292155,249.510395 158.305889,249.486437 158.330611,249.443313 L158.314,249.471 L158.317,249.465 L158.326949,249.449701 C158.329238,249.445708 158.330611,249.443313 158.330611,249.443313 Z M421.260907,240.370993 L401.910517,240.370993 L389.054293,253.594817 L401.910517,266.818641 L421.260907,266.818641 L412.910272,258.49484 C410.191622,255.784926 410.191622,251.397777 412.910272,248.694794 L412.910272,248.694794 L421.260907,240.370993 Z M256.482911,128.524336 C258.582738,124.906497 263.470746,123.901542 266.717829,126.542149 C274.324486,132.724355 281.374898,139.544189 287.785627,146.91155 C307.59492,169.720567 321.07692,197.838519 325.895397,228.43074 C326.542032,232.554521 323.211513,236.248598 319.025765,236.248598 L319.025765,236.248598 L318.949281,236.248598 C315.507512,236.248598 312.677613,233.705022 312.135274,230.322828 C306.259931,193.368201 286.541028,160.357157 258.158601,137.409526 C255.495576,135.247139 254.716832,131.539201 256.441193,128.579782 L256.441193,128.579782 Z M238.201903,160.112502 C240.412979,156.293673 245.572156,155.524362 248.881817,158.449128 C269.087435,176.344261 283.522005,200.504769 289.140085,227.867272 C290.023125,232.178183 286.803854,236.246519 282.388655,236.246519 L282.388655,236.246519 L282.312171,236.246519 C278.995558,236.246519 276.249095,233.86928 275.574648,230.632631 C270.512814,206.284994 257.649636,184.785884 239.675954,168.838285 C237.186755,166.634315 236.498401,163.05113 238.160185,160.174879 L238.160185,160.174879 Z M219.976519,191.555123 C222.277985,187.590748 227.791768,186.911537 230.962368,190.231355 C240.863538,200.59972 248.34504,213.289878 252.530787,227.380042 C253.844917,231.794914 250.493538,236.244439 245.8767,236.244439 L245.8767,236.244439 L245.793264,236.244439 C242.678289,236.244439 240.056982,234.123638 239.160036,231.143426 C235.613971,219.347331 229.321444,208.660153 221.040339,199.906647 C218.898793,197.6403 218.37036,194.306621 219.934801,191.624431 L219.934801,191.624431 Z M281.128759,24.8808852 L271.443134,41.5908636 L276.511921,59.3057973 L294.42998,54.8146873 L304.108651,38.1116396 L292.698666,41.1542279 C288.99268,42.1591831 285.175445,39.9621432 284.181156,36.2542052 L284.181156,36.2542052 L281.128759,24.8808852 Z" id="Combined-Shape" fill="#36454F"></path>
            <path d="M180.2311,272.264084 C173.681814,277.869273 164.112963,280.129209 154.495854,276.502321 C147.877628,274.008836 142.555472,268.541029 140.266668,261.864259 C135.351257,247.521568 143.24487,233.92074 155.598891,229.572597 C157.253448,228.981854 158.721867,227.958357 159.597403,226.433416 C162.713484,221.054907 157.584359,214.391875 151.66932,216.34957 C134.834208,221.941022 123.086858,238.694768 125.258463,257.701581 C127.223249,274.888082 140.976749,289.113998 158.15656,291.586875 C170.331337,293.324759 181.637473,289.464322 189.820633,282.176202 C194.446497,278.068477 191.178748,270.361342 184.981056,270.361342 C183.209302,270.361342 181.575427,271.116943 180.2311,272.264084" id="Fill-7" fill="#A9B240"></path>
        </g>
    </g>
</svg>