<?xml version="1.0" encoding="UTF-8"?>
<svg width="415px" height="257px" viewBox="0 0 415 257" version="1.1" xmlns="http://www.w3.org/2000/svg" xmlns:xlink="http://www.w3.org/1999/xlink">
    <!-- Generator: Sketch 63.1 (92452) - https://sketch.com -->
    <title>Page 1</title>
    <desc>Created with Sketch.</desc>
    <g id="Page-1" stroke="none" stroke-width="1" fill="none" fill-rule="evenodd">
        <path d="M395.00656,130.646 C438.205585,84.537 407.758567,0 338.605528,0 C314.985514,0 294.176502,15.361 272.26349,24.021 C204.19045,50.903 163.099427,-4.619 90.2813851,18.298 C-1.46166748,47.188 -31.933685,160.389 39.5783561,225.424 C60.8383683,244.751 89.2273845,257 121.055403,257 C156.899423,257 185.96644,238.175 211.293455,216.689 C225.801463,204.365 239.983471,192.668 254.442479,182.678 C311.797512,143.07 361.597541,166.313 395.00656,130.646" id="Lily-Pad" fill="#EBEDD1" transform="translate(207.500000, 128.500000) scale(-1, 1) translate(-207.500000, -128.500000) "></path>
        <path d="M347.114554,186.662479 C376.02846,159.596928 382.071039,121.076883 367.036038,91.0982076 C346.172443,49.487919 296.6793,42.0294302 256.373175,51.4420012 C230.035714,57.5864884 212.264139,68.6327413 187.11796,54.7979252 C170.945532,45.8828747 148.108674,37.2342246 129.342569,39.3121471 C95.0431199,43.1123115 69.1680973,74.2624279 79.1737188,117.737519 C83.3320764,135.76418 96.1453611,153.718841 112.690468,169.169339 C158.274426,211.703389 215.889687,225.502205 276.792283,216.267474 C304.284405,212.093629 330.017967,202.628498 347.096603,186.662479 L347.114554,186.662479 Z" id="Lily-Pad" fill="#F9F9F0" transform="translate(226.000000, 129.000000) scale(-1, -1) translate(-226.000000, -129.000000) "></path>
    </g>
</svg>