<?xml version="1.0" encoding="UTF-8"?>
<svg width="210px" height="472px" viewBox="0 0 210 472" version="1.1" xmlns="http://www.w3.org/2000/svg" xmlns:xlink="http://www.w3.org/1999/xlink">
    <!-- Generator: Sketch 63.1 (92452) - https://sketch.com -->
    <title>Page 1</title>
    <desc>Created with Sketch.</desc>
    <g id="Page-1" stroke="none" stroke-width="1" fill="none" fill-rule="evenodd">
        <path d="M106.7538,149.331784 C69.0774,114.044001 0,138.915789 0,195.404561 C0,214.698752 12.552,231.696743 19.6284,249.596534 C41.5938,305.203907 -3.7734,338.76909 14.952,398.251261 C38.5584,473.194224 131.058,498.085812 184.1988,439.669241 C199.9914,422.302849 210,399.112861 210,373.113673 C210,343.833688 194.6178,320.0899 177.0618,299.40131 C166.9914,287.549516 157.4334,275.965321 149.2704,264.154927 C116.9064,217.30275 135.8982,176.62277 106.7538,149.331784" id="Lily-Pad---Large" fill="#EBEDD1"></path>
        <path d="M162.662472,27.7921808 C135.597113,-1.02481 97.07641,-7.04738395 67.0983815,7.93713164 C25.4883421,28.731127 18.0296683,78.0584316 27.4416772,118.22868 C33.5870164,144.477886 44.6330269,162.189341 30.7983471,187.251879 C21.8830053,203.369789 13.2336638,226.129578 15.3123324,244.833253 C19.1130027,279.016887 50.2623656,304.805277 93.7377401,294.833802 C111.763757,290.689121 129.718441,277.918787 145.169789,261.429293 C187.703829,215.998283 201.502509,158.576063 192.267167,97.878187 C188.09383,70.4776065 178.627821,44.8310574 162.662472,27.8094947 L162.662472,27.7921808 Z" id="Lily-Pad---Small" fill="#F9F9F0"></path>
    </g>
</svg>