<?xml version="1.0" encoding="UTF-8"?>
<svg width="290px" height="644px" viewBox="0 0 290 644" version="1.1" xmlns="http://www.w3.org/2000/svg" xmlns:xlink="http://www.w3.org/1999/xlink">
    <!-- Generator: Sketch 63.1 (92452) - https://sketch.com -->
    <title>Page 1</title>
    <desc>Created with Sketch.</desc>
    <g id="Page-1" stroke="none" stroke-width="1" fill="none" fill-rule="evenodd">
        <path d="M147.421914,198.546255 C95.3926,149.830378 0,184.166651 0,262.151151 C0,288.787378 17.3337143,312.253632 27.1058857,336.964848 C57.4390571,413.732549 -5.21088571,460.070324 20.648,542.187303 C53.2473143,645.648385 180.984857,680.011993 254.369771,599.366107 C276.1786,575.391265 290,543.376768 290,507.484085 C290,467.062158 268.757914,434.283123 244.513914,405.721884 C230.607171,389.360115 217.408029,373.367776 206.135314,357.063161 C161.442171,292.382279 187.668943,236.222307 147.421914,198.546255" id="Lily-Pad---Large" fill="#EBEDD1"></path>
        <path d="M212.272884,32.4709991 C180.696632,-1.19733694 135.755812,-8.23381222 100.781445,9.27334909 C52.2363991,33.5680171 43.534613,91.1995817 54.5152901,138.132498 C61.6848525,168.800763 74.5718647,189.493944 58.4314049,218.775765 C48.0301728,237.607128 37.9392744,264.198531 40.3643878,286.050973 C44.7985031,325.989427 81.1394265,356.119297 131.860697,344.469122 C152.89105,339.626683 173.838181,324.706461 191.864754,305.440959 C241.487801,252.36163 257.586261,185.27237 246.811695,114.355996 C241.942801,82.3425234 230.899124,52.3783734 212.272884,32.4912278 L212.272884,32.4709991 Z" id="Lily-Pad---Small" fill="#F9F9F0" transform="translate(145.000000, 173.500000) scale(-1, 1) translate(-145.000000, -173.500000) "></path>
    </g>
</svg>