<?xml version="1.0" encoding="UTF-8"?>
<svg width="445px" height="312px" viewBox="0 0 445 312" version="1.1" xmlns="http://www.w3.org/2000/svg" xmlns:xlink="http://www.w3.org/1999/xlink">
    <!-- Generator: Sketch 63.1 (92452) - https://sketch.com -->
    <title>Assets/Graphic/Solutions</title>
    <desc>Created with Sketch.</desc>
    <g id="Assets/Graphic/Solutions" stroke="none" stroke-width="1" fill="none" fill-rule="evenodd" opacity="0.0399999991">
        <g id="Solutions---Seizing-Oppotunities">
            <path d="M364.614168,214.47651 L438.015695,286.530201 L420.696234,307 L348.119443,234.127517 L364.614168,214.47651 Z M23.1733586,185 C30.4611867,185 36.3691387,190.86537 36.3691387,198.100671 C36.3691387,205.335972 30.4611867,211.201342 23.1733586,211.201342 C15.8855305,211.201342 9.97757848,205.335972 9.97757848,198.100671 C9.97757848,190.86537 15.8855305,185 23.1733586,185 Z" id="Oval-2" fill="#A9B240"></path>
            <ellipse id="Oval" fill="#A9B240" cx="100.274664" cy="45.5" rx="12.4719731" ry="12.5"></ellipse>
            <ellipse id="Oval" fill="#A9B240" cx="260.913677" cy="127.5" rx="13.4697309" ry="13.5"></ellipse>
            <path d="M429.881354,292.471458 L425.513582,296.859446 C424.083241,298.289397 421.599332,298.289397 420.14806,296.852436 L357.931722,234.341139 C356.459518,232.855112 356.452541,230.436812 357.924745,228.957794 L362.28554,224.562797 C363.004199,223.847821 363.960086,223.448276 364.97179,223.448276 C365.990472,223.448276 366.939381,223.847821 367.65804,224.562797 L429.881354,287.074094 C430.600013,287.803088 430.990741,288.763399 430.990741,289.772776 C430.990741,290.796172 430.606991,291.742464 429.881354,292.471458 M175.527778,127.383038 C175.527778,116.102435 177.793352,105.351699 181.82259,95.507316 L237.123523,123.590302 C235.945424,130.736543 238.057637,138.322017 243.557755,143.822879 C248.088904,148.34767 254.035166,150.620524 259.988399,150.620524 C265.934661,150.620524 271.887894,148.34767 276.412073,143.822879 C283.745563,136.495368 285.035198,125.48667 280.504049,116.736882 L324.379515,72.8275862 C336.878516,87.5593013 344.462963,106.592705 344.462963,127.383038 C344.462963,173.962588 306.568613,211.862069 260.002341,211.862069 C213.422127,211.862069 175.527778,173.962588 175.527778,127.383038 M253.991352,121.831003 C255.760595,120.054054 258.087829,119.172414 260.408258,119.172414 C262.728687,119.172414 265.049117,120.054054 266.818359,121.831003 C270.356843,125.384902 270.356843,131.159988 266.818359,134.713886 C263.286679,138.267785 257.529837,138.267785 253.991352,134.713886 C250.459673,131.159988 250.459673,125.384902 253.991352,121.831003 M260.382849,42.2068966 C281.11145,42.2068966 300.100491,49.8351817 314.796296,62.403957 L271.008083,106.601694 C262.275491,102.040162 251.281469,103.338444 243.968358,110.71409 C243.912692,110.770232 243.884859,110.833392 243.829193,110.896552 L188.712963,82.6782126 C203.582725,58.438933 230.100583,42.2068966 260.382849,42.2068966 M94.1263347,51.9606411 C90.5875181,48.4070758 90.5875181,42.6256985 94.1263347,39.078967 C95.8889375,37.3021844 98.21639,36.4137931 100.537037,36.4137931 C102.857684,36.4137931 105.185137,37.3021844 106.947739,39.078967 C110.486556,42.6256985 110.486556,48.4070758 106.947739,51.9606411 C103.415728,55.5073725 97.6583458,55.5073725 94.1263347,51.9606411 M30.3108416,203.40454 C26.7678795,206.963936 21.0148162,206.950272 17.492255,203.40454 C15.7785766,201.682912 14.8333333,199.394241 14.8333333,196.968932 C14.8333333,194.536791 15.7785766,192.254952 17.492255,190.533324 C19.2059334,188.811697 21.4840377,187.862069 23.8981481,187.862069 C26.3190589,187.862069 28.5971632,188.811697 30.3108416,190.533324 C32.02452,192.254952 32.962963,194.536791 32.962963,196.968932 C32.962963,199.394241 32.02452,201.682912 30.3108416,203.40454 M439.819922,277.366313 L377.811953,215.20829 C374.474453,211.862713 370.031406,210.015676 365.303281,210.015676 L365.289375,210.015676 C361.89625,210.015676 358.663047,211.005409 355.867891,212.789717 L334.952891,191.824104 C349.916016,174.545595 359.052422,152.060533 359.052422,127.442666 C359.052422,102.810859 349.909063,80.3257965 334.938984,63.0472878 L373.208984,24.6567973 L374.168516,38.8336778 C374.432734,42.6810908 377.811953,45.5805904 381.573594,45.3157323 C385.411719,45.0508741 388.304219,41.7331774 388.046953,37.8927344 L386.051406,8.40984138 C386.016641,7.97073446 385.884531,7.5664773 385.780234,7.15525018 C385.724609,6.94615165 385.717656,6.72311322 385.641172,6.52098464 C385.37,5.77519987 384.952813,5.09911462 384.459141,4.49272888 C384.347891,4.3463599 384.201875,4.22787074 384.069766,4.09544167 C383.610859,3.61451504 383.089375,3.21025788 382.505313,2.87570023 C382.352344,2.79206082 382.220234,2.7084214 382.060313,2.63175194 C381.886484,2.54811253 381.740469,2.42265341 381.545781,2.34598395 C380.80875,2.0671859 380.043906,1.96263664 379.286016,1.94172679 L350.187188,0.00408038912 C346.418594,-0.12137873 343.039375,2.65963175 342.789062,6.50007478 C342.53875,10.3474878 345.438203,13.6582145 349.269375,13.9230727 L363.321641,14.8500762 L325.100313,53.191777 C307.877422,38.1994122 285.453594,29.0478665 260.902109,29.0478665 C225.239531,29.0478665 194.047813,48.2709915 176.859688,76.8617308 L123.397109,49.6580118 C124.537422,42.5416918 122.437578,35.0002047 116.972422,29.5357631 C107.947266,20.4817966 93.2344531,20.4817966 84.2092969,29.5357631 C75.1702344,38.5897295 75.1702344,53.331176 84.2092969,62.3851424 C84.2301562,62.4130222 84.271875,62.4339321 84.3066406,62.4687819 L27.0407031,174.503775 C19.8998438,173.297974 12.293125,175.409869 6.79320312,180.9231 C2.41273438,185.30023 0,191.134079 0,197.344305 C0,203.547561 2.41273438,209.38141 6.79320312,213.76551 C11.3057812,218.295978 17.24375,220.554242 23.1747656,220.554242 C29.1127344,220.554242 35.04375,218.295978 39.5632812,213.76551 C43.94375,209.38141 46.3495312,203.547561 46.3495312,197.344305 C46.3495312,191.134079 43.94375,185.30023 39.5632812,180.9231 C39.5215625,180.881281 39.4728906,180.853401 39.4311719,180.818551 L96.6832031,68.8044674 C97.9834375,69.0205359 99.2767187,69.1738748 100.590859,69.1738748 C106.521875,69.1738748 112.459844,66.9086407 116.972422,62.3851424 C117.048906,62.301503 117.104531,62.2108937 117.181016,62.1272542 L170.448906,89.2333939 C165.484375,100.984731 162.737891,113.900051 162.737891,127.442666 C162.737891,181.696765 206.772031,225.837465 260.902109,225.837465 C285.460547,225.837465 307.884375,216.678949 325.121172,201.679615 L346.036172,222.645227 C341.718281,229.489719 342.503984,238.676115 348.455859,244.642393 L410.456875,306.800417 C413.801328,310.152963 418.251328,312 422.965547,312 C427.700625,312 432.143672,310.152963 435.474219,306.800417 L439.812969,302.451167 C443.164375,299.105591 445,294.651792 445,289.905255 C445,285.179628 443.164375,280.71886 439.819922,277.366313" id="Fill-1" fill="#405D6F"></path>
        </g>
    </g>
</svg>