<?xml version="1.0" encoding="UTF-8"?>
<svg width="445px" height="285px" viewBox="0 0 445 285" version="1.1" xmlns="http://www.w3.org/2000/svg" xmlns:xlink="http://www.w3.org/1999/xlink">
    <!-- Generator: Sketch 63.1 (92452) - https://sketch.com -->
    <title>Assets/Graphic/Visioning and Strategy</title>
    <desc>Created with Sketch.</desc>
    <g id="Assets/Graphic/Visioning-and-Strategy" stroke="none" stroke-width="1" fill="none" fill-rule="evenodd" opacity="0.0399999991">
        <g id="Solutions---Visioning-and-Strategy">
            <polygon id="Path-7" fill="#A9B240" points="281 80 307 45 346 41 380 51 417 132 403 132 356 121 322 132 287 167 278 179"></polygon>
            <polygon id="Path-7" fill="#A9B240" transform="translate(95.500000, 110.000000) scale(-1, 1) translate(-95.500000, -110.000000) " points="29 80 55 45 94 41 128 51 165 132 151 132 104 121 70 132 35 167 26 179"></polygon>
            <circle id="Oval" fill="#A9B240" cx="224.5" cy="111.5" r="31.5"></circle>
            <path d="M87.2060938,23.8469159 C93.6933594,7.93717497 110.005391,-1.75033639 126.922344,0.263554861 C128.521563,0.506610701 129.877422,0.728833184 131.309766,1.01355574 C131.441875,1.0343891 131.573984,1.06216691 131.699141,1.08994472 C131.713047,1.09688917 131.733906,1.09688917 131.740859,1.10383362 C149.033281,4.79133795 161.458516,20.5760787 161.284688,38.624711 L161.284688,38.624711 L161.103906,59.5969578 C168.175234,70.0136367 172.305391,82.5761514 172.479219,95.9303338 L172.479219,95.9303338 L193.811406,85.1178211 C200.674141,76.8261447 210.916094,71.430305 222.5,71.430305 C234.076953,71.430305 244.318906,76.8261447 251.181641,85.1108766 L251.181641,85.1108766 L272.520781,95.9233893 C272.687656,82.5761514 276.817813,70.0205811 283.889141,59.6108467 L283.889141,59.6108467 L283.708359,38.6177665 C283.541484,20.5760787 295.973672,4.79133795 313.252188,1.10383362 C313.273047,1.09688917 313.293906,1.08994472 313.307813,1.08994472 C313.432969,1.06216691 313.558125,1.0343891 313.683281,1.01355574 C315.115625,0.728833184 316.471484,0.506610701 317.834297,0.298277124 C334.97375,-1.81283646 351.299688,7.94411943 357.78,23.8399714 L357.78,23.8399714 L362.501172,35.4510961 C378.9175,41.7983258 392.622109,54.7705632 399.644766,72.0414168 L399.644766,72.0414168 L435.550703,160.277631 C435.578516,160.360965 435.564609,160.444298 435.592422,160.527632 C441.565156,172.194312 445,185.35405 445,199.333233 C445,246.569399 406.521406,285 359.22625,285 C311.924141,285 273.445547,246.569399 273.445547,199.333233 C273.445547,198.826288 273.515078,198.333232 273.522031,197.826287 C273.515078,197.694342 273.4525,197.590175 273.445547,197.465175 L273.445547,197.465175 L272.903203,142.083166 L251.974297,131.478987 C245.125469,140.319275 234.521953,146.117893 222.5,146.117893 C210.471094,146.117893 199.874531,140.319275 193.025703,131.485931 L193.025703,131.485931 L172.089844,142.083166 L171.5475,197.465175 C171.5475,197.590175 171.477969,197.694342 171.471016,197.826287 C171.484922,198.333232 171.5475,198.826288 171.5475,199.333233 C171.5475,246.569399 133.068906,285 85.7667969,285 C38.4716406,285 0,246.569399 0,199.333233 C0,185.35405 3.43484375,172.194312 9.400625,160.527632 C9.4284375,160.444298 9.41453125,160.360965 9.44929688,160.277631 L9.44929688,160.277631 L45.3482812,72.0414168 C52.3709375,54.7775077 66.0825,41.8052703 82.4988281,35.4510961 L82.4988281,35.4510961 Z M359.22625,127.555371 C319.593437,127.555371 287.351797,159.756798 287.351797,199.333233 C287.351797,238.909668 319.593437,271.111095 359.22625,271.111095 C398.852109,271.111095 431.09375,238.909668 431.09375,199.333233 C431.09375,159.756798 398.852109,127.555371 359.22625,127.555371 Z M85.7667969,127.555371 C46.1409375,127.555371 13.90625,159.756798 13.90625,199.333233 C13.90625,238.909668 46.1409375,271.111095 85.7667969,271.111095 C125.399609,271.111095 157.64125,238.909668 157.64125,199.333233 C157.64125,159.756798 125.399609,127.555371 85.7667969,127.555371 Z M85.8626059,140.506993 C89.6873443,140.506993 92.7914798,143.600306 92.7914798,147.427156 C92.7914798,151.254006 89.6873443,154.347319 85.8626059,154.347319 C61.0156639,154.347319 40.7972098,174.540355 40.7972098,199.356061 C40.7972098,203.182911 37.6930742,206.276224 33.8683358,206.276224 C30.0435974,206.276224 26.9394619,203.182911 26.9394619,199.356061 C26.9394619,166.900495 53.373116,140.506993 85.8626059,140.506993 Z M360.246743,140.506993 C364.071079,140.506993 367.174888,143.600306 367.174888,147.427156 C367.174888,151.254006 364.071079,154.347319 360.246743,154.347319 C335.395487,154.347319 315.17916,174.540355 315.17916,199.356061 C315.17916,203.182911 312.075351,206.276224 308.251015,206.276224 C304.426679,206.276224 301.32287,203.182911 301.32287,199.356061 C301.32287,166.900495 327.753743,140.506993 360.246743,140.506993 Z M386.767578,77.2636452 C377.978828,55.6663976 356.013906,42.4927711 333.263281,45.3677744 C331.086953,45.6455525 328.841094,46.0136085 326.553516,46.4719424 C302.752969,51.5275039 286.135,72.8400289 286.371406,97.2914465 L286.371406,97.2914465 L286.927656,153.430401 C302.168906,129.569262 328.841094,113.666466 359.22625,113.666466 C377.213984,113.666466 393.901484,119.249806 407.710391,128.735928 L407.710391,128.735928 Z M111.722812,45.3677744 C89.0208594,42.4997155 67.0211719,55.6663976 58.2324219,77.2636452 L58.2324219,77.2636452 L37.2896094,128.735928 C51.0915625,119.249806 67.7860156,113.666466 85.7667969,113.666466 C116.151953,113.666466 142.824141,129.569262 158.072344,153.430401 L158.072344,153.430401 L158.614687,97.2914465 C158.858047,72.8400289 142.240078,51.5275039 119.107031,46.6177759 C116.158906,46.0136085 113.913047,45.6455525 111.722812,45.3677744 Z M222.5,85.3192102 C209.553281,85.3192102 199.012344,95.8470003 199.012344,108.777571 C199.012344,121.708142 209.553281,132.228987 222.5,132.228987 C235.446719,132.228987 245.980703,121.708142 245.980703,108.777571 C245.980703,95.8470003 235.446719,85.3192102 222.5,85.3192102 Z M259.497578,104.902567 C259.629687,106.194235 259.886953,107.451181 259.886953,108.777571 C259.886953,112.381742 259.2125,115.798413 258.252969,119.097028 L258.252969,119.097028 L272.750234,126.437314 L272.604219,111.541463 Z M185.502422,104.902567 L172.388828,111.548408 L172.242813,126.437314 L186.747031,119.097028 C185.7875,115.798413 185.106094,112.381742 185.106094,108.777571 C185.106094,107.451181 185.370313,106.194235 185.502422,104.902567 L185.502422,104.902567 Z M344.895859,29.0691442 C340.779609,18.9510768 330.419453,12.7496806 319.725547,14.0552377 C318.800781,14.2080157 317.625703,14.3885714 316.395,14.6316273 C316.346328,14.6455162 316.290703,14.6524606 316.235078,14.6663495 C316.207266,14.673294 316.186406,14.673294 316.165547,14.6802384 C305.311719,16.9996856 297.510313,27.0205307 297.614609,38.4997108 L297.614609,38.4997108 L297.670234,44.8608294 C304.984922,39.1733227 313.558125,35.0274845 322.993516,33.0274822 L322.993516,33.0274822 L323.820938,32.8538709 C326.4075,32.3260925 329.001016,31.9094253 331.531953,31.5899805 C336.364375,30.9858131 341.168984,30.999702 345.87625,31.4858137 L345.87625,31.4858137 Z M125.017188,14.0205154 C114.573594,12.7774584 104.220391,18.9580212 100.097187,29.0691442 L100.097187,29.0691442 L99.1167969,31.4858137 C103.824062,30.999702 108.621719,30.9858131 113.454141,31.5899805 C115.998984,31.9094253 118.585547,32.3260925 121.220781,32.8677598 L121.220781,32.8677598 L122.082969,33.0483155 C131.483594,35.0413734 140.035937,39.1733227 147.322812,44.8469405 L147.322812,44.8469405 L147.378437,38.4997108 C147.489687,27.0205307 139.688281,16.9996856 128.834453,14.6802384 C128.757969,14.6663495 128.688437,14.6524606 128.605,14.6316273 C127.367344,14.3885714 126.192266,14.2080157 125.017188,14.0205154 Z" id="Combined-Shape" fill="#36454F"></path>
        </g>
    </g>
</svg>