<?xml version="1.0" encoding="UTF-8"?>
<svg width="240px" height="56px" viewBox="0 0 240 56" version="1.1" xmlns="http://www.w3.org/2000/svg" xmlns:xlink="http://www.w3.org/1999/xlink">
    <!-- Generator: Sketch 63.1 (92452) - https://sketch.com -->
    <title>Assets/Logo/-Lily Pad/Knock Out</title>
    <desc>Created with Sketch.</desc>
    <g id="Assets/Logo/-Lily-Pad/Knock-Out" stroke="none" stroke-width="1" fill="none" fill-rule="evenodd">
        <path d="M5.10492602,45.4320988 C7.14936125,45.4320988 9.18010301,46.5346857 9.45260309,48.5770706 L8.42285406,48.5770706 C8.05860773,47.0791393 6.68104454,46.2214197 5.10492602,46.2214197 C2.24162122,46.2214197 1.03111837,48.3732425 1.03111837,50.49497 C1.03111837,52.6180654 2.24162122,54.7685203 5.10492602,54.7685203 C7.1041728,54.7685203 8.37766561,53.3813948 8.57348225,51.6522759 L9.60460062,51.6522759 C9.31566838,54.0339183 7.63547948,55.5592092 5.10492602,55.5592092 C1.69662107,55.5592092 4.77484718e-12,53.1502072 4.77484718e-12,50.49497 C4.77484718e-12,47.8411007 1.69662107,45.4320988 5.10492602,45.4320988 Z M235.229752,45.4320988 C237.501499,45.4320988 239.348748,46.5346857 239.74312,48.6577811 L238.713371,48.6577811 C238.577806,47.5415144 237.28925,46.2214197 235.229752,46.2214197 C232.366447,46.2214197 231.154575,48.3718746 231.154575,50.49497 C231.154575,52.6180654 232.366447,54.7685203 235.229752,54.7685203 C237.623371,54.7685203 239.015997,53.2582772 238.970808,51.2035804 L235.288634,51.2035804 L235.288634,50.4142595 L239.880055,50.4142595 L239.880055,55.3540131 L239.137869,55.3540131 L239.000934,53.5852229 L238.970808,53.5852229 C238.243685,54.9737164 236.789439,55.5578412 235.229752,55.5578412 C231.820078,55.5578412 230.123457,53.1502072 230.123457,50.49497 C230.123457,47.8411007 231.820078,45.4320988 235.229752,45.4320988 Z M32.7606164,45.2725474 C36.1538585,45.2725474 37.8504796,47.6815494 37.8504796,50.3354186 C37.8504796,52.9892879 36.1538585,55.3982899 32.7606164,55.3982899 C29.3523114,55.3982899 27.654321,52.9892879 27.654321,50.3354186 C27.654321,47.6815494 29.3523114,45.2725474 32.7606164,45.2725474 Z M108.685439,45.4766491 L108.685439,51.4916301 C108.669007,53.7515229 109.865817,54.6092425 111.850001,54.6092425 C113.850617,54.6092425 115.046057,53.7515229 115.032363,51.4916301 L115.032363,45.4766491 L116.062112,45.4766491 L116.062112,51.6968262 C116.062112,53.696804 114.866672,55.3985635 111.850001,55.3985635 C108.85113,55.3985635 107.654321,53.696804 107.654321,51.6968262 L107.654321,45.4766491 L108.685439,45.4766491 Z M85.0684373,45.2722738 C87.2032494,45.2722738 89.0819936,46.30783 89.0683002,48.2941281 L88.0371818,48.2941281 C87.9769305,46.8098764 86.6144301,46.0615947 85.0821307,46.0615947 C83.6744419,46.0615947 82.3721928,46.5526973 82.3721928,47.9945418 C82.3721928,48.9056124 83.1294418,49.288645 84.0071933,49.4774254 L86.6431864,50.0629182 C88.1727472,50.4295352 89.44624,51.0300758 89.44624,52.6223973 C89.44624,53.2886006 89.1422449,55.3980163 85.3094424,55.3980163 C82.7501326,55.3980163 80.8713884,54.363828 80.9932603,51.9958653 L82.0230093,51.9958653 C81.9778208,53.997211 83.584065,54.6086954 85.5531861,54.6086954 C86.6883749,54.6086954 88.4164909,54.050562 88.4164909,52.6360771 C88.4164909,51.5334901 87.1881866,51.0984745 86.1885632,50.8809666 L83.7798816,50.3488248 C82.5077582,50.0629182 81.3410744,49.5184647 81.3410744,48.0082215 C81.3410744,47.0561117 82.0230093,45.2722738 85.0684373,45.2722738 Z M56.4602629,45.4766491 L62.7619983,53.696804 L62.7921239,53.696804 L62.7921239,45.4766491 L63.8232423,45.4766491 L63.8232423,55.1947354 L62.6716214,55.1947354 L56.3685166,46.9745805 L56.3397603,46.9745805 L56.3397603,55.1947354 L55.308642,55.1947354 L55.308642,45.4766491 L56.4602629,45.4766491 Z M134.363082,45.4766491 L134.363082,54.4040465 L140.422443,54.4040465 L140.422443,55.1947354 L133.333333,55.1947354 L133.333333,45.4766491 L134.363082,45.4766491 Z M167.587197,45.4766491 L167.587197,46.26597 L163.814646,46.26597 L163.814646,55.1947354 L162.784897,55.1947354 L162.784897,46.26597 L159.012346,46.26597 L159.012346,45.4766491 L167.587197,45.4766491 Z M204.608411,45.4766491 L210.910146,53.696804 L210.940272,53.696804 L210.940272,45.4766491 L211.97139,45.4766491 L211.97139,55.1947354 L210.81977,55.1947354 L204.516665,46.9745805 L204.487908,46.9745805 L204.487908,55.1947354 L203.45679,55.1947354 L203.45679,45.4766491 L204.608411,45.4766491 Z M185.891591,45.4755547 L185.891591,55.193641 L184.860472,55.193641 L184.860472,45.4755547 L185.891591,45.4755547 Z M32.7606164,46.0618683 C29.8973116,46.0618683 28.68407,48.2123232 28.68407,50.3354186 C28.68407,52.4585141 29.8973116,54.6089689 32.7606164,54.6089689 C35.607489,54.6089689 36.8207305,52.4585141 36.8207305,50.3354186 C36.8207305,48.2123232 35.607489,46.0618683 32.7606164,46.0618683 Z" id="Consulting" fill="#FFFFFF"></path>
        <path d="M219.551437,0.987654321 C226.480333,0.987654321 231.677005,2.72634909 235.141454,6.20373862 C238.301907,9.37880592 239.882133,13.4389523 239.882133,18.3855458 C239.882133,21.5756608 239.187874,24.5044928 237.803464,27.1720418 C236.417685,29.8395908 234.491014,31.9421666 232.02345,33.4770333 C228.913663,35.4195562 225.517682,36.3894496 221.832769,36.3894496 C221.393209,36.3894496 220.616789,36.3484104 219.500771,36.263596 C217.235871,36.1117509 215.268119,36.0351444 213.594777,36.0351444 C211.787239,36.0351444 210.215228,36.1281666 208.880115,36.3142111 C208.272125,36.3990254 207.790114,36.4496405 207.435454,36.4660562 C206.842526,36.4988875 206.548117,36.3087392 206.548117,35.896979 C206.548117,35.6151764 206.783644,35.426396 207.257438,35.3265339 C208.40769,35.0898745 209.149876,34.6671705 209.488105,34.0584222 C209.826334,33.4496738 209.996133,32.2061856 209.996133,30.3293255 L209.996133,7.50468175 C209.996133,5.79608241 209.70857,4.54575431 209.133444,3.7509615 C208.558318,2.95480072 207.603883,2.49105758 206.26877,2.35562817 C205.711446,2.30638111 205.432099,2.13264843 205.432099,1.83579811 C205.432099,1.50748438 205.652564,1.34195955 206.090755,1.34195955 L208.09411,1.44318961 C208.296773,1.46097327 208.888331,1.46918112 209.868783,1.46918112 C211.57499,1.46918112 212.901887,1.42677393 213.848106,1.34195955 L216.206122,1.11487589 C217.219439,1.03006151 218.335457,0.987654321 219.551437,0.987654321 Z M74.9089012,0.93747248 C75.3306601,0.93747248 75.7606351,0.964831957 76.2001955,1.01955091 C77.2956732,1.1508764 78.4418167,1.21517117 79.6399954,1.21517117 C82.1185137,1.21517117 83.7042176,1.17823588 84.3957379,1.10162934 C85.1379241,1.02502281 85.5843312,0.988087513 85.7363287,0.988087513 C86.2251857,0.988087513 86.4702988,1.15224437 86.4702988,1.48192607 C86.4702988,1.72952934 86.2758515,1.91146986 85.8869569,2.02637967 C84.7558762,2.36426921 84.1889665,2.93881822 84.1889665,3.75139469 C84.1889665,4.1905143 84.5532128,5.00309077 85.2844442,6.18638815 L85.9992434,7.40388487 L91.327373,15.7758848 L91.6601243,16.2820352 C91.8121219,16.5200626 91.9654887,16.6363404 92.1188556,16.6363404 C92.3037175,16.6363404 92.4803632,16.5200626 92.6487929,16.2847711 L92.9021222,15.9044744 L96.5678644,10.3436607 L97.8057542,8.37104239 C98.984762,6.49965416 99.57632,5.24522214 99.57632,4.60501038 C99.57632,3.47506397 98.5095986,2.65838358 96.3816332,2.15360123 C95.9585049,2.0510032 95.7558415,1.85811888 95.7722737,1.57084437 C95.7900752,1.28356986 95.9845225,1.13856464 96.3569849,1.13856464 C96.6116835,1.13856464 97.0608293,1.18644372 97.7044225,1.27809797 C98.1946487,1.3547045 99.3805033,1.39300777 101.260617,1.39300777 C102.988733,1.39300777 104.089688,1.36701627 104.563482,1.31640124 C105.208445,1.24937052 105.656221,1.20696333 105.91092,1.18917967 C106.368282,1.1563483 106.596963,1.30408947 106.596963,1.63650712 C106.596963,1.8991581 106.384714,2.09751431 105.962955,2.2288398 C104.458042,2.71994241 103.207828,3.66658031 102.212313,5.06875351 L100.563619,7.52973847 L94.4029266,16.710211 L93.7963058,17.5734025 C93.1527127,18.485841 92.8322855,19.323041 92.8322855,20.0836345 L92.8322855,30.6854318 C92.8322855,32.6471064 92.9924991,33.8481874 93.3142956,34.287307 C93.6347229,34.7264266 94.5562935,35.021909 96.0776381,35.1737541 C96.6007287,35.2243691 96.862274,35.3967338 96.862274,35.6935841 C96.862274,36.0902965 96.566495,36.2886527 95.9735677,36.2886527 C95.7873365,36.2886527 95.3477761,36.2462456 94.6535171,36.1614312 C94.2303889,36.1121841 93.611444,36.0615691 92.7994211,36.0109541 L90.7919583,35.908356 L88.8091437,35.9644429 C87.556191,35.9644429 86.71952,35.9931704 86.2963917,36.0492573 C85.8047961,36.1244959 85.4829995,36.1614312 85.3296326,36.1614312 C84.9407381,36.1614312 84.7462908,36.0218978 84.7462908,35.7414632 C84.7462908,35.4117815 85.0256376,35.2065854 85.5829619,35.123139 C87.0016055,34.9220469 87.9012665,34.5444861 88.2833144,33.9959286 C88.6626235,33.4460031 88.8529628,32.2654416 88.8529628,30.4569802 L88.877611,29.3667051 L88.877611,21.8086495 C88.877611,20.7265822 88.8022969,19.9317894 88.6502994,19.4242711 C88.4983019,18.9167528 88.1258394,18.1985665 87.5342815,17.2683443 L80.462973,6.03317508 L79.6002843,4.63784175 C79.1100581,3.84441691 78.4185378,3.19736528 77.5216154,2.69805483 C76.6260624,2.20011234 75.7387255,1.94977313 74.8596047,1.94977313 C74.3707477,1.94977313 74.1256346,1.79792803 74.1256346,1.49423784 C74.1256346,1.12351692 74.3858106,0.93747248 74.9089012,0.93747248 Z M51.3506535,1.08918078 C51.7368094,1.08918078 52.2694854,1.12338013 52.9432042,1.19041085 C54.0907171,1.29164091 55.3792727,1.34225594 56.8143485,1.34225594 C58.3658187,1.34225594 59.7735076,1.30121673 61.0387843,1.21503437 C61.6796387,1.182203 62.0425157,1.16441934 62.1260459,1.16441934 C62.5313726,1.16441934 62.734036,1.28890496 62.734036,1.53650823 C62.734036,1.8990213 62.4889229,2.13841672 61.9973273,2.25332653 L61.1113597,2.45578666 C59.5913844,2.82924352 58.8300274,4.3422226 58.8300274,6.99745984 L58.8300274,29.0382545 L58.856045,29.9247016 C58.856045,31.9547748 59.0491229,33.1558558 59.4380175,33.5265767 C59.8282814,33.9000336 61.0976662,34.0847101 63.2475412,34.0847101 C66.410733,34.0847101 69.1576433,33.7098852 71.484164,32.9588676 C73.8106848,32.206482 75.2964264,31.2160689 75.9400195,29.9821565 C76.1769166,29.5266212 76.4138136,29.2981696 76.6507107,29.2981696 C76.9204721,29.2981696 77.0478213,29.4664303 77.0300198,29.8043199 C76.9629218,30.9137467 76.4124443,32.1339794 75.3813259,33.462282 C73.9257099,35.2953669 71.5663249,36.2119094 68.3018014,36.2119094 C67.7595399,36.2119094 67.1337483,36.1872859 66.4244265,36.1366708 L63.6843629,35.9342107 C62.0767494,35.816565 60.3760203,35.7563741 58.5835449,35.7563741 C56.5021373,35.7563741 54.7603278,35.8576042 53.356747,36.0614323 C52.7638197,36.1448787 52.291395,36.1954937 51.9353647,36.2119094 C51.5122365,36.2296931 51.301357,36.0805839 51.301357,35.7673179 C51.301357,35.5046669 51.5314073,35.3063107 51.9901386,35.1736173 C53.1636691,34.82068 53.9510437,34.299482 54.350893,33.615495 C54.7507424,32.9301401 54.9520364,31.7755702 54.9520364,30.1517852 L54.978054,28.9862715 L54.978054,6.31210494 C54.978054,4.06315593 54.0646995,2.75263698 52.2393598,2.38191607 L51.0986936,2.15346444 C50.6933669,2.07001803 50.4893342,1.90586117 50.4893342,1.65688993 C50.4893342,1.27932915 50.7768971,1.08918078 51.3506535,1.08918078 Z M42.3932063,0.962232807 C42.8491989,0.962232807 43.0778799,1.1195498 43.0778799,1.43281581 C43.0778799,1.73103411 42.8587843,1.95401385 42.4192239,2.10175502 L41.101912,2.60927332 C39.8503287,3.08396025 39.2259065,5.1058256 39.2259065,8.67623735 L39.2259065,27.6623464 C39.2259065,30.0303092 39.3683186,31.5966392 39.6558815,32.3586007 C39.9954795,33.2204242 40.4117611,33.8305405 40.9102034,34.1848458 C41.4100151,34.540519 42.1919123,34.7949621 43.255895,34.9468072 C44.1021515,35.061717 44.5239104,35.268281 44.5239104,35.5664993 C44.5239104,35.9632118 44.2623651,36.161568 43.7379052,36.161568 C43.4832066,36.161568 43.1627794,36.1328405 42.7752542,36.0767536 C42.2507942,36.002883 41.3552412,35.9645797 40.0872258,35.9645797 L36.4118982,35.9084928 L33.4212441,36.0863294 C32.9296485,36.1369444 32.5243217,36.161568 32.2038945,36.161568 C31.7479019,36.161568 31.5192209,35.9892033 31.5192209,35.6431059 C31.5192209,35.3448876 31.7807662,35.1547392 32.3052262,35.0726608 C33.5896738,34.853785 34.4167594,34.4105614 34.7905912,33.7416222 C35.1603149,33.074051 35.3479155,31.6664059 35.3479155,29.518687 L35.3479155,7.80757396 C35.3479155,5.71183802 35.105541,4.300089 34.6249002,3.57369489 C34.14289,2.8459328 33.1158797,2.35619816 31.5452385,2.10175502 C31.0207786,2.00326091 30.7510172,1.8049047 30.734585,1.50805437 C30.7167835,1.14417333 30.9618967,0.962232807 31.4685551,0.962232807 C31.6041205,0.962232807 31.756118,0.971808624 31.9245477,0.990960258 C33.1583294,1.14006941 34.7988073,1.21530797 36.8432425,1.21530797 C38.0934564,1.21530797 39.1656552,1.18658052 40.0612082,1.13049359 L41.760568,0.990960258 C42.0809952,0.971808624 42.2918746,0.962232807 42.3932063,0.962232807 Z M183.64807,5.55111512e-16 C183.917832,5.55111512e-16 184.146513,0.244867319 184.332744,0.735969932 L195.232747,28.6316927 L195.790071,30.0010345 C196.584292,32.0461554 197.244318,33.3197391 197.767408,33.8176816 C198.290499,34.316992 199.355851,34.7096005 200.960726,34.996875 C201.485186,35.0967371 201.738515,35.3019332 201.722083,35.6151992 C201.704281,35.8956339 201.468754,36.0351672 201.012761,36.0351672 C200.859394,36.0351672 200.538967,36.0187515 200.048741,35.9845522 C199.170989,35.8997378 197.607195,35.8586986 195.360096,35.8586986 C193.010297,35.8586986 191.540987,35.9093136 190.949429,36.0105437 C190.593399,36.0775744 190.331854,36.1117737 190.163424,36.1117737 C189.722494,36.1117737 189.503399,35.938041 189.503399,35.5919437 C189.503399,35.3292927 189.715647,35.15556 190.137406,35.0721136 L190.923412,34.894277 C191.768299,34.7260162 192.190058,34.1514672 192.190058,33.1706299 C192.190058,32.2732391 191.675183,30.4894012 190.644065,27.8163803 L189.376049,24.4662123 C189.022758,23.5359901 188.743411,22.9983764 188.540748,22.8547391 C188.338084,22.7111019 187.762958,22.6385993 186.81674,22.6385993 L177.640745,22.6385993 C176.389161,22.6385993 175.612742,22.7411973 175.308746,22.9436574 C175.003382,23.1474855 174.598055,23.8232646 174.091397,24.9737306 L172.42901,28.7041953 C171.678607,30.4127947 171.303406,31.6809064 171.303406,32.5098986 C171.303406,33.3046914 171.501962,33.8806084 171.899072,34.2362816 C172.296183,34.5919548 173.07808,34.894277 174.244764,35.1487201 C174.751422,35.2472142 175.012967,35.4455705 175.0294,35.7424208 C175.047201,36.0228554 174.811673,36.1610208 174.321447,36.1610208 C174.136585,36.1610208 173.850392,36.151445 173.461497,36.1336613 L171.035014,35.991392 C170.22573,35.9530888 169.290466,35.9339371 168.227853,35.9339371 C167.738996,35.9339371 167.359687,35.9462489 167.089925,35.9708724 C166.229975,36.0638946 165.75755,36.1117737 165.67402,36.1117737 C165.219397,36.1117737 164.992085,35.9558247 164.992085,35.6425587 C164.992085,35.366228 165.134497,35.1842875 165.42206,35.0981051 L166.360063,34.8204064 C166.698292,34.7191763 167.154284,34.3087842 167.72941,33.5905979 C168.303167,32.8724116 168.776961,32.1241299 169.149423,31.3484888 L169.883393,29.6754568 L182.9141,0.759225487 C183.133196,0.253075162 183.378309,5.55111512e-16 183.64807,5.55111512e-16 Z M153.62582,0.936788493 C157.157366,0.936788493 160.024779,1.78630025 162.232166,3.48258783 C164.436815,5.17887541 165.53914,7.39499304 165.53914,10.1295728 C165.53914,13.4387015 164.186225,16.0460597 161.483133,17.9543832 C159.45513,19.3729721 157.309363,20.0815825 155.045833,20.0815825 C153.979111,20.0815825 153.004136,19.9666727 152.116799,19.7354852 C151.230832,19.5042976 150.802226,19.2553263 150.83646,18.9913074 C150.870693,18.7888473 151.030907,18.6889852 151.3171,18.6889852 C151.452666,18.6889852 151.621096,18.7149767 151.82239,18.7655917 C152.209915,18.8832374 152.834337,18.9420603 153.694287,18.9420603 C156.122139,18.9420603 158.066612,18.2731211 159.523598,16.9352427 C160.983322,15.5973643 161.711814,13.8189982 161.711814,11.6001447 C161.711814,9.04340154 160.750533,6.92577801 158.8266,5.25001005 C156.905406,3.5728741 154.469338,2.73567411 151.518394,2.73567411 C150.841937,2.73567411 150.377728,2.86289568 150.125768,3.11460286 C149.872439,3.369046 149.747829,3.8505728 149.747829,4.56055123 L149.721811,5.29515318 L149.721811,26.4303492 L149.695793,28.8899662 L149.772477,31.0185335 C149.958708,33.0622864 150.718696,34.2537916 152.053809,34.5916812 C152.983596,34.8461243 153.684702,34.9719779 154.157126,34.9719779 C154.663785,34.9719779 154.926699,35.1210871 154.943132,35.4179374 C154.977365,35.8461132 154.681586,36.0608851 154.055795,36.0608851 C153.768232,36.0608851 153.202691,36.0266857 152.357804,35.959655 C151.816912,35.9254557 150.939161,35.90904 149.721811,35.90904 L147.922489,35.858425 L145.943782,35.8830485 C144.948267,35.8830485 144.195126,35.9172478 143.688468,35.9856465 C143.028442,36.0690929 142.547802,36.1115001 142.243807,36.1115001 C141.804246,36.1115001 141.585151,35.9459753 141.585151,35.6162936 C141.585151,35.3030276 141.863128,35.1046714 142.420452,35.021225 C143.739134,34.8201328 144.638795,34.077323 145.120805,32.7968995 C145.601446,31.51374 145.84382,29.2032322 145.84382,25.86264 L145.84382,10.5030296 C145.84382,6.96134533 145.631571,4.72060417 145.209812,3.78491005 C144.786684,2.84921594 143.730917,2.28834666 142.041143,2.10230221 C141.585151,2.06810287 141.364686,1.89573816 141.381118,1.58384012 C141.398919,1.18575973 141.727563,0.9887715 142.371156,0.9887715 C142.690214,0.9887715 143.122927,1.02981072 143.66245,1.11325712 C144.727802,1.26647019 145.605554,1.34170875 146.299813,1.34170875 C147.380228,1.34170875 148.952238,1.25005451 151.014475,1.06401006 C152.079827,0.979195683 152.947993,0.936788493 153.62582,0.936788493 Z M0.861319331,0.987654321 C1.24747522,0.987654321 1.78015124,1.02185367 2.45387002,1.08888439 C3.6013829,1.19011445 4.88993852,1.24072948 6.32501429,1.24072948 C7.87648457,1.24072948 9.2841734,1.19969027 10.5494501,1.11350792 C11.1903046,1.08067654 11.5531816,1.06289288 11.6367117,1.06289288 C12.0420385,1.06289288 12.2447018,1.1873785 12.2447018,1.43498177 C12.2447018,1.79749484 11.9995887,2.03689026 11.5079931,2.15180007 L10.6220255,2.3542602 C9.10205023,2.72771706 8.34069324,4.24069614 8.34069324,6.89593338 L8.34069324,28.9367281 L8.36671083,29.8231751 C8.36671083,31.8532483 8.55978877,33.0543294 8.94868335,33.4250503 C9.33894728,33.7985071 10.608332,33.9831836 12.758207,33.9831836 C15.9213988,33.9831836 18.6683091,33.6083588 20.9948299,32.8573411 C23.3213506,32.1049555 24.8070922,31.1145424 25.4506854,29.88063 C25.6875824,29.4250947 25.9244795,29.1966431 26.1613765,29.1966431 C26.4311379,29.1966431 26.5584872,29.3649039 26.5406857,29.7027934 C26.4735876,30.8122202 25.9231101,32.0324529 24.8919917,33.3607555 C23.4363758,35.1938405 21.0769907,36.110383 17.8124672,36.110383 C17.2702057,36.110383 16.6444141,36.0857594 15.9350923,36.0351444 L13.1950287,35.8326843 C11.5874152,35.7150385 9.88668612,35.6548477 8.09421076,35.6548477 C6.01280315,35.6548477 4.27099363,35.7560777 2.86741285,35.9599058 C2.27448555,36.0433522 1.80206079,36.0939673 1.44603055,36.110383 C1.02290229,36.1281666 0.812022835,35.9790575 0.812022835,35.6657914 C0.812022835,35.4031405 1.04207315,35.2047843 1.50080443,35.0720908 C2.6743349,34.7191535 3.46170949,34.1979555 3.86155885,33.5139686 C4.2614082,32.8286137 4.46270223,31.6740438 4.46270223,30.0502588 L4.48871982,28.8847451 L4.48871982,6.21057848 C4.48871982,3.96162947 3.5753653,2.65111052 1.7500256,2.28038961 L0.609359463,2.05193798 C0.204032719,1.96849157 1.70530257e-13,1.80433471 1.70530257e-13,1.55536347 C1.70530257e-13,1.17780269 0.287562893,0.987654321 0.861319331,0.987654321 Z M219.621274,2.55672033 C216.953785,2.55672033 215.258534,2.84399484 214.53141,3.41717588 C214.093219,3.75369745 213.874124,4.44589222 213.874124,5.49102424 L213.874124,31.5591339 C213.874124,32.5864823 214.388998,33.2937248 215.418747,33.6822294 C216.312931,34.0187509 217.456336,34.3142333 218.848962,34.5673084 C220.241588,34.8190156 221.419226,34.9462372 222.381877,34.9462372 C225.267092,34.9462372 227.867482,34.222579 230.17894,32.7711588 C234.096642,30.3457411 236.053439,26.2144601 236.053439,20.3827876 C236.053439,17.2131922 235.44271,14.2966719 234.217144,11.6345948 C232.994317,8.97114972 231.31002,6.88225365 229.166992,5.36380267 C226.551539,3.49378242 223.369177,2.55672033 219.621274,2.55672033 Z M182.280093,7.16681501 C182.160959,7.15039932 182.025394,7.30908429 181.873397,7.64697383 L176.931423,18.6126522 C176.710958,19.0859712 176.60141,19.3978692 176.60141,19.5497143 C176.60141,19.9888339 176.990305,20.2077097 177.768094,20.2077097 L178.451398,20.2337012 L186.107418,20.2337012 C186.952305,20.2337012 187.375433,20.0216653 187.375433,19.6003293 C187.375433,19.4826836 187.331614,19.2884313 187.248084,19.0175725 L187.120735,18.5620372 L183.141412,8.53478886 L182.938749,8.00127906 C182.736085,7.46229736 182.51699,7.18459867 182.280093,7.16681501 Z" id="Lily-Pad" fill="#FFFFFF"></path>
        <path d="M121.385825,5.42128037 L121.480896,5.43060237 C121.65993,5.44962308 121.565723,5.45411174 121.751441,5.5402941 L121.751441,5.5402941 L121.888376,5.70034704 L122.148552,6.016349 L122.298064,6.21637717 C122.391078,6.35013462 122.475369,6.48328407 122.578527,6.6073137 L122.578527,6.6073137 L122.757955,6.82841111 C122.995411,7.12096052 123.230062,7.4026537 123.513791,7.65107775 L123.513791,7.65107775 L123.706244,7.84630403 C123.961184,8.1047526 124.206133,8.35777304 124.401128,8.62917905 L124.401128,8.62917905 L124.566562,8.88749099 C124.72087,9.14687166 124.845138,9.40721418 124.969407,9.64831957 L124.969407,9.64831957 L125.074568,9.89344339 C125.174894,10.1342923 125.260393,10.3620599 125.328176,10.5744379 L125.328176,10.5744379 L125.381712,10.7411994 C125.448842,10.9685238 125.498796,11.2086305 125.52947,11.3760705 L125.52947,11.3760705 L125.552482,11.5148101 C125.576281,11.6961266 125.568991,11.8332319 125.558672,11.9237117 L125.602045,11.82203 L125.871456,11.202305 C126.236381,10.3789818 126.625495,9.56651474 127.054922,8.7522967 L127.054922,8.7522967 L127.138453,8.59829568 C127.247562,8.39552912 127.353166,8.19854088 127.52187,7.95339997 L127.52187,7.95339997 L127.533072,7.9377126 C127.551044,7.9098148 127.571394,7.86972557 127.682083,7.76598755 L127.682083,7.76598755 L127.766469,7.69861484 L127.766469,7.69861484 L127.85599,7.64150193 L127.901179,7.6168784 L127.924458,7.60456664 L127.8923,7.60832757 C127.849423,7.61296991 127.928566,7.60124442 128.010727,7.58951893 C128.083302,7.57720716 128.157247,7.56763134 128.158616,7.56763134 L128.158616,7.56763134 L128.157247,7.56899932 L128.183264,7.57173527 C128.217722,7.57592294 128.3693,7.60104899 128.5078,7.67843723 L128.5078,7.67843723 L128.576886,7.72241978 C128.695959,7.80255992 128.707529,7.83790389 128.739219,7.86721762 L128.739219,7.86721762 L128.822147,7.96503322 C128.921616,8.08970489 128.980772,8.19388977 129.048692,8.3077052 L129.048692,8.3077052 L129.221952,8.63397243 C129.439339,9.06769675 129.605194,9.49756885 129.755275,9.939698 L129.755275,9.939698 L129.882838,10.3565667 C130.003383,10.774846 130.102747,11.19755 130.179772,11.6264098 L130.168256,11.5761569 C130.197235,11.5036928 130.235563,11.4168646 130.285212,11.3199836 L130.285212,11.3199836 L130.353093,11.1909115 C130.500311,10.9225174 130.716948,10.5955438 131.015074,10.2625398 L131.015074,10.2625398 L131.153956,10.1191804 C131.295876,9.97304237 131.449157,9.82171026 131.634019,9.69346271 L131.634019,9.69346271 L131.787134,9.59348024 C132.001716,9.46823949 132.254333,9.37171526 132.500816,9.26118297 L132.500816,9.26118297 L132.735916,9.16067964 C132.966736,9.05282346 133.184462,8.92226745 133.386783,8.76324049 L133.386783,8.76324049 L133.550744,8.63589854 C133.760944,8.45506334 133.945203,8.23465539 134.196068,8.03000651 L134.196068,8.03000651 L134.251697,7.98001134 C134.315885,7.93031541 134.403181,7.88158134 134.490477,7.83438625 C134.501432,7.80292285 134.613718,7.77829932 134.747914,7.77829932 L134.747914,7.77829932 L134.835717,7.78194091 C134.984507,7.79444901 135.139319,7.84099812 135.206646,7.94929605 L135.206646,7.94929605 L135.232236,7.96417625 C135.293725,8.01426085 135.411265,8.17892023 135.480515,8.32548886 L135.480515,8.32548886 L135.517652,8.41388186 C135.558623,8.51596554 135.569797,8.56324271 135.603756,8.65517056 L135.603756,8.65517056 L135.679477,8.93353186 C135.747966,9.20637852 135.795465,9.4636431 135.828329,9.71398232 L135.828329,9.71398232 L135.858187,9.99764346 C135.900849,10.5575476 135.845348,11.0717941 135.766709,11.5197078 L135.766709,11.5197078 L135.72858,11.7104984 C135.631285,12.1617938 135.500625,12.5330064 135.391761,12.7958145 C136.066121,12.370074 136.769896,11.9855429 137.515365,11.6455614 L137.515365,11.6455614 L137.704132,11.5661176 C137.831228,11.5142359 137.961772,11.4649888 138.101445,11.4212137 L138.101445,11.4212137 L138.208559,11.387369 C138.280982,11.3652788 138.357057,11.3446071 138.446521,11.3281915 L138.446521,11.3281915 L138.511736,11.3256265 L138.511736,11.3256265 L138.57387,11.3117758 C138.612212,11.3022 138.653292,11.2953601 138.708066,11.2953601 L138.708066,11.2953601 L138.757369,11.2974944 C138.845648,11.3049359 138.966416,11.3334354 139.148996,11.4075339 L139.148996,11.4075339 L139.211003,11.4445832 C139.318301,11.5226717 139.439069,11.6777088 139.479009,11.8384457 L139.479009,11.8384457 L139.495244,11.9292135 C139.509353,12.0517402 139.494893,12.1749673 139.470793,12.2351581 L139.470793,12.2351581 L139.441636,12.3137725 C139.377576,12.4853453 139.414497,12.3746915 139.347551,12.5169607 L139.347551,12.5169607 L139.323613,12.5703117 C139.30708,12.6028391 139.289126,12.6341505 139.268129,12.6934294 L139.268129,12.6934294 L139.210414,12.8474024 C139.172579,12.9538004 139.135759,13.0668862 139.09833,13.181796 L139.09833,13.181796 L138.941176,13.7058796 C138.788601,14.2362474 138.648157,14.7833514 138.505403,15.328147 L138.505403,15.328147 L138.211635,16.4204314 C137.915728,17.5142547 137.610192,18.6123102 137.266144,19.7111352 L137.266144,19.7111352 L136.900528,20.8068823 L136.839414,20.9783137 C136.699094,21.3326868 136.455295,21.7449215 136.199422,22.0134352 L136.199422,22.0134352 L135.990365,22.2296839 C135.423527,22.7830134 134.785039,23.1552374 134.150879,23.4799032 L134.150879,23.4799032 L133.668974,23.7081597 C132.379451,24.2914832 131.055546,24.6774883 129.725149,24.9997221 L129.725149,24.9997221 L128.827734,25.2055529 C127.629939,25.4672409 126.427761,25.6804259 125.228213,25.8752254 L125.228213,25.8752254 L124.779046,25.9468197 C124.179732,26.0427748 123.575685,26.1373292 122.930449,26.1898594 L122.930449,26.1898594 L122.344582,26.2275855 C121.761112,26.2556076 121.184189,26.2568901 120.608036,26.2527862 L120.608036,26.2527862 L119.462125,26.2157948 C116.791366,26.1058786 114.142493,25.8340152 111.529265,25.4689372 L111.529265,25.4689372 L111.037483,25.41796 C109.723451,25.2914383 108.391026,25.2455014 107.100796,25.4060104 L107.100796,25.4060104 L106.83104,25.4449362 C106.202034,25.5446032 105.581677,25.7103845 105.089225,26.0311744 L105.089225,26.0311744 L104.973534,26.1128859 C104.750549,26.2837191 104.580024,26.4986306 104.499037,26.7507287 L104.499037,26.7507287 L104.474126,26.8337592 C104.44503,26.9454734 104.43276,27.0645419 104.441524,27.2308875 L104.441524,27.2308875 L104.451602,27.3430613 C104.465659,27.4615621 104.491848,27.5954525 104.531901,27.7124143 L104.531901,27.7124143 L104.616831,27.927755 C105.146374,29.1230993 106.478732,29.8995765 107.706048,30.500345 L107.706048,30.500345 L108.206362,30.7233728 C109.384397,31.2224001 110.633198,31.5750594 111.87571,31.8491672 L111.87571,31.8491672 L113.480028,30.984394 C115.077414,30.1065395 116.65747,29.1959819 118.25139,28.3115868 L118.25139,28.3115868 L118.332248,28.2760649 C118.525323,28.2141401 118.742643,28.2968811 118.845686,28.4812156 L118.845686,28.4812156 L118.880478,28.5630787 C118.923587,28.7029793 118.893157,28.8564964 118.801867,28.9682143 L118.801867,28.9682143 L118.785435,28.9873659 L117.509204,30.5564319 L117.509204,30.5564319 L116.228864,32.1254979 L116.394048,32.1364417 C116.506233,32.1397856 116.621867,32.1364417 116.736892,32.1337058 L116.736892,32.1337058 L116.864412,32.1318248 L116.864412,32.1318248 L116.99296,32.1309698 L117.34291,32.1296237 C117.813308,32.1097936 118.296852,32.0272774 118.769003,31.9955404 L118.769003,31.9955404 L119.365075,31.9085981 C119.762693,31.8423273 120.160716,31.7638968 120.55874,31.7000581 L120.55874,31.7000581 L121.006773,31.6263798 C121.453266,31.5430831 121.895907,31.4353551 122.34163,31.3430169 L122.34163,31.3430169 L123.052562,31.1932292 C124.001771,30.9817076 124.955713,30.7260607 125.908779,30.4634097 L125.908779,30.4634097 L126.354031,30.3432417 C126.803219,30.2251257 127.258955,30.1104724 127.673867,29.975043 L127.673867,29.975043 L129.407461,29.4114378 L130.088508,29.1542149 C130.995082,28.8069028 131.894469,28.4396292 132.771947,28.0215764 L132.771947,28.0215764 L133.176268,27.814478 C133.583285,27.6110132 133.995116,27.413512 134.382299,27.1775365 L134.382299,27.1775365 L134.776007,26.9486574 C135.168646,26.7180683 135.556856,26.4805538 135.929661,26.2199548 L136.308178,25.9660674 C136.679378,25.7030317 137.03267,25.4172961 137.404448,25.1515672 L137.404448,25.1515672 L137.756413,24.8622194 C138.107522,24.5712898 138.454395,24.274012 138.782011,23.9559581 L138.782011,23.9559581 L139.107164,23.6367499 C139.858254,22.8819062 140.55155,22.0558424 141.09073,21.136564 L141.09073,21.136564 L141.114516,21.1095592 C141.134397,21.0965887 141.160567,21.0941568 141.182476,21.1051006 L141.182476,21.1051006 L141.207125,21.1291161 C141.218992,21.1485717 141.221731,21.1734993 141.215341,21.1953869 L141.215341,21.1953869 L141.037324,21.5724748 C140.538934,22.5648469 139.856492,23.4534557 139.11887,24.2815359 L139.11887,24.2815359 L138.757598,24.6771276 C138.02275,25.4573513 137.214891,26.1710986 136.348681,26.8054476 L136.348681,26.8054476 L135.972902,27.0881907 C135.592459,27.3639229 135.199114,27.620418 134.802688,27.8738352 L134.802688,27.8738352 L134.407546,28.127915 C134.006499,28.3720342 133.590816,28.5913375 133.188228,28.8314169 L133.188228,28.8314169 L132.630295,29.120566 C132.256616,29.3085358 131.880502,29.4894123 131.508039,29.6781927 L131.508039,29.6781927 L130.932254,29.9258466 L130.932254,29.9258466 L129.773076,30.3977469 L127.999772,31.0147032 L127.543565,31.1625512 C127.09335,31.3008662 126.658154,31.4155195 126.211405,31.5509489 L126.211405,31.5509489 L125.502203,31.7587715 C124.554878,32.0332418 123.598964,32.2945795 122.61413,32.5112665 L122.61413,32.5112665 L122.156169,32.6182678 C121.698892,32.7286889 121.242386,32.8433422 120.775096,32.907979 L120.775096,32.907979 L120.15463,33.0058144 C119.742,33.0738078 119.329979,33.1428145 118.910046,33.1856777 L118.910046,33.1856777 L118.528765,33.2144489 C118.022873,33.260369 117.523993,33.3271262 116.997068,33.3019554 L116.997068,33.3019554 L116.854827,33.3002455 L116.854827,33.3002455 L116.713613,33.3005875 L116.483106,33.2994728 C116.328826,33.2969395 116.172721,33.2887317 116.011138,33.2622842 L116.011138,33.2622842 L115.881202,33.2456948 C115.584822,33.2100661 115.325266,33.1868746 114.875949,32.9845855 L114.875949,32.9845855 L114.794628,32.9390596 C114.592528,32.8004832 114.511246,32.5314822 114.617143,32.2992306 L114.617143,32.2992306 L114.652917,32.2308319 L114.652917,32.2308319 L114.697934,32.1706411 L114.739014,32.1241299 L115.34741,31.441663 C115.755679,30.9884077 116.168613,30.5381923 116.582156,30.0885849 L116.582156,30.0885849 L115.438195,30.6385745 C114.294747,31.1894618 113.153995,31.7455432 112.026338,32.329326 L112.026338,32.329326 L112.019491,32.332062 L111.967709,32.3513656 C111.932614,32.3598774 111.896706,32.3598774 111.862016,32.3525816 L111.862016,32.3525816 L111.224479,32.1937331 C109.955969,31.8585755 108.726407,31.4190371 107.528033,30.8820097 L107.528033,30.8820097 L107.180998,30.7196325 C106.605397,30.4412561 106.045486,30.1218722 105.527416,29.7274398 L105.527416,29.7274398 L105.344153,29.5834126 C104.798773,29.1388964 104.300755,28.5808041 104.056738,27.8642594 L104.056738,27.8642594 L104.011678,27.7148082 C103.971753,27.5657846 103.946848,27.415222 103.933496,27.2377274 L103.933496,27.2377274 L103.929246,27.1288914 C103.928019,26.9732706 103.945547,26.7800033 103.993748,26.6016195 L103.993748,26.6016195 L104.04719,26.441978 C104.190484,26.0778351 104.459326,25.7736533 104.756474,25.5605914 L104.756474,25.5605914 L104.989958,25.408052 C105.621293,25.0289225 106.318747,24.8636847 106.996726,24.7384391 L106.996726,24.7384391 L107.51022,24.6624612 C108.879477,24.4840129 110.248012,24.4938758 111.610056,24.5729143 L111.610056,24.5729143 L112.344264,24.6309962 C111.289987,24.1530734 110.285374,23.5343603 109.42184,22.7097339 L109.42184,22.7097339 L109.198161,22.4934385 C108.758014,22.044424 108.363139,21.5033764 108.049754,20.9874548 L108.049754,20.9874548 L107.691999,20.386965 C107.459109,19.982146 107.234536,19.5720579 107.000834,19.1789934 L107.000834,19.1789934 L106.738925,18.7335469 C106.475689,18.2918624 106.20764,17.8640285 105.927266,17.47313 L105.927266,17.47313 L105.636964,17.1119849 L105.35214,16.8575418 L105.301988,16.844888 L105.301988,16.844888 L105.259024,16.8219744 L105.247169,16.8155906 C105.237343,16.8074207 105.265871,16.8087507 105.16317,16.7768313 L105.16317,16.7768313 L105.10018,16.7590477 L105.015027,16.7241897 C104.958529,16.6970328 104.903451,16.6623775 104.855067,16.6222503 L104.855067,16.6222503 L104.83824,16.6055554 C104.808705,16.5802618 104.798141,16.5921548 104.703069,16.4362058 L104.703069,16.4362058 L104.664297,16.3545137 C104.611361,16.2080582 104.616116,16.0180618 104.667466,15.904064 L104.667466,15.904064 L104.711954,15.8142592 C104.771811,15.7100306 104.835348,15.661659 104.920796,15.5949019 L104.920796,15.5949019 L104.971779,15.5632306 C105.022346,15.5330695 105.012268,15.5451077 105.049514,15.5265032 L105.049514,15.5265032 L105.111591,15.5037543 C105.149933,15.4907839 105.180972,15.4822721 105.197404,15.4786241 L105.197404,15.4786241 L105.268356,15.4617018 C105.312885,15.4518726 105.35214,15.4448808 105.387743,15.4403209 L105.387743,15.4403209 L105.496936,15.4260838 C105.567128,15.4179773 105.632856,15.4125054 105.698585,15.4088575 L105.698585,15.4088575 L106.112813,15.3978294 C107.269802,15.3919671 108.360358,15.5942057 109.422179,15.8995872 C109.201155,15.6594505 108.838323,15.2142442 108.511224,14.5867052 L108.511224,14.5867052 L108.41706,14.3949377 C108.198841,13.9356351 107.996349,13.392806 107.919666,12.7536202 L107.919666,12.7536202 L107.905186,12.5937388 C107.877496,12.2723168 107.86274,11.9359627 107.956638,11.4950843 L107.956638,11.4950843 L107.980498,11.4136844 C108.013494,11.302583 108.055779,11.1804503 108.16204,11.038181 C108.279804,10.8671843 108.538611,10.6975555 108.790571,10.6948196 L108.790571,10.6948196 L108.929735,10.7083623 C109.263773,10.7567162 109.317465,10.8968237 109.479352,10.9807261 L109.479352,10.9807261 L109.670601,11.1072692 C109.924664,11.2750594 110.176624,11.4346198 110.446111,11.5320196 L110.446111,11.5320196 L110.646178,11.609819 C110.91273,11.7084882 111.179807,11.7850947 111.463536,11.8179261 L111.463536,11.8179261 L111.67045,11.852016 C111.945546,11.8957912 112.215034,11.9369398 112.449466,12.0244902 L112.449466,12.0244902 L112.663448,12.1112069 C112.869171,12.2072002 113.051979,12.3264704 113.228625,12.4280424 L113.228625,12.4280424 L113.418265,12.5559261 C113.784635,12.8114939 114.072534,13.0637594 114.263851,13.2748183 L114.263851,13.2748183 L114.34353,13.3625583 C114.383815,13.4084428 114.41921,13.4511963 114.449807,13.4897886 L114.445161,13.4597726 C114.388804,12.9691616 114.349778,12.4595058 114.319994,11.9383078 L114.319994,11.9383078 L114.286065,11.2332946 C114.263547,10.7586583 114.241029,10.2753076 114.217293,9.78648493 L114.217293,9.78648493 L114.209077,9.51152219 L114.204969,9.37198885 L114.204969,9.35557317 L114.207961,9.25322846 C114.214859,9.18989634 114.2319,9.13304942 114.261112,9.06282676 L114.261112,9.06282676 L114.317585,8.96567529 C114.416799,8.81830144 114.541372,8.74249289 114.689718,8.7208333 C114.718474,8.71125748 114.751339,8.70578559 114.785572,8.70578559 L114.785572,8.70578559 L114.85881,8.71124153 C115.006987,8.73191668 115.155883,8.80427971 115.134756,8.80427971 L115.134756,8.80427971 L115.201854,8.85899866 L115.298243,8.95410275 C115.468457,9.13041584 115.514065,9.229915 115.62909,9.37062088 L115.62909,9.37062088 L116.275422,10.2762196 L116.50163,10.56889 C116.882956,11.0535707 117.288054,11.5192518 117.750209,11.9136843 L117.750209,11.9136843 L118.168844,12.2556777 C118.595438,12.5893779 119.043215,12.9030714 119.48791,13.2406189 L119.48791,13.2406189 L119.668281,13.3702591 C119.897455,13.5508754 120.086315,13.7588074 120.294456,13.9492294 L120.294456,13.9492294 L120.485073,14.1308279 C120.674107,14.3129394 120.854861,14.4981289 120.995561,14.700247 L120.995561,14.700247 L121.226127,15.0184268 C121.522212,15.4430021 121.773077,15.8674023 121.980122,16.2734169 L121.980122,16.2734169 L122.09017,16.4897815 C122.924352,18.1659801 123.15409,19.4802054 123.200082,19.7968209 C123.227136,19.2945768 123.27757,18.7908975 123.353577,18.2843385 L123.353577,18.2843385 L123.432583,17.9362384 C123.535865,17.4644297 123.635115,16.9710836 123.780813,16.5661633 L123.780813,16.5661633 L123.958321,16.0266243 C124.082374,15.6677085 124.215353,15.3108193 124.342246,14.9587941 L124.342246,14.9587941 L124.637875,14.166267 C124.941164,13.3771598 125.266213,12.5976712 125.602045,11.82203 L125.468186,12.1332804 C125.445426,12.1300165 125.430192,12.1197995 125.420435,12.10488 L125.410336,12.0792091 C125.367599,12.038457 125.222888,11.8072863 124.972145,11.5361235 L124.972145,11.5361235 L124.885548,11.4410329 C124.772056,11.3143476 124.662947,11.1834598 124.516153,10.9930379 L124.516153,10.9930379 L124.37894,10.8177448 C124.24254,10.6347997 124.106718,10.4301166 123.95472,10.2146607 L123.95472,10.2146607 L123.807537,9.99003517 C123.657914,9.76092092 123.503863,9.51699408 123.371379,9.24613526 L123.371379,9.24613526 L123.26412,9.02765342 C123.130209,8.72608632 123.027672,8.38704768 122.896215,8.05326206 L122.896215,8.05326206 L122.812482,7.84645102 C122.668447,7.49999264 122.49842,7.14925934 122.248514,6.86312481 L122.248514,6.86312481 L122.138581,6.73288943 C122.027279,6.60098682 121.91097,6.46812236 121.781567,6.37065422 L121.781567,6.37065422 L121.517283,6.20649736 L121.507697,6.20102547 L121.495715,6.22975292 L121.495715,6.22975292 L121.485788,6.26668821 L121.461849,6.34430806 C121.44562,6.40135764 121.429188,6.46732438 121.414582,6.53207514 L121.414582,6.53207514 L121.273539,7.15313527 L121.187879,7.58435103 C121.134322,7.8731455 121.086851,8.16315596 121.03938,8.44587056 L121.03938,8.44587056 L120.963902,8.86789049 C120.830327,9.56175723 120.6603,10.2062249 120.490272,10.7727941 L120.490272,10.7727941 L120.425223,10.9831675 C120.032979,12.2216603 119.61389,13.025847 119.61389,13.025847 L119.61389,13.025847 L119.58772,13.0538145 C119.566419,13.0671902 119.539033,13.0696222 119.515297,13.0586784 L119.515297,13.0586784 L119.491162,13.0376458 L119.491162,13.0376458 L119.478325,13.0094313 C119.454686,12.9097744 119.237114,11.9519875 119.285247,10.5744379 L119.285247,10.5744379 L119.298429,10.2977652 C119.33649,9.64017585 119.429199,8.90089286 119.650863,8.13123657 L119.650863,8.13123657 L119.752023,7.79886167 C119.858062,7.46452032 119.979506,7.12440782 120.123287,6.77967841 L120.123287,6.77967841 L120.200848,6.6061381 C120.281532,6.43332453 120.373193,6.2622423 120.490272,6.08885161 L120.490272,6.08885161 L120.572281,5.97282716 C120.629489,5.8961193 120.693392,5.81981675 120.773727,5.73865031 C120.898338,5.63468429 120.999669,5.46505554 121.385825,5.42128037 L121.385825,5.42128037 Z M106.779,16.6290901 L106.888547,16.7713594 L107.135293,17.1446302 C107.452061,17.6431418 107.722206,18.1448052 107.97307,18.6482195 L107.97307,18.6482195 L108.900118,20.5305516 L109.031009,20.7899362 C109.295888,21.2979849 109.583618,21.7447261 109.970948,22.1844319 L109.970948,22.1844319 L110.272662,22.5133255 C111.096314,23.3784705 112.069396,24.1477784 113.114969,24.8068378 L112.91399,24.6763969 C115.492045,24.8761735 118.055924,25.0377909 120.610775,25.0120339 L120.610775,25.0120339 L121.167286,25.0021802 C121.723284,24.9890348 122.276586,24.9641548 122.816793,24.9108038 L122.816793,24.9108038 L123.047186,24.8832804 L122.784189,24.6892871 C121.289445,23.5784163 119.806163,22.4508259 118.285249,21.3782584 L117.136741,20.5852705 L116.644307,20.245686 C115.65888,19.5663254 114.667417,18.8932823 113.621627,18.360945 L113.621627,18.360945 L113.15391,18.1429349 C112.055779,17.6510521 110.911518,17.2769968 109.750483,17.0244346 L109.750483,17.0244346 L109.251891,16.9238244 C108.752058,16.8318068 108.249336,16.7638356 107.751236,16.7043287 L107.751236,16.7043287 L107.264604,16.6605535 L107.264604,16.6605535 L106.779,16.6290901 Z M128.238038,9.13532938 L128.201066,9.21757881 L128.201066,9.21757881 L128.164093,9.29675029 L127.840735,10.051594 C127.522811,10.8133203 127.218559,11.5925524 126.904294,12.3610117 L126.904294,12.3610117 L125.710223,15.4663124 L125.148791,17.0203307 L125.034467,17.3368798 C124.900337,17.749023 124.830007,18.1270215 124.7106,18.5374137 L124.7106,18.5374137 L124.628909,19.0154187 C124.336339,20.9397376 124.447475,23.0050058 124.724294,24.9723627 L124.677186,24.6232804 L125.002271,24.5660744 L125.068684,24.5532497 L125.068684,24.5532497 L125.135098,24.5414509 L125.43262,23.8650448 C125.938486,22.7375114 126.495544,21.6133029 127.12202,20.5565431 L127.12202,20.5565431 L127.325089,20.1923855 C128.026152,18.9886302 128.964664,17.8883722 130.014081,16.9656117 L130.014081,16.9656117 L130.226186,16.7822804 L130.208985,16.7758687 C130.199856,16.7695861 130.192097,16.7612769 130.186163,16.7518025 L130.174295,16.7207444 L130.121725,16.3053719 C130.075189,15.8918377 130.040784,15.482728 129.964785,15.068232 L129.964785,15.068232 L129.688177,13.4102477 L129.563566,12.5798875 L129.509604,12.3345136 C129.469233,12.1635675 129.421154,11.982083 129.371858,11.8151902 L129.371858,11.8151902 L129.251826,11.4288658 C129.124862,11.0442514 128.977486,10.6654081 128.813164,10.2981072 L128.813164,10.2981072 L128.678433,9.9984995 C128.541263,9.69961859 128.396198,9.40516222 128.238038,9.13532938 L128.238038,9.13532938 Z M137.875503,12.8001313 L137.395047,13.0121593 C136.27724,13.5282995 135.18525,14.1906767 134.182374,14.9232267 L134.182374,14.9232267 L133.450913,15.4603042 C132.465815,16.1666603 131.451622,16.8416733 130.530325,17.577096 L130.530325,17.577096 L130.147246,17.8880239 C129.144681,18.7340135 128.292508,19.7146312 127.556103,20.8260339 C126.716694,22.0093313 126.000525,23.2309319 125.315852,24.5086195 L125.315852,24.5086195 L126.136978,24.3526158 C127.22987,24.1396496 128.314174,23.9047959 129.380074,23.6235404 L129.380074,23.6235404 L129.915245,23.476892 C131.162343,23.1293385 132.393322,22.7389743 133.510025,22.1967437 L133.510025,22.1967437 L133.743993,22.0773319 C134.285139,21.7917593 134.787625,21.4573538 135.142286,21.0695333 L135.142286,21.0695333 L135.239649,20.9536545 C135.388312,20.768313 135.473897,20.611946 135.570892,20.3349313 L135.570892,20.3349313 L135.93103,19.2843274 L136.262947,18.218462 C136.585236,17.1461843 136.883069,16.0565931 137.196307,14.9670019 L137.196307,14.9670019 L137.356349,14.4283622 C137.517077,13.889466 137.682425,13.3490308 137.875503,12.8001313 L137.875503,12.8001313 Z M115.561992,10.6469405 L115.649459,11.248678 L115.649459,11.248678 L115.735899,11.8411817 L115.802334,12.3565231 C115.864019,12.867846 115.910491,13.3664725 115.933085,13.8466313 L115.933085,13.8466313 L115.939808,13.9757553 C115.955665,14.245968 115.983164,14.5736117 115.971427,14.700247 L115.971427,14.700247 L116.02312,15.1422736 L116.02312,15.1422736 L116.072759,15.5689104 L116.10133,15.9010873 C116.191111,16.8714267 116.314722,17.609517 116.397294,18.2090999 L116.397294,18.2090999 L116.419027,18.3663623 C116.495544,18.9212728 116.536967,19.2350803 116.536967,19.2350803 L116.536967,19.2350803 L116.536069,19.2636582 C116.529521,19.2906543 116.507184,19.3116869 116.479455,19.3157908 L116.479455,19.3157908 L116.452879,19.3138148 C116.43594,19.3095589 116.421029,19.2998311 116.410987,19.2870633 L116.410987,19.2870633 C116.373397,19.2324679 116.16325,18.9215863 115.878311,18.3773607 L115.878311,18.3773607 L115.777823,18.1929141 C115.647111,17.9333711 115.526389,17.6205976 115.3785,17.2693019 L115.3785,17.2693019 L115.260604,16.9975895 C115.110217,16.625807 114.985771,16.2176036 114.871841,15.7918901 L114.871841,15.7918901 L114.762978,15.3761971 L114.762978,15.3761971 L114.650007,14.9451143 L114.603348,14.6183206 C114.572106,14.3979248 114.540459,14.1726651 114.507595,13.9437575 L114.507595,13.9437575 L114.492378,13.8212646 C114.414366,13.823451 114.237059,13.822807 113.996828,13.7878084 L113.996828,13.7878084 L113.847482,13.7659807 C113.534576,13.71592 113.13903,13.6258013 112.708273,13.4663346 L112.708273,13.4663346 L112.518725,13.3890868 C112.325968,13.3089321 112.124931,13.2183893 111.927745,13.1024535 L111.927745,13.1024535 L111.770774,13.0016612 C111.564211,12.8554522 111.366586,12.6663435 111.154064,12.4868653 L111.154064,12.4868653 L110.996578,12.3494004 C110.781382,12.1698784 110.544978,12.0094424 110.283159,11.9164202 L110.283159,11.9164202 L110.086411,11.8463581 C109.818676,11.7657242 109.531661,11.7320173 109.25341,11.6948085 L109.25341,11.6948085 L109.203258,11.6889946 L109.203258,11.6889946 L109.14797,11.6811287 L109.149853,11.6884816 L109.150709,11.6948085 L109.162329,11.7988251 C109.189241,11.9890748 109.251812,12.2565897 109.319139,12.4937052 L109.319139,12.4937052 L109.41267,12.8492799 C109.52958,13.3227521 109.615465,13.7902708 109.67243,14.2105124 L109.67243,14.2105124 L109.69685,14.3940715 C109.795648,15.1938401 109.773981,15.8156948 109.763768,16.0038875 L110.00929,16.0791646 L110.519024,16.2537096 C111.70069,16.6790853 112.827577,17.2301436 113.883172,17.8848901 L113.883172,17.8848901 L114.603832,18.3370876 C115.547696,18.9576005 116.433718,19.6358967 117.384593,20.2213895 L117.384593,20.2213895 L118.58069,21.006103 C120.186222,22.0365266 121.830315,23.0098674 123.460386,24.0024692 L123.460386,24.0024692 L123.386841,23.5336737 C123.212838,22.3431984 123.135718,21.1407166 123.193172,19.9227417 L123.175904,19.9404205 L123.175904,19.9404205 L123.149544,19.9505306 L123.124237,19.9485547 C123.108008,19.9442988 123.093401,19.934571 123.082446,19.9218032 L123.082446,19.9218032 C123.042431,19.8687182 122.816907,19.568182 122.471718,19.0791313 L122.471718,19.0791313 L122.338977,18.8934246 C121.974239,18.3740674 121.523064,17.6655583 120.97776,16.8630137 L120.97776,16.8630137 L120.801015,16.5802261 C120.555453,16.2028842 120.275011,15.8211648 120.016478,15.3965457 L120.016478,15.3965457 L119.815984,15.0800622 C119.551448,14.6480451 119.29182,14.1820585 118.962081,13.756345 L118.962081,13.756345 L118.803386,13.5580743 C118.645163,13.3572387 118.485206,13.1510166 118.295209,12.9601843 L118.295209,12.9601843 L118.030266,12.7120743 C117.850019,12.5493361 117.663483,12.3906512 117.476339,12.2283183 L117.476339,12.2283183 L117.052633,11.8648433 C116.621353,11.5069685 116.171009,11.1619826 115.73453,10.7946817 L115.73453,10.7946817 L115.561992,10.6469405 Z M134.493216,8.70578559 L134.317578,8.75289861 C134.080385,8.82687863 133.835655,8.94463382 133.637374,9.09565814 L133.637374,9.09565814 L133.481246,9.21958562 C133.280686,9.39332925 133.110449,9.60016689 132.969132,9.82889212 L132.969132,9.82889212 L132.832882,10.0356058 C132.699885,10.2415072 132.573049,10.4410604 132.420024,10.5990614 L132.420024,10.5990614 L132.265374,10.7494958 C132.107728,10.8919788 131.943149,11.0125315 131.790125,11.1284673 L131.790125,11.1284673 L131.582529,11.2680259 C131.241397,11.4881684 130.927208,11.6462454 130.679584,11.7454235 L130.679584,11.7454235 L130.573698,11.7871975 C130.409031,11.849034 130.283722,11.8814934 130.223004,11.8954681 L130.226432,11.9134816 C130.254934,12.1030726 130.278365,12.293069 130.297536,12.5073849 L130.297536,12.5073849 L130.33177,13.3445849 L130.37422,15.0271928 L130.37882,15.4487852 C130.37131,15.8727716 130.332797,16.3021444 130.31123,16.7207444 L130.312186,16.7092804 L130.714859,16.3642942 C131.419141,15.7770722 132.132297,15.2266871 132.839537,14.6640887 L133.544258,14.0956026 L133.956971,13.7804113 C134.291259,13.5306469 134.630664,13.2906363 134.977066,13.0610935 C134.873429,12.8014874 134.67199,12.2377608 134.543882,11.5128679 L134.543882,11.5128679 L134.494552,11.1982996 C134.433731,10.767158 134.395171,10.2915409 134.408316,9.80016467 L134.408316,9.80016467 L134.416532,9.49110391 C134.420793,9.28519851 134.42201,9.08152241 134.416532,8.89183003 L134.416532,8.89183003 L134.415766,8.85427094 C134.413136,8.79683793 134.406125,8.71891814 134.419271,8.72767317 L134.419271,8.72767317 L134.43222,8.73472097 C134.456408,8.74299448 134.50198,8.74408886 134.493216,8.70578559 L134.493216,8.70578559 Z" id="Lily-Pad-Mark" fill="#FFFFFF"></path>
    </g>
</svg>