<?xml version="1.0" encoding="UTF-8"?>
<svg width="16px" height="16px" viewBox="0 0 16 16" version="1.1" xmlns="http://www.w3.org/2000/svg" xmlns:xlink="http://www.w3.org/1999/xlink">
    <!-- Generator: Sketch 63.1 (92452) - https://sketch.com -->
    <title>Assets/Logo/Social/LinkedIn</title>
    <desc>Created with Sketch.</desc>
    <g id="Assets/Logo/Social/LinkedIn" stroke="none" stroke-width="1" fill="none" fill-rule="evenodd">
        <path d="M1.9,3.85 C1.36666641,3.85 0.916666412,3.65833359 0.55,3.275 C0.183333588,2.89166641 0,2.44166641 0,1.925 C0,1.40833359 0.183333588,0.958333588 0.55,0.575 C0.916666412,0.191666412 1.36666641,0 1.9,0 C2.43333359,0 2.89166641,0.191666412 3.275,0.575 C3.65833359,0.958333588 3.85,1.40833359 3.85,1.925 C3.85,2.44166641 3.65833359,2.89166641 3.275,3.275 C2.89166641,3.65833359 2.43333359,3.85 1.9,3.85 Z M8.95,16 L5.65,16 L5.65,5.3 L8.85,5.3 L8.85,6.75 L8.9,6.75 C9.13333359,6.28333359 9.5,5.9 10,5.6 C10.6,5.23333359 11.2833336,5.05 12.05,5.05 C13.5833336,5.05 14.6666664,5.53333359 15.3,6.5 C15.7666664,7.26666641 16,8.48333359 16,10.15 L16,10.15 L16,16 L12.7,16 L12.7,10.8 C12.7,9.93333359 12.6166664,9.3 12.45,8.9 C12.2166664,8.26666641 11.7166664,7.95 10.95,7.95 C10.1833336,7.95 9.63333359,8.23333359 9.3,8.8 C9.06666641,9.23333359 8.95,9.86666641 8.95,10.7 L8.95,10.7 L8.95,16 Z M3.6,16 L0.25,16 L0.25,5.3 L3.6,5.3 L3.6,16 Z" id="Social---LinkedIn" fill="#FFFFFF"></path>
    </g>
</svg>